<?xml version="1.0" encoding="utf-8"?>
<!-- Generator: Adobe Illustrator 18.1.0, SVG Export Plug-In . SVG Version: 6.00 Build 0)  -->
<svg version="1.1" id="Layer_1" xmlns="http://www.w3.org/2000/svg" xmlns:xlink="http://www.w3.org/1999/xlink" x="0px" y="0px"
	 viewBox="0 0 841.9 595.3" enable-background="new 0 0 841.9 595.3" xml:space="preserve">
<g>
	<path fill="#FFFFFF" d="M85,85.5C76.2,79.6,73.2,67.8,73.2,56c0-26.5,17.7-44.2,44.2-44.2h607.1c23.6,0,44.2,20.6,44.2,44.2
		s-20.6,44.2-44.2,44.2H117.4C102.7,100.2,93.8,94.3,85,85.5z"/>
</g>
<g>
	<path fill="#FFFFFF" d="M87.9,571.7c-8.8-8.8-11.8-17.7-11.8-32.4c0-23.6,20.6-44.2,44.2-44.2h607.1c23.6,0,44.2,20.6,44.2,44.2
		s-20.6,44.2-44.2,44.2h-610C105.6,583.5,93.8,577.6,87.9,571.7z"/>
</g>
<g>
	<path fill="#FFFFFF" d="M87.9,327.1c-8.8-8.8-11.8-17.7-11.8-32.4c0-23.6,20.6-44.2,44.2-44.2h607.1c23.6,0,44.2,20.6,44.2,44.2
		c0,23.6-20.6,44.2-44.2,44.2h-610C105.6,341.8,93.8,336,87.9,327.1z"/>
</g>
</svg>
