<?xml version="1.0" encoding="utf-8"?>
<!-- Generator: Adobe Illustrator 20.0.0, SVG Export Plug-In . SVG Version: 6.00 Build 0)  -->
<svg version="1.1" id="Layer_1" xmlns="http://www.w3.org/2000/svg" xmlns:xlink="http://www.w3.org/1999/xlink" x="0px" y="0px"
	 viewBox="0 0 18.3 18.3" style="enable-background:new 0 0 18.3 18.3;" xml:space="preserve">
<style type="text/css">
	.st0{fill:#1BA3DD;}
</style>
<g>
	<path class="st0" d="M16.4,17.9c-0.4,0-0.8-0.1-1.1-0.4L0.8,2.9c-0.6-0.6-0.6-1.5,0-2.1c0.6-0.6,1.5-0.6,2.1,0l14.6,14.6
		c0.6,0.6,0.6,1.5,0,2.1C17.2,17.8,16.8,17.9,16.4,17.9z"/>
</g>
<g>
	<path class="st0" d="M1.8,17.9c-0.4,0-0.8-0.1-1.1-0.4c-0.6-0.6-0.6-1.5,0-2.1L15.4,0.8c0.6-0.6,1.5-0.6,2.1,0
		c0.6,0.6,0.6,1.5,0,2.1L2.9,17.5C2.6,17.8,2.2,17.9,1.8,17.9z"/>
</g>
</svg>
