<?xml version="1.0" encoding="UTF-8"?>
<svg width="117px" height="96px" viewBox="0 0 117 96" version="1.1" xmlns="http://www.w3.org/2000/svg" xmlns:xlink="http://www.w3.org/1999/xlink">
    <!-- Generator: Sketch 43.1 (39012) - http://www.bohemiancoding.com/sketch -->
    <title>Gap</title>
    <desc>Created with Sketch.</desc>
    <defs></defs>
    <g id="Symbols" stroke="none" stroke-width="1" fill="none" fill-rule="evenodd">
        <g id="LOGO/Gap" transform="translate(-38.000000, -49.000000)" fill="#FFFFFF">
            <g id="Gap">
                <path d="M137.463,51.891 L141.32,51.891 C145.07,51.784 146.678,55.212 146.678,57.891 L146.678,98.073 C146.785,100.966 145.07,103.645 141.749,103.645 L137.463,103.645 L137.463,51.891 Z M141.427,50.391 L125.997,50.391 L125.997,51.891 L130.069,51.891 L130.069,142.22 L125.997,142.22 L125.997,143.827 L143.356,143.827 L143.356,142.22 L137.463,142.22 L137.463,105.467 L142.606,105.467 C149.892,105.467 154.071,101.609 154.071,96.359 L154.071,60.249 C154.071,54.998 150.535,50.391 141.427,50.391 L141.427,50.391 Z" id="Fill-3"></path>
                <path d="M59.778,51.569 C59.778,53.069 58.921,52.962 58.278,52.426 C55.706,50.712 52.706,49.426 49.92,49.426 C45.419,49.426 39.097,51.676 38.99,61.106 L38.99,130.326 C39.097,142.434 44.884,144.684 50.563,144.684 C55.063,144.791 57.206,142.434 58.921,141.577 C59.885,141.255 60.956,142.112 60.956,143.934 L62.778,143.934 L62.778,99.895 L66.528,99.895 L66.528,98.395 L50.884,98.395 L50.884,99.895 L55.384,99.895 L55.384,137.719 C55.384,140.827 53.348,143.184 50.67,143.184 C48.098,143.184 46.169,140.719 46.169,137.719 L46.169,58.32 C46.169,56.177 46.598,51.141 49.92,51.141 C56.349,51.141 59.778,69.999 59.778,79.75 L61.599,79.75 L61.599,50.283 L59.778,50.283 L59.778,51.569" id="Fill-4"></path>
                <path d="M88.173,103.752 L92.673,63.356 L97.281,103.752 L88.173,103.752 Z M97.495,105.36 L101.674,142.22 L97.602,142.22 L97.602,143.827 L113.032,143.827 L113.032,142.22 L108.96,142.22 L98.674,50.283 L92.138,50.283 L82.494,137.076 C81.958,140.184 81.744,142.112 77.243,142.22 L77.243,143.827 L88.816,143.827 L88.816,142.22 C85.494,142.22 83.994,140.077 84.315,137.934 L87.958,105.36 L97.495,105.36 L97.495,105.36 Z" id="Fill-5"></path>
            </g>
        </g>
    </g>
</svg>