<?xml version="1.0" encoding="UTF-8"?>
<svg width="126px" height="89px" viewBox="0 0 126 89" version="1.1" xmlns="http://www.w3.org/2000/svg" xmlns:xlink="http://www.w3.org/1999/xlink">
    <!-- Generator: Sketch 43.1 (39012) - http://www.bohemiancoding.com/sketch -->
    <title>Group 2</title>
    <desc>Created with Sketch.</desc>
    <defs></defs>
    <g id="Symbols" stroke="none" stroke-width="1" fill="none" fill-rule="evenodd">
        <g id="QANTAS_LOYALTY_REV" fill-rule="nonzero">
            <g id="Group-2">
                <path d="M34.2325301,89 L125.316867,89 L52.2975904,15.5179487 C42.5819277,5.78119658 29.3746988,0 15.6361446,0 L0.379518072,0 L1.51807229,2.96666667 L6.60361446,16.2786325 L34.2325301,89 Z" id="Shape" fill="#F60000"></path>
                <path d="M6.60361446,16.2786325 C16.546988,33.3179487 42.7337349,35.1435897 45.6180723,61.691453 C45.7698795,62.7564103 46.6048193,63.6692308 47.6674699,63.8213675 C62.7722892,66.1794872 77.4216867,72.417094 90.173494,82.6863248 C90.2493976,82.7623932 90.3253012,82.7623932 90.4771084,82.7623932 C90.553012,82.7623932 90.7048193,82.6863248 90.7807229,82.6102564 C90.9325301,82.4581197 90.9325301,82.1538462 90.7807229,82.0017094 C81.9759036,72.7213675 71.1216867,65.2666667 59.053012,60.3982906 L55.3337349,58.8769231 C53.4361446,58.1162393 52.1457831,56.2145299 52.1457831,54.0846154 C52.373494,46.1735043 71.0457831,47.7709402 72.9433735,43.9675214 L73.246988,43.282906 C69.3759036,40.0119658 64.8216867,37.5017094 59.8120482,36.1324786 C59.7361446,36.3606838 59.660241,37.2735043 60.646988,38.9470085 C61.7855422,40.7726496 59.4325301,43.6632479 56.0168675,40.5444444 L55.713253,40.3162393 C30.513253,17.0393162 11.5373494,29.0581197 1.51807229,2.96666667 L6.60361446,16.2786325 Z" id="Shape" fill="#FFFFFF"></path>
            </g>
        </g>
    </g>
</svg>