<?xml version="1.0" encoding="UTF-8"?>
<svg width="87px" height="25px" viewBox="0 0 87 25" version="1.1" xmlns="http://www.w3.org/2000/svg" xmlns:xlink="http://www.w3.org/1999/xlink">
    <!-- Generator: Sketch 43.1 (39012) - http://www.bohemiancoding.com/sketch -->
    <title>HCF LOGO Copy</title>
    <desc>Created with Sketch.</desc>
    <defs>
        <linearGradient x1="63.3542523%" y1="98.905%" x2="25.8043822%" y2="4.93233333%" id="linearGradient-1">
            <stop stop-color="#A21C49" offset="0%"></stop>
            <stop stop-color="#8F183F" offset="33%"></stop>
            <stop stop-color="#7F1335" offset="67%"></stop>
            <stop stop-color="#6D0B2A" offset="100%"></stop>
        </linearGradient>
        <linearGradient x1="22.0262185%" y1="6.27114428%" x2="65.1438655%" y2="97.8624378%" id="linearGradient-2">
            <stop stop-color="#E0004D" offset="0%"></stop>
            <stop stop-color="#C81E55" offset="45%"></stop>
            <stop stop-color="#B31E4F" offset="65%"></stop>
            <stop stop-color="#A21C49" offset="85%"></stop>
        </linearGradient>
    </defs>
    <g id="Symbols" stroke="none" stroke-width="1" fill="none" fill-rule="evenodd">
        <g id="HCF-LOGO-Copy" fill-rule="nonzero">
            <path d="M16.0060976,17.2256098 C15.3658537,17.4695122 14.695122,17.5914634 13.9939024,17.5914634 C10.2134146,17.5914634 7.77439024,14.3292683 7.77439024,10.4878049 C7.77439024,8.1097561 8.29268293,6.25 9.05487805,4.3902439 C9.08536585,4.32926829 9.08536585,4.26829268 8.99390244,4.23780488 C8.53658537,4.11585366 8.04878049,4.05487805 7.5304878,4.05487805 C3.47560976,4.05487805 0.213414634,8.07926829 0.213414634,13.0182927 C0.213414634,18.1707317 3.99390244,22.347561 8.62804878,22.347561 C12.2865854,22.347561 15.3353659,20.1829268 16.1280488,17.2865854 C16.1585366,17.2256098 16.097561,17.195122 16.0060976,17.2256098 Z" id="Shape" fill="url(#linearGradient-1)"></path>
            <path d="M8.20121951,23.597561 C8.04878049,23.597561 7.98780488,23.597561 7.95731707,23.6280488 C7.95731707,23.6585366 8.01829268,23.7195122 8.1097561,23.75 C9.66463415,24.3902439 11.3719512,24.7256098 13.1402439,24.7256098 C20.4573171,24.7256098 26.097561,18.75 26.097561,11.402439 C26.097561,5.21341463 22.0731707,0.213414634 17.1036585,0.213414634 C13.0182927,0.213414634 9.57317073,3.68902439 9.05487805,9.26829268 C9.05487805,9.3597561 9.11585366,9.3597561 9.17682927,9.32926829 C9.93902439,8.93292683 10.7926829,8.7195122 11.7073171,8.7195122 C15,8.7195122 17.6829268,11.554878 17.6829268,15.0609756 C17.6829268,19.9695122 13.75,23.597561 8.81097561,23.597561 C8.62804878,23.6280488 8.41463415,23.597561 8.20121951,23.597561 Z" id="Shape" fill="url(#linearGradient-2)"></path>
            <path d="M62.8658537,6.67682927 C64.7256098,6.67682927 66.2804878,7.86585366 66.6768293,9.42073171 L68.902439,9.42073171 L68.902439,5.33536585 C67.3780488,4.63414634 65.3658537,4.05487805 62.9878049,4.05487805 C55.7621951,4.05487805 52.2560976,7.98780488 52.2560976,13.0182927 C52.2560976,18.2621951 56.097561,22.1341463 62.4085366,22.1341463 C65.8231707,22.1341463 67.9878049,20.9146341 69.7865854,19.1768293 L68.2926829,17.5 C67.0121951,18.597561 65.4573171,19.3597561 63.4756098,19.3597561 C60.5182927,19.3597561 57.5609756,17.195122 57.5609756,12.5609756 C57.5914634,8.62804878 59.5426829,6.67682927 62.8658537,6.67682927 Z" id="Shape" fill="#D21252"></path>
            <path d="M33.2317073,9.17682927 L33.2317073,21.7682927 L38.2317073,21.7682927 L38.2317073,14.3292683 L45.2439024,14.3292683 L45.2439024,21.7682927 L50.2439024,21.7682927 L50.2439024,4.48170732 L43.9939024,4.48170732 L43.9939024,6.18902439 C44.8170732,6.82926829 45.2439024,7.65243902 45.2439024,9.17682927 L45.2439024,11.7987805 L38.2317073,11.7987805 L38.2317073,4.48170732 L31.9817073,4.48170732 L31.9817073,6.18902439 C32.804878,6.82926829 33.2317073,7.62195122 33.2317073,9.17682927 Z" id="Shape" fill="#D21252"></path>
            <path d="M84.5731707,8.75 L86.6158537,8.75 L86.6158537,4.48170732 L70.9146341,4.48170732 L70.9146341,6.18902439 C71.7378049,6.82926829 72.1646341,7.65243902 72.1646341,9.17682927 L72.1646341,21.7682927 L77.1646341,21.7682927 L77.1646341,14.2682927 L83.5365854,14.2682927 L83.5365854,11.8902439 L77.1646341,11.8902439 L77.1646341,6.8902439 L81.8597561,6.8902439 C83.1707317,6.8597561 84.2682927,7.68292683 84.5731707,8.75 Z" id="Shape" fill="#D21252"></path>
        </g>
    </g>
</svg>