<?xml version="1.0" encoding="utf-8"?>
<!-- Generator: Adobe Illustrator 21.0.0, SVG Export Plug-In . SVG Version: 6.00 Build 0)  -->
<svg version="1.1" id="Layer_1" xmlns="http://www.w3.org/2000/svg" xmlns:xlink="http://www.w3.org/1999/xlink" x="0px" y="0px"
	 viewBox="0 0 102 127.7" style="enable-background:new 0 0 102 127.7;" xml:space="preserve">
<style type="text/css">
	.st0{fill:#DADA96;}
	.st1{clip-path:url(#SVGID_2_);}
	.st2{fill:url(#SVGID_3_);}
	.st3{clip-path:url(#SVGID_5_);}
	.st4{fill:url(#SVGID_6_);}
	.st5{fill:none;stroke:#000000;stroke-width:0.58;}
</style>
<title>AEMC_full_pos 2</title>
<path class="st0" d="M102,127.7L102,127.7L102,127.7C102,127.7,102,127.7,102,127.7L102,127.7 M101.9,127.7L101.9,127.7
	 M101.9,127.7L101.9,127.7"/>
<path class="st0" d="M101.8,72l0.1-0.2L101.8,72z"/>
<g>
	<g>
		<defs>
			<path id="SVGID_1_" d="M13.4,51.7c0,16,13.6,29,30.4,29s30.4-13,30.4-29s-13.6-29-30.4-29S13.4,35.7,13.4,51.7"/>
		</defs>
		<clipPath id="SVGID_2_">
			<use xlink:href="#SVGID_1_"  style="overflow:visible;"/>
		</clipPath>
		<g class="st1">
			
				<radialGradient id="SVGID_3_" cx="-1520.7129" cy="147.6968" r="0.9903" gradientTransform="matrix(31.16 0 0 -28.28 47428.9805 4228.27)" gradientUnits="userSpaceOnUse">
				<stop  offset="0" style="stop-color:#00A8E5"/>
				<stop  offset="0.48" style="stop-color:#00A8E5"/>
				<stop  offset="0.55" style="stop-color:#28B6E9"/>
				<stop  offset="0.73" style="stop-color:#8DD8F3"/>
				<stop  offset="0.91" style="stop-color:#FFFFFF"/>
				<stop  offset="1" style="stop-color:#FFFFFF"/>
			</radialGradient>
			<rect x="10.1" y="23.7" class="st2" width="60.8" height="56.9"/>
		</g>
	</g>
</g>
<g>
	<g>
		<defs>
			<path id="SVGID_4_" d="M19.2,51.7c0,14.4,11,26.1,24.6,26.1S68.4,66,68.4,51.7s-11-26.1-24.6-26.1S19.2,37.2,19.2,51.7"/>
		</defs>
		<clipPath id="SVGID_5_">
			<use xlink:href="#SVGID_4_"  style="overflow:visible;"/>
		</clipPath>
		<g class="st3">
			
				<radialGradient id="SVGID_6_" cx="-1514.1521" cy="146.0242" r="1" gradientTransform="matrix(25.23 0 0 -25.45 38244.6602 3767.6897)" gradientUnits="userSpaceOnUse">
				<stop  offset="0" style="stop-color:#00A8E5"/>
				<stop  offset="0.48" style="stop-color:#00A8E5"/>
				<stop  offset="0.55" style="stop-color:#28B6E9"/>
				<stop  offset="0.73" style="stop-color:#8DD8F3"/>
				<stop  offset="0.91" style="stop-color:#FFFFFF"/>
				<stop  offset="1" style="stop-color:#FFFFFF"/>
			</radialGradient>
			<rect x="19.2" y="25.6" class="st4" width="49.2" height="52.1"/>
		</g>
	</g>
</g>
<path class="st5" d="M64.3,0.6c-9.5-0.8-22.8-0.4-36.3,5c-17.6,7-27.2,20.8-26.1,39C2.8,59,11.4,77.4,26.7,82.7
	C39.9,87.2,58.8,86,69.3,76c10.8-10.3,11.3-26.2,5.1-39c-5.5-11.2-16.9-24.4-30.2-25.6c-12.3-1.1-28,17.9-31.6,30.5"/>
<path class="st5" d="M48.3,121.6c-11.3-1.4-24.2-7.9-32.4-15.3C1.9,93.5-1.6,72.7,1.2,54.7C3.6,39,13.4,25.3,28.7,20.1
	c13.2-4.5,32.1-3.3,42.6,6.7c10.7,10.3,11.3,26.3,5.1,39c-5.5,11.2-17,24.4-30.2,25.6c-12.3,1.1-19.9-7.1-25.4-17.1"/>
<path d="M62.3,106.5h-2.7l-0.9-2.3h-4l-0.9,2.3h-2.6l4.3-10.2H58L62.3,106.5z M57.9,102l-1.2-3.1l-1.2,3.1H57.9z"/>
<path d="M70.9,106.5h-3.7c-0.6,0-1.1,0-1.7-0.2c-0.5-0.1-1-0.4-1.5-0.8c-1.1-1-1.7-2.5-1.6-4c-0.1-1.4,0.3-2.7,1.1-3.9
	c1-1,2.3-1.5,3.7-1.4h3.6v2.1h-3.6c-1-0.1-2,0.6-2.1,1.7c0,0.1,0,0.2,0,0.3h5.7v2.1h-5.7c-0.1,0.6,0.1,1.1,0.5,1.6
	c0.5,0.4,1,0.5,1.6,0.5h3.6L70.9,106.5L70.9,106.5z"/>
<polygon points="84.1,106.4 81.7,106.4 81.9,99.8 79.7,106.4 77.3,106.4 75,99.7 75.2,106.4 72.7,106.4 72.7,96.2 76.1,96.2 
	78.4,103.4 80.8,96.2 84.1,96.2 "/>
<path d="M94.1,106.5h-3.7c-0.6,0-1.1,0-1.7-0.2c-0.5-0.1-1.1-0.4-1.5-0.8c-1.1-1-1.7-2.5-1.6-4c-0.1-1.4,0.3-2.7,1.1-3.9
	c1-1,2.3-1.5,3.7-1.4H94v2h-3.6c-0.3,0-0.7,0-1,0.2c-0.8,0.4-1.2,1.4-1.2,3.2c-0.1,0.7,0.1,1.4,0.4,2c0.4,0.6,1.1,0.8,1.8,0.8H94
	L94.1,106.5L94.1,106.5z"/>
</svg>
