<svg id="Layer_1" data-name="Layer 1" xmlns="http://www.w3.org/2000/svg" viewBox="0 0 200 100"><title>AEMC_text_pos</title><path d="M67.21,66.37H58.69L55.85,59H43.19l-2.75,7.39H32.27L45.81,34h7.72ZM53.29,52.3,49.4,42.43,45.73,52.3Z"/><path d="M94.35,66.37H82.75a22.79,22.79,0,0,1-5.29-.5,11.6,11.6,0,0,1-4.7-2.39q-4.92-4.09-4.92-12.74,0-8.17,3.38-12.26Q74.93,34,82.93,34H94.35v6.57H83q-6.21,0-6.76,6.17H94.35v6.57H76.26q0,3.45,1.67,5t5.12,1.5h11.3Z"/><polygon points="136.17 66.37 128.68 66.37 129.15 45.15 122.21 66.37 114.53 66.37 107.38 44.84 107.88 66.37 100.23 66.37 100.23 34.02 110.71 34.02 118.22 56.77 125.65 34.02 136.17 34.02 136.17 66.37"/><path d="M167.73,66.37h-11.6a22.74,22.74,0,0,1-5.29-.5,11.6,11.6,0,0,1-4.7-2.39q-4.92-4.09-4.92-12.74,0-8.17,3.38-12.26Q148.31,34,156.31,34h11.42v6.47H156.44a8.12,8.12,0,0,0-3.23.52q-3.77,1.67-3.77,10,0,4.5,1.24,6.41,1.56,2.36,5.77,2.36h11.29Z"/></svg>