<?xml version="1.0" encoding="utf-8"?>
<!-- Generator: Adobe Illustrator 20.0.0, SVG Export Plug-In . SVG Version: 6.00 Build 0)  -->
<svg version="1.0" id="Layer_1" xmlns="http://www.w3.org/2000/svg" xmlns:xlink="http://www.w3.org/1999/xlink" x="0px" y="0px"
	 viewBox="0 0 73 73" style="enable-background:new 0 0 73 73;" xml:space="preserve">
<style type="text/css">
	.st0{fill:#FFFFFF;}
</style>
<polygon class="st0" points="-59.7,35.5 -59.7,45.5 -59.7,55.5 -49.7,45.5 "/>
<g>
	<path class="st0" d="M30.2,24.2c-0.6-0.4-1.4,0.1-1.4,0.8v11.5V48c0,0.7,0.8,1.2,1.4,0.8l18.7-11.5c0.6-0.4,0.6-1.2,0-1.6
		L30.2,24.2z"/>
</g>
<polygon class="st0" points="-79.2,35.5 -79.2,45.5 -79.2,55.5 -89.2,45.5 "/>
<g>
	<path class="st0" d="M36.5,73C16.4,73,0,56.6,0,36.5S16.4,0,36.5,0S73,16.4,73,36.5S56.6,73,36.5,73z M36.5,4C18.6,4,4,18.6,4,36.5
		S18.6,69,36.5,69S69,54.4,69,36.5S54.4,4,36.5,4z"/>
</g>
</svg>
