<?xml version="1.0" encoding="UTF-8"?>
<svg width="594px" height="155px" viewBox="0 0 594 155" version="1.1" xmlns="http://www.w3.org/2000/svg" xmlns:xlink="http://www.w3.org/1999/xlink">
    <!-- Generator: Sketch 43.1 (39012) - http://www.bohemiancoding.com/sketch -->
    <title>QANTAS_SOA_Masterbrand_Horizontal_RGB_REV_190816</title>
    <desc>Created with Sketch.</desc>
    <defs></defs>
    <g id="Symbols" stroke="none" stroke-width="1" fill="none" fill-rule="evenodd">
        <g id="LOGO/QANTAS_SOA_Masterbrand_Horizontal_RGB_REV_190816">
            <g id="QANTAS_SOA_Masterbrand_Horizontal_RGB_REV_190816">
                <g id="Group">
                    <g id="Qantas_Tail" fill-rule="nonzero">
                        <path d="M45.1,117.5 L165.1,117.5 L68.9,20.9 C56.1,8.1 38.7,0.5 20.6,0.5 L0.5,0.5 L2,4.4 L8.7,21.9 L45.1,117.5 Z" id="Shape" fill="#F60000"></path>
                        <path d="M8.7,21.9 C21.8,44.3 56.3,46.7 60.1,81.6 C60.3,83 61.4,84.2 62.8,84.4 C82.7,87.5 102,95.7 118.8,109.2 L118.8,109.2 C118.9,109.3 119,109.3 119.2,109.3 C119.3,109.3 119.5,109.2 119.6,109.1 C119.8,108.9 119.8,108.5 119.6,108.3 C108,96.1 93.7,86.3 77.8,79.9 L72.9,77.9 C70.4,76.9 68.7,74.4 68.7,71.6 C69,61.2 93.6,63.3 96.1,58.3 L96.5,57.4 C91.4,53.1 85.4,49.8 78.8,48 C78.7,48.3 78.6,49.5 79.9,51.7 C81.4,54.1 78.3,57.9 73.8,53.8 L73.4,53.5 C40.2,22.9 15.2,38.7 2,4.4 L8.7,21.9 Z" id="Shape" fill="#FFFFFF"></path>
                    </g>
                    <g id="Roo" transform="translate(2.000000, 4.000000)"></g>
                    <g id="Qantas__x2F__SOA_Type" transform="translate(138.000000, 40.000000)" fill-rule="nonzero" fill="#FFFFFF">
                        <g id="Group">
                            <path d="M39.3,56 C15.6,56 0.5,43.7 0.5,28.2 C0.5,12.5 16.4,0.4 40,0.4 C63.5,0.4 79.5,12.5 79.5,27.6 C79.5,34.3 76.5,39.9 70.8,44.5 L84.8,44.5 L81.5,50.2 C79.4,53.8 76.8,56 71.2,56 L39.3,56 Z M39.9,43.4 C52.8,43.4 63.8,37 63.8,28.2 C63.8,19.4 52.9,13 39.9,13 C27,13 16,19.4 16,28.2 C16,37 27,43.4 39.9,43.4 Z" id="Shape"></path>
                            <path d="M142.9,46.6 L105.6,46.6 L100.3,56 L84.8,56 L110.7,11.2 C112.7,7.7 115.7,4.9 121.5,4.9 L127.3,4.9 C133.2,4.9 136.1,7.6 138.1,11.2 L164,56 L148.2,56 L142.9,46.6 Z M111.9,35.4 L136.6,35.4 L125.1,15 C124.8,14.5 124.6,14.4 124.2,14.4 C123.8,14.4 123.6,14.5 123.3,15 L111.9,35.4 Z" id="Shape"></path>
                            <path d="M237.8,4.9 L237.8,56 L224,56 L183.4,22.1 L183.4,56 L169.6,56 L169.6,4.9 L178.3,4.9 C182.7,4.9 185,6.1 187.5,8.2 L224.1,38.7 L224.1,4.9 L237.8,4.9 L237.8,4.9 Z" id="Shape"></path>
                            <polygon id="Shape" points="287 16.4 287 56 273.2 56 273.2 16.4 244.8 16.4 244.8 4.9 315.3 4.9 315.3 16.4"></polygon>
                            <path d="M361.4,46.6 L324,46.6 L318.7,56 L303.2,56 L329.1,11.2 C331.1,7.7 334.1,4.9 339.9,4.9 L345.7,4.9 C351.6,4.9 354.5,7.6 356.5,11.2 L382.4,56 L366.6,56 L361.4,46.6 Z M330.4,35.4 L355.1,35.4 L343.6,15 C343.3,14.5 343.1,14.4 342.7,14.4 C342.3,14.4 342.1,14.5 341.8,15 L330.4,35.4 Z" id="Shape"></path>
                            <path d="M387.3,52.3 L386,51.9 L389.5,40.8 C399.5,44 410.1,45.3 419.7,45.3 C435.4,45.3 439.3,43.5 439.3,41.5 C439.3,40.7 438.8,40.1 437.5,39.7 C435.9,39.2 431.6,38.3 418.7,36.2 C404.5,33.9 398,32.7 393.3,30.5 C388.6,28.3 385.7,24.8 385.7,19.7 C385.7,15.8 387.6,12.7 390.7,10.2 C396.2,6 405.5,4.3 415.6,4.3 C428.7,4.3 439.7,5.4 451.9,8.4 L453,8.7 L450.1,19.5 C436.5,16.6 428.9,15.8 418.5,15.6 C411.2,15.5 406.2,16.1 403.5,16.9 C402,17.4 401.4,18.1 401.4,18.9 C401.4,19.7 401.9,20.3 403.4,20.8 C405,21.3 407.7,22 421.7,24.2 C436.8,26.7 441.8,27.7 446,29.3 C451.7,31.5 455.1,35.5 455.1,40.5 C455.1,46.8 450.2,51.5 441.7,54.1 C436.5,55.7 429.4,56.6 421.5,56.6 C409,56.7 395.8,55.1 387.3,52.3 Z" id="Shape"></path>
                        </g>
                        <g id="Group" transform="translate(163.000000, 76.000000)">
                            <path d="M16,9.7 L16,9 C16,6.1 13.9,3.9 10.3,3.9 C6.7,3.9 4.7,5.7 4.7,8.2 C4.7,10.2 6.1,11.7 8,12.4 L12.8,14.3 C16.1,15.6 19.8,17.4 19.8,22.3 C19.8,27.4 15.9,30.7 10.3,30.7 C4.7,30.7 0.8,27.6 0.8,22.6 L0.8,21.9 L4.1,21.9 L4.1,22.8 C4.1,25.7 6.4,27.9 10.3,27.9 C14.2,27.9 16.5,25.7 16.5,22.8 C16.5,19.7 14.2,18.5 11.5,17.4 L7.4,15.7 C4.1,14.4 1.4,12.3 1.4,8.5 C1.4,4.2 4.9,1.1 10.3,1.1 C15.7,1.1 19.3,4.2 19.3,9.2 L19.3,9.7 L16,9.7 L16,9.7 Z" id="Shape"></path>
                            <path d="M27.6,11.3 C28.9,9.5 30.9,8.4 33.5,8.4 C38.2,8.4 41,11.5 41,16.3 L41,22.7 C41,27.5 38.2,30.6 33.5,30.6 C31.1,30.6 29.2,29.7 27.9,28 L27.9,38.3 L24.7,38.3 L24.7,8.7 L27.2,8.7 L27.6,11.3 Z M27.8,16.6 L27.8,22.6 C27.8,25.6 29.7,27.9 32.9,27.9 C36,27.9 37.7,25.8 37.7,22.9 L37.7,16.2 C37.7,13.4 36.1,11.2 32.9,11.2 C29.7,11.3 27.8,13.6 27.8,16.6 Z" id="Shape"></path>
                            <path d="M47.6,0.7 C48.8,0.7 49.7,1.6 49.7,2.8 C49.7,3.9 48.8,4.9 47.6,4.9 C46.4,4.9 45.5,4 45.5,2.8 C45.4,1.6 46.4,0.7 47.6,0.7 Z M49.1,8.8 L49.1,30.2 L45.9,30.2 L45.9,8.8 L49.1,8.8 Z" id="Shape"></path>
                            <path d="M54.7,30.3 L54.7,8.9 L57.2,8.9 L57.7,11.6 C58.9,9.7 60.9,8.4 63.5,8.4 C63.9,8.4 64.2,8.4 64.6,8.5 L64.6,11.6 C64.2,11.6 63.8,11.5 63.3,11.5 C60.2,11.5 58,13.6 58,16.8 L58,30.3 L54.7,30.3 Z" id="Shape"></path>
                            <path d="M70.1,0.7 C71.3,0.7 72.2,1.6 72.2,2.8 C72.2,3.9 71.3,4.9 70.1,4.9 C68.9,4.9 68,4 68,2.8 C68,1.6 68.9,0.7 70.1,0.7 Z M71.7,8.8 L71.7,30.2 L68.5,30.2 L68.5,8.8 L71.7,8.8 Z" id="Shape"></path>
                            <polygon id="Shape" points="75.7 9 79.9 9 79.9 3.2 83.2 3.2 83.2 9 87.4 9 87.4 11.7 83.2 11.7 83.2 30.3 79.9 30.3 79.9 11.7 75.7 11.7"></polygon>
                            <path d="M115.5,22.4 C115.5,27.5 112.1,30.7 107.2,30.7 C102.3,30.7 99,27.5 99,22.4 L99,16.7 C99,11.6 102.3,8.4 107.2,8.4 C112.1,8.4 115.5,11.6 115.5,16.7 L115.5,22.4 Z M102.2,22.7 C102.2,25.7 104,28 107.2,28 C110.4,28 112.2,25.7 112.2,22.7 L112.2,16.6 C112.2,13.6 110.4,11.3 107.2,11.3 C104,11.3 102.2,13.6 102.2,16.6 L102.2,22.7 Z" id="Shape"></path>
                            <path d="M118.7,9 L122.2,9 L122.2,7.9 C122.2,3.2 124.7,0.6 129.5,0.6 L131.4,0.6 L131.4,3.4 L129.7,3.4 C126.6,3.4 125.5,5.2 125.5,7.7 L125.5,9 L131.1,9 L131.1,11.7 L125.5,11.7 L125.5,30.3 L122.2,30.3 L122.2,11.7 L118.7,11.7 L118.7,9 Z" id="Shape"></path>
                            <path d="M141.2,30.3 L150.5,1.5 L153.9,1.5 L163.3,30.3 L159.8,30.3 L157.7,23.7 L146.6,23.7 L144.5,30.3 L141.2,30.3 Z M147.5,20.8 L156.8,20.8 L152.1,6 L147.5,20.8 Z" id="Shape"></path>
                            <path d="M166.6,8.8 L169.8,8.8 L169.8,23 C169.8,25.7 171.3,27.8 174.4,27.8 C177.5,27.8 179.4,25.5 179.4,22.5 L179.4,8.7 L182.6,8.7 L182.6,30.1 L180.1,30.1 L179.6,27.6 C178.3,29.4 176.2,30.5 173.7,30.5 C169.1,30.5 166.5,27.5 166.5,22.8 L166.5,8.8 L166.6,8.8 Z" id="Shape"></path>
                            <path d="M190.1,23.7 L190.1,24.4 C190.1,26.5 192,28.1 195.1,28.1 C198.1,28.1 199.7,26.6 199.7,24.5 C199.7,22.7 198.9,21.9 196.8,21.3 L192.6,20 C190.1,19.3 187.6,17.7 187.6,14.4 C187.6,11.2 190.6,8.4 194.9,8.4 C199.5,8.4 202.6,10.7 202.6,14.7 L202.6,15 L199.5,15 L199.5,14.5 C199.5,12.5 197.8,10.9 194.9,10.9 C192.9,10.9 190.7,11.9 190.7,14.1 C190.7,15.5 191.5,16.4 193.3,16.9 L197,18 C200.2,19 202.8,20.3 202.8,24 C202.8,27.9 199.8,30.5 195.1,30.5 C190.4,30.5 187,28 187,24 L187,23.4 L190.1,23.4 L190.1,23.7 Z" id="Shape"></path>
                            <polygon id="Shape" points="206.2 9 210.4 9 210.4 3.2 213.7 3.2 213.7 9 217.9 9 217.9 11.7 213.7 11.7 213.7 30.3 210.4 30.3 210.4 11.7 206.2 11.7"></polygon>
                            <path d="M221.8,30.3 L221.8,8.9 L224.3,8.9 L224.8,11.6 C226,9.7 228,8.4 230.6,8.4 C231,8.4 231.3,8.4 231.7,8.5 L231.7,11.6 C231.3,11.6 230.9,11.5 230.4,11.5 C227.3,11.5 225.1,13.6 225.1,16.8 L225.1,30.3 L221.8,30.3 Z" id="Shape"></path>
                            <path d="M234.7,16.3 C234.7,11.5 237.5,8.4 242.2,8.4 C244.8,8.4 246.8,9.5 248.1,11.3 L248.6,8.8 L251.1,8.8 L251.1,30.2 L248.6,30.2 L248.1,27.7 C246.8,29.5 244.7,30.6 242.2,30.6 C237.5,30.6 234.7,27.5 234.7,22.7 L234.7,16.3 Z M247.8,22.6 L247.8,16.6 C247.8,13.6 245.9,11.3 242.7,11.3 C239.6,11.3 237.9,13.5 237.9,16.3 L237.9,23 C237.9,25.8 239.5,28 242.7,28 C245.9,27.9 247.8,25.6 247.8,22.6 Z" id="Shape"></path>
                            <polygon id="Shape" points="259.9 0.6 259.9 30.3 256.7 30.3 256.7 0.6"></polygon>
                            <path d="M267.2,0.7 C268.4,0.7 269.3,1.6 269.3,2.8 C269.3,3.9 268.4,4.9 267.2,4.9 C266,4.9 265.1,4 265.1,2.8 C265.1,1.6 266,0.7 267.2,0.7 Z M268.8,8.8 L268.8,30.2 L265.6,30.2 L265.6,8.8 L268.8,8.8 Z" id="Shape"></path>
                            <path d="M273.7,16.3 C273.7,11.5 276.5,8.4 281.2,8.4 C283.8,8.4 285.8,9.5 287.1,11.3 L287.6,8.8 L290.1,8.8 L290.1,30.2 L287.6,30.2 L287.1,27.7 C285.8,29.5 283.7,30.6 281.2,30.6 C276.5,30.6 273.7,27.5 273.7,22.7 L273.7,16.3 Z M286.8,22.6 L286.8,16.6 C286.8,13.6 284.9,11.3 281.7,11.3 C278.6,11.3 276.9,13.5 276.9,16.3 L276.9,23 C276.9,25.8 278.5,28 281.7,28 C284.9,27.9 286.8,25.6 286.8,22.6 Z" id="Shape"></path>
                        </g>
                    </g>
                </g>
            </g>
        </g>
    </g>
</svg>