<?xml version="1.0" encoding="UTF-8"?>
<svg width="250px" height="72px" viewBox="0 0 250 72" version="1.1" xmlns="http://www.w3.org/2000/svg" xmlns:xlink="http://www.w3.org/1999/xlink">
    <!-- Generator: Sketch 43.1 (39012) - http://www.bohemiancoding.com/sketch -->
    <title>QANTAS_Assure_HealthInsurance_RGB_190816</title>
    <desc>Created with Sketch.</desc>
    <defs></defs>
    <g id="Symbols" stroke="none" stroke-width="1" fill="none" fill-rule="evenodd">
        <g id="LOGO/QANTAS_Assure_HealthInsurance_RGB_190816">
            <g id="QANTAS_Assure_HealthInsurance_RGB_190816">
                <path d="M21.714,71.166 L16.255,62.933 L16.255,56.548 C20.605,55.994 23.103,52.386 23.103,47.667 L23.103,15.565 C23.103,10.846 20.605,7.239 16.255,6.684 L16.255,0.3 C24.674,0.855 30.133,6.684 30.133,15.75 L30.133,47.482 C30.133,53.865 27.45,58.677 22.918,61.082 L29.671,71.166 L21.714,71.166 Z M0.066,15.75 C0.066,6.591 5.525,0.855 13.942,0.3 L13.942,6.684 C9.595,7.146 7.097,10.846 7.097,15.565 L7.097,47.667 C7.097,52.386 9.595,56.086 13.942,56.548 L13.942,62.933 C5.525,62.377 0.066,56.641 0.066,47.482 L0.066,15.75 L0.066,15.75 Z" id="Fill-1" fill="#D8272A"></path>
                <path d="M241.732,32.376 L241.732,39.068 L249.567,39.068 L249.567,41.012 L239.56,41.012 L239.56,22.224 L249.339,22.224 L249.339,24.169 L241.732,24.169 L241.732,30.46 L248.71,30.46 L248.71,32.376 L241.732,32.376 Z M224.402,24.141 L224.402,31.72 L227.005,31.72 C229.522,31.72 231.094,30.174 231.094,27.829 C231.094,25.598 229.522,24.141 227.005,24.141 L224.402,24.141 Z M222.23,41.012 L222.23,22.224 L227.119,22.224 C230.721,22.224 233.324,24.427 233.324,27.829 C233.324,30.346 232.095,32.234 230.207,33.063 L233.297,41.012 L230.922,41.012 L228.062,33.55 C227.92,33.578 227.406,33.606 227.061,33.606 L224.402,33.606 L224.402,41.012 L222.23,41.012 Z M215.28,22.224 L215.28,35.436 C215.28,39.04 213.02,41.299 209.761,41.299 C206.472,41.299 204.213,39.04 204.213,35.436 L204.213,22.224 L206.387,22.224 L206.387,35.494 C206.387,37.694 207.616,39.354 209.761,39.354 C211.877,39.354 213.106,37.694 213.106,35.494 L213.106,22.224 L215.28,22.224 Z M195.747,27.573 L195.747,26.83 C195.747,25.056 194.575,23.768 192.517,23.768 C190.514,23.768 189.371,25.056 189.371,26.544 C189.371,28.343 190.4,28.974 191.716,29.603 L193.832,30.604 C195.948,31.603 198.15,32.691 198.15,35.95 C198.15,39.068 196.034,41.299 192.574,41.299 C189.314,41.299 186.94,39.296 186.94,36.295 L186.94,35.55 L189.057,35.55 L189.057,36.409 C189.057,38.125 190.314,39.468 192.545,39.468 C194.832,39.468 196.063,37.925 196.063,36.178 C196.063,34.006 194.747,33.377 193.174,32.635 L191.058,31.633 C188.941,30.632 187.312,29.317 187.312,26.686 C187.312,24.054 189.371,21.938 192.574,21.938 C195.662,21.938 197.807,23.94 197.807,26.944 L197.807,27.573 L195.747,27.573 Z M179.275,27.573 L179.275,26.83 C179.275,25.056 178.103,23.768 176.044,23.768 C174.042,23.768 172.899,25.056 172.899,26.544 C172.899,28.343 173.928,28.974 175.243,29.603 L177.36,30.604 C179.475,31.603 181.678,32.691 181.678,35.95 C181.678,39.068 179.561,41.299 176.101,41.299 C172.842,41.299 170.468,39.296 170.468,36.295 L170.468,35.55 L172.584,35.55 L172.584,36.409 C172.584,38.125 173.842,39.468 176.072,39.468 C178.36,39.468 179.589,37.925 179.589,36.178 C179.589,34.006 178.275,33.377 176.702,32.635 L174.586,31.633 C172.469,30.632 170.839,29.317 170.839,26.686 C170.839,24.054 172.899,21.938 176.101,21.938 C179.19,21.938 181.335,23.94 181.335,26.944 L181.335,27.573 L179.275,27.573 Z M159.773,25.142 L157.171,34.807 L162.404,34.807 L159.773,25.142 Z M162.947,36.695 L156.628,36.695 L155.484,41.012 L153.339,41.012 L158.715,22.224 L160.945,22.224 L166.378,41.012 L164.12,41.012 L162.947,36.695 Z M58.388,44.531 L55.929,40.613 C57.616,39.698 58.645,37.867 58.645,35.437 L58.645,27.801 C58.645,24.198 56.329,21.938 52.983,21.938 C49.494,21.938 47.321,24.198 47.321,27.801 L47.321,35.437 C47.321,39.04 49.608,41.299 52.983,41.299 C53.269,41.299 53.526,41.27 53.784,41.213 L55.757,44.531 L58.388,44.531 Z M49.494,27.744 C49.494,25.542 50.781,23.883 52.983,23.883 C55.214,23.883 56.472,25.542 56.472,27.744 L56.472,35.494 C56.472,37.696 55.214,39.354 52.983,39.354 C50.781,39.354 49.494,37.696 49.494,35.494 L49.494,27.744 Z M72.66,34.808 L67.426,34.808 L70.029,25.141 L72.66,34.808 Z M74.376,41.014 L76.636,41.014 L71.202,22.224 L68.971,22.224 L63.594,41.014 L65.739,41.014 L66.883,36.695 L73.204,36.695 L74.376,41.014 Z M93.138,22.224 L91.136,22.224 L91.136,36.266 L84.1,22.224 L82.184,22.224 L82.184,41.014 L84.186,41.014 L84.186,26.742 L91.336,41.014 L93.138,41.014 L93.138,22.224 Z M98.6,24.168 L103.004,24.168 L103.004,41.014 L105.178,41.014 L105.178,24.168 L109.611,24.168 L109.611,22.224 L98.6,22.224 L98.6,24.168 Z M121.222,34.808 L115.988,34.808 L118.591,25.141 L121.222,34.808 Z M122.938,41.014 L125.198,41.014 L119.764,22.224 L117.533,22.224 L112.156,41.014 L114.301,41.014 L115.445,36.695 L121.766,36.695 L122.938,41.014 Z M140.155,27.572 L140.155,26.943 C140.155,23.94 138.01,21.938 134.921,21.938 C131.718,21.938 129.659,24.055 129.659,26.686 C129.659,29.317 131.289,30.632 133.406,31.633 L135.522,32.634 C137.095,33.377 138.41,34.007 138.41,36.18 C138.41,37.924 137.18,39.469 134.893,39.469 C132.662,39.469 131.404,38.125 131.404,36.409 L131.404,35.551 L129.287,35.551 L129.287,36.294 C129.287,39.297 131.661,41.299 134.921,41.299 C138.382,41.299 140.498,39.068 140.498,35.951 C140.498,32.691 138.296,31.604 136.18,30.603 L134.063,29.602 C132.748,28.973 131.718,28.344 131.718,26.543 C131.718,25.055 132.862,23.769 134.864,23.769 C136.923,23.769 138.096,25.055 138.096,26.829 L138.096,27.572 L140.155,27.572 L140.155,27.572 Z" id="Fill-2" fill="#FFFFFF"></path>
            </g>
        </g>
    </g>
</svg>