<?xml version="1.0" encoding="UTF-8"?>
<svg width="593px" height="44px" viewBox="0 0 593 44" version="1.1" xmlns="http://www.w3.org/2000/svg" xmlns:xlink="http://www.w3.org/1999/xlink">
    <!-- Generator: Sketch 43.1 (39012) - http://www.bohemiancoding.com/sketch -->
    <title>QANTAS_LOYALTY_REV</title>
    <desc>Created with Sketch.</desc>
    <defs></defs>
    <g id="Symbols" stroke="none" stroke-width="1" fill="none" fill-rule="evenodd">
        <g id="QANTAS_LOYALTY_REV" transform="translate(-104.000000, -30.000000)" fill-rule="nonzero" fill="#FFFFFF">
            <g transform="translate(103.000000, 30.000000)" id="Layer_1">
                <g>
                    <g id="Group">
                        <g id="Qantas__x2F__SOA_Type_1_">
                            <g transform="translate(0.685950, 0.093525)">
                                <g id="Group">
                                    <path d="M29.761708,42.4510791 C11.9046832,42.4510791 0.512029385,33.1669065 0.512029385,21.5136691 C0.512029385,9.66834532 12.4807163,0.576258993 30.2737374,0.576258993 C48.0027548,0.576258993 60.0354454,9.66834532 60.0354454,21.0654676 C60.0354454,26.123741 57.7953168,30.3496403 53.5070707,33.8071942 L64.0676768,33.8071942 L61.5715335,38.0971223 C59.9714417,40.7863309 58.0513315,42.4510791 53.8270891,42.4510791 L29.761708,42.4510791 L29.761708,42.4510791 Z M30.2097337,32.9748201 C39.938292,32.9748201 48.1947658,28.1726619 48.1947658,21.5136691 C48.1947658,14.8546763 40.0022957,10.052518 30.2097337,10.052518 C20.4811754,10.052518 12.2247016,14.8546763 12.2247016,21.5136691 C12.2247016,28.1726619 20.5451791,32.9748201 30.2097337,32.9748201 Z" id="Shape"></path>
                                    <path d="M107.846189,35.4079137 L79.7485767,35.4079137 L75.7803489,42.5151079 L64.1316804,42.5151079 L83.6528007,8.77194245 C85.1888889,6.14676259 87.4290174,4.03381295 91.7812672,4.03381295 L96.133517,4.03381295 C100.54977,4.03381295 102.789899,6.08273381 104.261983,8.77194245 L123.783104,42.5151079 L111.878421,42.5151079 L107.846189,35.4079137 Z M84.4848485,26.9561151 L103.109917,26.9561151 L94.4694215,11.5892086 C94.2134068,11.205036 94.0853994,11.1410072 93.7653811,11.1410072 C93.4453627,11.1410072 93.3173554,11.205036 93.0613407,11.5892086 L84.4848485,26.9561151 Z" id="Shape"></path>
                                    <path d="M179.338292,3.96978417 L179.338292,42.4510791 L168.969697,42.4510791 L138.375941,16.9035971 L138.375941,42.4510791 L128.007346,42.4510791 L128.007346,3.96978417 L134.535721,3.96978417 C137.863912,3.96978417 139.592011,4.86618705 141.448118,6.46690647 L168.969697,29.4532374 L168.969697,3.96978417 L179.338292,3.96978417 Z" id="Shape"></path>
                                    <polygon id="Shape" points="216.396419 12.6136691 216.396419 42.4510791 206.027824 42.4510791 206.027824 12.6136691 184.650597 12.6136691 184.650597 3.96978417 237.773646 3.96978417 237.773646 12.6136691"></polygon>
                                    <path d="M272.463636,35.4079137 L244.30202,35.4079137 L240.333792,42.5151079 L228.685124,42.5151079 L248.206244,8.77194245 C249.742332,6.14676259 251.982461,4.03381295 256.334711,4.03381295 L260.686961,4.03381295 C265.103214,4.03381295 267.343343,6.08273381 268.815427,8.77194245 L288.336547,42.5151079 L276.431864,42.5151079 L272.463636,35.4079137 Z M249.102296,26.9561151 L267.727365,26.9561151 L259.086869,11.5892086 C258.830854,11.205036 258.702847,11.1410072 258.382828,11.1410072 C258.06281,11.1410072 257.934803,11.205036 257.678788,11.5892086 L249.102296,26.9561151 Z" id="Shape"></path>
                                    <path d="M291.920753,39.6978417 L290.960698,39.3776978 L293.584848,30.9899281 C301.137282,33.4230216 309.073737,34.3834532 316.306152,34.3834532 C328.146832,34.3834532 331.091001,33.0388489 331.091001,31.5021583 C331.091001,30.9258993 330.706979,30.4776978 329.746924,30.157554 C328.530854,29.7733813 325.33067,29.1330935 315.602112,27.5323741 C304.913499,25.8035971 299.985216,24.9071942 296.465014,23.242446 C292.944812,21.5776978 290.768687,18.952518 290.768687,15.1107914 C290.768687,12.1654676 292.176768,9.86043165 294.544904,7.93956835 C298.705142,4.80215827 305.681543,3.52158273 313.29798,3.52158273 C323.154545,3.52158273 331.475023,4.35395683 340.627548,6.59496403 L341.459596,6.85107914 L339.283471,14.9827338 C329.042883,12.8057554 323.282553,12.1654676 315.474105,12.0374101 C309.969789,11.9733813 306.193572,12.4215827 304.145455,12.9978417 C302.993388,13.3820144 302.545363,13.8942446 302.545363,14.5345324 C302.545363,15.1107914 302.929385,15.5589928 304.081451,15.9431655 C305.297521,16.3273381 307.345638,16.8395683 317.842241,18.5043165 C329.234894,20.3611511 333.011111,21.1294964 336.147291,22.3460432 C340.435537,24.0107914 342.995684,27.0201439 342.995684,30.7978417 C342.995684,35.5359712 339.283471,39.057554 332.883104,41.042446 C328.97888,42.2589928 323.602571,42.8992806 317.65023,42.8992806 C308.305693,43.0273381 298.32112,41.8107914 291.920753,39.6978417 Z" id="Shape"></path>
                                </g>
                            </g>
                        </g>
                        <g transform="translate(369.347107, 5.215827)" id="Shape">
                            <polygon points="4.41625344 33.9352518 20.5451791 33.9352518 20.5451791 37.8410072 0.128007346 37.8410072 0.128007346 0.832374101 4.41625344 0.832374101 4.41625344 33.9352518"></polygon>
                            <path d="M55.6831956,26.5719424 C55.6831956,33.8071942 50.7549128,38.4172662 43.5224977,38.4172662 C36.2900826,38.4172662 31.3617998,33.871223 31.3617998,26.5719424 L31.3617998,12.1014388 C31.3617998,4.86618705 36.0980716,0.256115108 43.5224977,0.256115108 C50.7549128,0.256115108 55.6831956,4.80215827 55.6831956,12.1014388 L55.6831956,26.5719424 Z M35.6500459,26.6359712 C35.6500459,31.1179856 38.5302112,34.447482 43.5224977,34.447482 C48.5147842,34.447482 51.3309458,31.1179856 51.3309458,26.6359712 L51.3309458,11.9093525 C51.3309458,7.42733813 48.5147842,4.09784173 43.5224977,4.09784173 C38.5302112,4.09784173 35.6500459,7.42733813 35.6500459,11.9093525 L35.6500459,26.6359712 Z"></path>
                            <polygon points="70.7240588 0.832374101 79.0445363 18.8244604 87.4290174 0.832374101 91.7812672 0.832374101 81.0926538 23.0503597 81.0926538 37.7769784 76.8044077 37.7769784 76.8044077 23.0503597 66.1157943 0.832374101"></polygon>
                            <path d="M98.0536272,37.7769784 L109.894307,0.768345324 L114.246556,0.768345324 L126.15124,37.7769784 L121.734986,37.7769784 L119.046832,29.2611511 L104.966024,29.2611511 L102.341873,37.7769784 L98.0536272,37.7769784 Z M106.054086,25.6115108 L117.95877,25.6115108 L111.942424,6.65899281 L106.054086,25.6115108 Z"></path>
                            <polygon points="144.328283 33.9352518 160.457208 33.9352518 160.457208 37.8410072 140.040037 37.8410072 140.040037 0.832374101 144.328283 0.832374101 144.328283 33.9352518"></polygon>
                            <polygon points="165.19348 0.832374101 188.938843 0.832374101 188.938843 4.7381295 179.210285 4.7381295 179.210285 37.7769784 174.922039 37.7769784 174.922039 4.67410072 165.19348 4.67410072 165.19348 0.832374101"></polygon>
                            <polygon points="203.467677 0.832374101 211.788154 18.8244604 220.172635 0.832374101 224.524885 0.832374101 213.836272 23.0503597 213.836272 37.7769784 209.548026 37.7769784 209.548026 23.0503597 198.859412 0.832374101"></polygon>
                        </g>
                    </g>
                </g>
            </g>
        </g>
    </g>
</svg>