<?xml version="1.0" encoding="utf-8"?>
<!-- Generator: Adobe Illustrator 21.0.2, SVG Export Plug-In . SVG Version: 6.00 Build 0)  -->
<svg version="1.1" id="Layer_1" xmlns="http://www.w3.org/2000/svg" xmlns:xlink="http://www.w3.org/1999/xlink" x="0px" y="0px"
	 viewBox="0 0 323 40" style="enable-background:new 0 0 323 40;" xml:space="preserve">
<style type="text/css">
	.st0{filter:url(#Adobe_OpacityMaskFilter);}
	.st1{fill:#FFFFFF;}
	.st2{mask:url(#mask-2);fill:#F3B22D;}
	.st3{fill:#F3B22D;}
</style>
<g id="Symbols">
	<g id="LOGO_x2F_R_x26_H_x5F_POS_x5F_Gold_x5F_RGB">
		<g id="R_x26_H_x5F_POS_x5F_Gold_x5F_RGB">
			<g id="Group-3" transform="translate(0.000000, 0.965527)">
				<g id="Clip-2">
				</g>
				<defs>
					<filter id="Adobe_OpacityMaskFilter" filterUnits="userSpaceOnUse" x="0" y="0.1" width="31" height="38.2">
						<feColorMatrix  type="matrix" values="1 0 0 0 0  0 1 0 0 0  0 0 1 0 0  0 0 0 1 0"/>
					</filter>
				</defs>
				<mask maskUnits="userSpaceOnUse" x="0" y="0.1" width="31" height="38.2" id="mask-2">
					<g class="st0">
						<polygon id="path-1" class="st1" points="0,0.1 0,38.3 31,38.3 31,0.1 						"/>
					</g>
				</mask>
				<path id="Fill-1" class="st2" d="M7.5,6.2h3.7c5.5,0,8,0.7,8,5.1c0,4-2.2,6.2-6.3,6.2H7.5V6.2z M27.9,34.3
					c-1-1.9-4.5-10.2-4.5-10.2c-0.7-1.6-1.6-2.7-2.9-3.3c2.2-1.1,6.5-3.8,6.5-10c0-7.2-4.7-10.7-14-10.7H0v38.2h7.5V23.5h5.3
					c1.8,0,2.7,1.1,3.5,2.8l4.4,9.5c0,0,1,2.5,4.1,2.5H31C31,38.3,29.3,37.1,27.9,34.3L27.9,34.3z"/>
			</g>
			<path id="Fill-4" class="st3" d="M64.5,0.1c-2.4,0-4.3,1.8-4.3,4.3c0,2.5,1.9,4.3,4.3,4.3c2.4,0,4.3-1.8,4.3-4.3
				C68.8,1.9,67,0.1,64.5,0.1"/>
			<path id="Fill-5" class="st3" d="M48,25.7c0,5-2.5,7.7-5.5,7.7c-3,0-4.8-2.3-4.8-6.8c0-4.8,2.5-9,7.9-9c0.8,0,1.5,0.1,2.3,0.2
				V25.7z M55.6,12.3c-3.5-0.6-6.3-1-9.4-1c-10.7,0-16.4,6.5-16.4,15.8c0,7.4,3.9,12.8,10.5,12.8c4.3,0,6.8-2,8.2-4.1v3.5h7.1V27.9
				V12.3L55.6,12.3z"/>
			<polygon id="Fill-6" class="st3" points="60.8,39.3 68.3,39.3 68.3,11.8 60.8,11.8 			"/>
			<path id="Fill-7" class="st3" d="M89.4,11.2c-4.3,0-7.2,1.6-8.9,4.2v-3.5h-7.2v11.5v16h7.7V24.2c0-4,2.2-6.3,5.9-6.3
				c3.3,0,4.8,1.6,4.8,5.5v15.8h7.7V21.1C99.4,15.3,95.7,11.2,89.4,11.2"/>
			<path id="Fill-8" class="st3" d="M243.2,16.6v-4.7H236c0,0,0,7.6,0,11.5v16h7.7V25.1c0-3.8,5.4-6.7,10.6-6l0-7.3
				C250,11.1,245.5,13.4,243.2,16.6"/>
			<path id="Fill-9" class="st3" d="M273,11.2c-4.3,0-7.2,1.6-8.9,4.2v-3.5h-7.2v11.5v16h7.7V24.2c0-4,2.2-6.3,5.9-6.3
				c3.3,0,4.8,1.6,4.8,5.5v15.8h7.7V21.1C283,15.3,279.2,11.2,273,11.2"/>
			<path id="Fill-10" class="st3" d="M219.5,33.3c-3.3,0-5.7-2.4-5.8-7.4c-0.1-5.5,1.9-8.3,5.8-8.3c3.3,0,5.5,2.5,5.6,7.4
				C225.3,30.6,223.4,33.3,219.5,33.3z M219.4,11.2c-8.7,0-13.8,6.7-13.6,15c0.2,8.4,5.7,13.7,13.6,13.7c8.7,0,13.8-6.7,13.6-15
				C232.8,16.5,227.4,11.2,219.4,11.2L219.4,11.2z"/>
			<polyline id="Fill-11" class="st3" points="194.9,16.6 180.4,16.6 180.4,1.3 172.5,1.3 172.5,39.2 180.4,39.2 180.4,23.4 
				194.9,23.4 194.9,39.2 202.7,39.2 202.7,1.3 194.9,1.3 194.9,16.6 			"/>
			<path id="Fill-12" class="st3" d="M146.2,33.2c-4.6,0-8.1-2.3-8.1-5.4c0-3.6,3.6-4.5,6.6-4.6c4.6,1.7,8.1,3.9,10.5,6.6
				C153.7,31.5,151.3,33.2,146.2,33.2z M163.9,29.5c1-1.6,2.9-5.8,1.8-12.5l-0.1-0.4h-7c0,0,0.4,0.9,0.5,3.6c0,1.1-0.2,2.6-0.4,3.6
				c-0.2-0.2-0.5-0.4-0.8-0.6c-0.8-0.7-1.7-1.3-2.7-1.9c-2.2-1.5-5.8-3.2-8.4-4.4l-0.8-0.4c-2.3-1.1-3.6-3.1-3.2-5
				c0.3-1.3,0.8-2.3,1.7-2.9c1.2-0.8,2.9-1,4.6-0.7c0.9,0.2,2.2,0.7,3.6,1.5c2.1,1.2,3.5,2.8,3.5,2.8l5.1-5.1
				c-1.9-2.1-4.7-4.6-8.9-5.7c-1.2-0.3-2.5-0.5-3.9-0.5c-2.9,0-5.9,0.7-7.8,2c-2.4,1.6-4,4.1-4.6,7.2c-0.6,2.9,0,5.5,1.6,7.9
				c-4.2,1.9-6.6,5.5-6.6,9.9c0,6.9,6.4,12.1,14.8,12.1c5,0,9.1-1.3,12.4-4.1c0,0.1,0.1,0.2,0.1,0.3c0.3,0.8,0.3,2.2,0.3,2.3l0,0.7
				h7.1l0-0.7C166.1,38.4,166.2,33.5,163.9,29.5L163.9,29.5z"/>
			<path id="Fill-13" class="st3" d="M317.1,33.8h0.5c0.7,0,1,0.1,1,0.7c0,0.5-0.3,0.8-0.8,0.8h-0.7V33.8z M319.1,36.1
				c-0.1-0.2-0.2-0.3-0.4-0.4c0.3-0.1,0.8-0.5,0.8-1.3c0-0.9-0.6-1.4-1.8-1.4h-1.6v4.8h0.9V36h0.7c0.2,0,0.3,0.1,0.4,0.3l0.7,1.5h1
				L319.1,36.1L319.1,36.1z"/>
			<path id="Fill-14" class="st3" d="M317.9,39c-1.9,0-3.4-1.5-3.4-3.4c0-1.9,1.5-3.4,3.4-3.4c1.9,0,3.4,1.5,3.4,3.4
				C321.3,37.5,319.8,39,317.9,39z M317.9,31.2c-2.4,0-4.3,1.9-4.3,4.3c0,2.4,1.9,4.3,4.3,4.3c2.4,0,4.3-1.9,4.3-4.3
				C322.2,33.2,320.2,31.2,317.9,31.2L317.9,31.2z"/>
			<path id="Fill-15" class="st3" d="M114,16.8c-3.9,1.2-4.4,5.3-4.4,5.3s4.2-0.1,8.4-0.1C123.5,22,120.8,14.8,114,16.8z M119.2,28
				l-9.6,0c0.1,3,4.2,4.9,6.3,5.3c2.7,0.5,4.9-0.2,6.8-1l4.6,4.6c-2.7,1.7-6.4,3-9.3,3c-10.2,0-15.8-6.4-15.8-14.7
				c0-7.8,5.6-14.8,13.7-14.8c8.2,0,12,5.2,12,10.7C127.9,24.9,124.6,28,119.2,28L119.2,28z"/>
			<path id="Fill-16" class="st3" d="M297.6,16.8c-3.9,1.2-4.4,5.3-4.4,5.3s4.2-0.1,8.4-0.1C307.1,22,304.4,14.8,297.6,16.8z
				 M302.8,28l-9.6,0c0.1,3,4.2,4.9,6.3,5.3c2.7,0.5,4.9-0.2,6.8-1l4.6,4.6c-2.7,1.7-6.4,3-9.3,3c-10.2,0-15.8-6.4-15.8-14.7
				c0-7.8,5.6-14.8,13.7-14.8c8.2,0,12,5.2,12,10.7C311.5,24.9,308.2,28,302.8,28L302.8,28z"/>
		</g>
	</g>
</g>
</svg>
