<?xml version="1.0" encoding="UTF-8"?>
<svg width="323px" height="40px" viewBox="0 0 323 40" version="1.1" xmlns="http://www.w3.org/2000/svg" xmlns:xlink="http://www.w3.org/1999/xlink">
    <!-- Generator: Sketch 43.1 (39012) - http://www.bohemiancoding.com/sketch -->
    <title>R&amp;H_POS_Gold_RGB</title>
    <desc>Created with Sketch.</desc>
    <defs>
        <polygon id="path-1" points="0.00827594156 0.0746214064 0.00827594156 38.3199543 30.9971253 38.3199543 30.9971253 0.0746214064 0.00827594156 0.0746214064"></polygon>
    </defs>
    <g id="Symbols" stroke="none" stroke-width="1" fill="none" fill-rule="evenodd">
        <g id="LOGO/R&amp;H_POS_White">
            <g id="R&amp;H_POS_Gold_RGB">
                <g id="Group-3" transform="translate(0.000000, 0.965527)">
                    <mask id="mask-2" fill="white">
                        <use xlink:href="#path-1"></use>
                    </mask>
                    <g id="Clip-2"></g>
                    <path d="M7.50793418,6.16599026 L11.1697625,6.16599026 C16.7180916,6.16599026 19.1935637,6.90627323 19.1935637,11.3005223 C19.1935637,15.3040091 16.9459559,17.5094096 12.8681236,17.5094096 L7.50793418,17.5094096 L7.50793418,6.16599026 Z M27.8809575,34.2739844 C26.9159827,32.3440348 23.3883626,24.0875417 23.3883626,24.0875417 C22.6822868,22.4781469 21.7402088,21.4215851 20.4748174,20.7571649 C22.6960801,19.6979823 26.9329484,16.9749217 26.9329484,10.7905864 C26.9329484,3.57920679 22.2695932,0.0746214064 12.9255035,0.0746214064 L0,0.0746214064 L0,38.3199543 L7.50793418,38.3199543 L7.50793418,23.4867084 L12.7663295,23.4867084 C14.6011058,23.4867084 15.4801487,24.5940293 16.2274662,26.2557005 L20.5883357,35.7934473 C20.5883357,35.7934473 21.6039316,38.3199543 24.7187202,38.3199543 L30.9971253,38.3199543 C30.9971253,38.3199543 29.2837296,37.0774596 27.8809575,34.2739844 L27.8809575,34.2739844 Z" id="Fill-1" fill="#FFFFFF" mask="url(#mask-2)"></path>
                </g>
                <path d="M64.5453096,0.0811042273 C62.1134242,0.0811042273 60.2385096,1.89284577 60.2385096,4.38445591 C60.2385096,6.87482466 62.1134242,8.68918691 64.5453096,8.68918691 C66.9683674,8.68918691 68.8468682,6.87482466 68.8468682,4.38445591 C68.8468682,1.89284577 66.9683674,0.0811042273 64.5453096,0.0811042273" id="Fill-4" fill="#FFFFFF"></path>
                <path d="M47.9546675,25.7108676 C47.9546675,30.6942259 45.4975405,33.4582524 42.5026151,33.4582524 C39.5068622,33.4582524 37.7086381,31.1754719 37.7086381,26.6689458 C37.7086381,21.862279 40.2242484,17.7160322 45.6154726,17.7160322 C46.3938249,17.7160322 47.1146594,17.7754811 47.9546675,17.8969995 L47.9546675,25.7108676 Z M55.6220515,12.3107389 C52.1460181,11.7092159 49.2726112,11.3492125 46.2149267,11.3492125 C35.5528932,11.3492125 29.8601489,17.8969995 29.8601489,27.1506056 C29.8601489,34.6000565 33.754669,39.9475561 40.3446634,39.9475561 C44.6572565,39.9475561 47.1146594,37.9647785 48.5550871,35.8036542 L48.5550871,39.2897567 L55.6220515,39.2897567 L55.6220515,27.9318545 L55.6220515,12.3107389 L55.6220515,12.3107389 Z" id="Fill-5" fill="#FFFFFF"></path>
                <polygon id="Fill-6" fill="#FFFFFF" points="60.7564456 39.2854808 68.3319667 39.2854808 68.3319667 11.8201135 60.7564456 11.8201135"></polygon>
                <path d="M89.4418246,11.2129353 C85.1074382,11.2129353 82.2170656,12.8379164 80.529877,15.3686993 L80.529877,11.8201135 L73.3624978,11.8201135 L73.3624978,23.3153964 L73.3624978,39.2854808 L81.0767788,39.2854808 L81.0767788,24.1591286 C81.0767788,20.1246071 83.2416271,17.8992064 86.9733871,17.8992064 C90.2269356,17.8992064 91.7317777,19.4625318 91.7317777,23.4371906 L91.7317777,39.2854808 L99.4416448,39.2854808 L99.4416448,21.1494445 C99.4416448,15.3091126 95.7053331,11.2129353 89.4418246,11.2129353" id="Fill-7" fill="#FFFFFF"></path>
                <path d="M243.209233,16.5558832 L243.209233,11.8201135 L236.042267,11.8201135 C236.042267,11.8201135 236.043647,19.4625318 236.043647,23.3153964 L236.043647,39.2854808 L243.749927,39.2854808 L243.749927,25.0827237 C243.749927,21.3051702 249.155497,18.3576936 254.358305,19.1138388 L254.374857,11.8201135 C249.994125,11.0718305 245.47822,13.4430257 243.209233,16.5558832" id="Fill-8" fill="#FFFFFF"></path>
                <path d="M272.957105,11.2129353 C268.620511,11.2129353 265.72807,12.8379164 264.041157,15.3686993 L264.041157,11.8201135 L256.878329,11.8201135 L256.878329,23.3153964 L256.878329,39.2854808 L264.58599,39.2854808 L264.58599,24.1591286 C264.58599,20.1246071 266.754286,17.8992064 270.486736,17.8992064 C273.739181,17.8992064 275.242644,19.4625318 275.242644,23.4371906 L275.242644,39.2854808 L282.955821,39.2854808 L282.955821,21.1494445 C282.955821,15.3091126 279.219234,11.2129353 272.957105,11.2129353" id="Fill-9" fill="#FFFFFF"></path>
                <path d="M219.517971,33.3208718 C216.203456,33.3208718 213.839295,30.9049865 213.709639,25.9674218 C213.567569,20.4866795 215.657244,17.6928596 219.517971,17.6928596 C222.829727,17.6928596 225.000782,20.1866767 225.129059,25.1242413 C225.275267,30.602087 223.367663,33.3208718 219.517971,33.3208718 Z M219.407625,11.1591417 C210.665472,11.1591417 205.595078,17.8487232 205.814391,26.1096301 C206.035082,34.5472284 211.476514,39.8539 219.429694,39.8539 C228.173226,39.8539 233.24224,33.1603185 233.027066,24.8995495 C232.804995,16.4642961 227.360805,11.1591417 219.407625,11.1591417 L219.407625,11.1591417 Z" id="Fill-10" fill="#FFFFFF"></path>
                <polyline id="Fill-11" fill="#FFFFFF" points="194.88601 16.6338149 180.371388 16.6338149 180.371388 1.33490937 172.543726 1.33490937 172.543726 39.2165146 180.371388 39.2165146 180.371388 23.4371906 194.88601 23.4371906 194.88601 39.2165146 202.715051 39.2165146 202.715051 1.33490937 194.88601 1.33490937 194.88601 16.6338149"></polyline>
                <path d="M146.208301,33.2498366 C141.604119,33.2498366 138.132361,30.9281591 138.132361,27.8515779 C138.132361,24.2529226 141.700671,23.3704314 144.715873,23.2718097 C149.292468,24.9727916 152.815261,27.1872956 155.20287,29.8597351 C153.667683,31.4507849 151.253867,33.2498366 146.208301,33.2498366 Z M163.895367,29.4587657 C164.86779,27.8586124 166.825051,23.6344339 165.728488,16.9549215 L165.645729,16.5742282 L158.644282,16.5742282 C158.644282,16.5742282 159.022217,17.4568573 159.146356,20.1457107 C159.194633,21.2825493 158.990493,22.7907017 158.756008,23.7718145 C158.509109,23.5675367 158.252555,23.3591209 157.990483,23.1576017 C157.189096,22.4926298 156.30357,21.8552444 155.277354,21.2184107 C153.044229,19.7604657 149.49385,18.0552079 146.90348,16.8081614 L146.151749,16.4413993 C143.815174,15.3158713 142.557231,13.3376454 142.948959,11.4020406 C143.217927,10.0588552 143.786209,9.11788068 144.684148,8.52863364 C145.870367,7.74931581 147.57659,7.48227877 149.274537,7.82600621 C150.201443,8.01166316 151.489731,8.51842665 152.884227,9.28270985 C155.001489,10.4463072 156.38633,12.0769436 156.395985,12.0905989 L161.48431,7.01592946 C159.594636,4.88073654 156.798747,2.38126425 152.61388,1.33490937 C151.400075,1.03104439 150.099373,0.87987052 148.742118,0.87987052 C145.794504,0.87987052 142.889648,1.62580872 140.977906,2.88416563 C138.561331,4.46831878 136.955247,6.95289437 136.329723,10.0679588 C135.749718,12.9390208 136.29524,15.5795979 137.954429,17.9198963 C133.773975,19.7743968 131.379745,23.3822936 131.379745,27.8515779 C131.379745,34.7767478 137.755392,40.0003842 146.208301,40.0003842 C151.253867,40.0003842 155.309078,38.6642334 158.596006,35.9157933 C158.631869,35.9820008 158.678766,36.0671051 158.724283,36.1701405 C159.026355,37.0020106 158.980837,38.418438 158.980837,38.4351278 L158.973941,39.1453415 L166.049871,39.1453415 L166.055388,38.4508521 C166.056767,38.4002309 166.205734,33.5090115 163.895367,29.4587657 L163.895367,29.4587657 Z" id="Fill-12" fill="#FFFFFF"></path>
                <path d="M317.106494,33.8182559 L317.569947,33.8182559 C318.269264,33.8182559 318.580991,33.9124637 318.580991,34.4695725 C318.580991,34.9712325 318.29685,35.25358 317.782363,35.25358 L317.106494,35.25358 L317.106494,33.8182559 Z M319.112031,36.0854501 C319.025133,35.8791032 318.907891,35.7459985 318.747889,35.6636529 C319.029271,35.5283413 319.558932,35.1846138 319.558932,34.4055719 C319.558932,33.4906665 318.96996,33.0483174 317.790639,33.0483174 L316.15752,33.0483174 L316.15752,37.8824328 L317.106494,37.8824328 L317.106494,36.0100011 L317.778225,36.0100011 C318.007192,36.0100011 318.120297,36.1495886 318.214091,36.3559354 L318.910649,37.8824328 L319.921694,37.8824328 L319.112031,36.0854501 L319.112031,36.0854501 Z" id="Fill-13" fill="#FFFFFF"></path>
                <path d="M317.867881,38.9944435 C315.967173,38.9944435 314.42233,37.4540149 314.42233,35.5488932 C314.42233,33.6484611 315.967173,32.1059636 317.867881,32.1059636 C319.769968,32.1059636 321.310672,33.6484611 321.310672,35.5488932 C321.310672,37.4540149 319.769968,38.9944435 317.867881,38.9944435 Z M317.867881,31.2487139 C315.491306,31.2487139 313.563012,33.1743876 313.563012,35.5488932 C313.563012,37.9308471 315.491306,39.855969 317.867881,39.855969 C320.244455,39.855969 322.17275,37.9308471 322.17275,35.5488932 C322.17275,33.1743876 320.244455,31.2487139 317.867881,31.2487139 L317.867881,31.2487139 Z" id="Fill-14" fill="#FFFFFF"></path>
                <path d="M114.049647,16.817265 C110.140368,17.9931383 109.684226,22.0940053 109.684226,22.0940053 C109.684226,22.0940053 113.841093,22.0433841 118.097548,22.0433841 C123.470427,22.0433841 120.79454,14.7909007 114.049647,16.817265 Z M119.215076,27.9550271 L109.626846,27.9528202 C109.708226,30.9620905 113.80661,32.8898332 115.922493,33.2589401 C118.643071,33.7314964 120.784057,33.0735591 122.766834,32.2896895 L127.372672,36.937872 C124.704922,38.6868544 120.953438,39.9475561 118.052858,39.9475561 C107.852622,39.9475561 102.207051,33.5181151 102.207051,25.2158284 C102.207051,17.4405813 107.825174,10.4519625 115.947459,10.4519625 C124.192503,10.4519625 127.944677,15.6824955 127.944677,21.1128924 C127.944677,24.8854804 124.641887,27.9550271 119.215076,27.9550271 L119.215076,27.9550271 Z" id="Fill-15" fill="#FFFFFF"></path>
                <path d="M297.644238,16.817265 C293.733856,17.9931383 293.2773,22.0940053 293.2773,22.0940053 C293.2773,22.0940053 297.433202,22.0433841 301.691174,22.0433841 C307.065018,22.0433841 304.387751,14.7909007 297.644238,16.817265 Z M302.808426,27.9550271 L293.220747,27.9528202 C293.302128,30.9620905 297.401477,32.8898332 299.514601,33.2589401 C302.237386,33.7314964 304.378096,33.0735591 306.361563,32.2896895 L310.965746,36.937872 C308.298134,38.6868544 304.547753,39.9475561 301.648415,39.9475561 C291.445558,39.9475561 285.799987,33.5181151 285.799987,25.2158284 C285.799987,17.4405813 291.417972,10.4519625 299.542188,10.4519625 C307.785025,10.4519625 311.539544,15.6824955 311.539544,21.1128924 C311.539544,24.8854804 308.238823,27.9550271 302.808426,27.9550271 L302.808426,27.9550271 Z" id="Fill-16" fill="#FFFFFF"></path>
            </g>
        </g>
    </g>
</svg>