<?xml version="1.0" encoding="utf-8"?>
<!-- Generator: Adobe Illustrator 21.0.2, SVG Export Plug-In . SVG Version: 6.00 Build 0)  -->
<svg version="1.1" id="slik-logo-svg" xmlns="http://www.w3.org/2000/svg" xmlns:xlink="http://www.w3.org/1999/xlink" x="0px"
	 y="0px" viewBox="0 0 275 406" style="enable-background:new 0 0 275 406;" xml:space="preserve">
<g>
	
		<image style="overflow:visible;opacity:0.29;" width="339" height="427" xlink:href="C413B0FC338FB9F0.png"  transform="matrix(1 0 0 1 -29 -11)">
	</image>
	<g>
		<image style="overflow:visible;" width="284" height="373" xlink:href="C413B0FC338FB9F1.png"  transform="matrix(1 0 0 1 -3 6)">
		</image>
		<g>
			<g>
				<g>
					<path d="M255.5,230c0,2.5-0.1,5.1-0.2,7.6c0,0.2,0,0.3,0,0.5c-4.1,61-54.8,109.1-116.8,109.1c-6.5,0-13.1-0.5-19.3-1.6l0,0
						l42-90.4l0,0L169,238l0.2-0.5l45-96.8l0.1,0.1c13.7,11.6,24.6,26.4,31.8,43.1l0,0C252.1,198,255.5,213.6,255.5,230z
						 M137.2,23.3C74.3,23.3,23,72.8,20,135l0,0c0,1.8,0,3.5,0,5.3c0,16.4,3.5,32,9.5,46.1c0,0,0,0,0,0.1l0,0
						c6.9,15.9,17.2,30.1,30,41.4l0,0l0,0h0.1c0,0,0.1,0,0.2,0c0,0,0,0,0.1,0s0.1,0,0.1,0l43-93.1l0,0h-0.2v-0.1l8.9-18.7l0.1-0.1
						l42.5-91.4C148.7,23.7,142.8,23.3,137.2,23.3z M254,135h-37l-0.2-0.1v0.1H157V24.9c36,6,66.4,28.5,83.4,59.5
						c0,0.1,0.1,0.1,0.1,0.2l-0.2,0.3C248.4,99.9,253,116.9,254,135z M240.2,84.5L240.2,84.5L240.2,84.5L240.2,84.5z M21.5,238
						c1,16,5.2,31.6,12.3,45.5v0.1c16.5,32.2,47.1,55.5,84.1,61.8V238H21.5z M169,238L169,238"/>
				</g>
			</g>
		</g>
	</g>
</g>
</svg>
