<?xml version="1.0" encoding="utf-8"?>
<!-- Generator: Adobe Illustrator 21.0.2, SVG Export Plug-In . SVG Version: 6.00 Build 0)  -->
<svg version="1.1" xmlns="http://www.w3.org/2000/svg" xmlns:xlink="http://www.w3.org/1999/xlink" x="0px" y="0px"
	 viewBox="0 0 239 328" style="enable-background:new 0 0 239 328;" xml:space="preserve">
<style type="text/css">
	.st0{fill:#FFFFFF;}
</style>
<g id="slik-logo-svg">
	<g>
		<g>
			<path class="st0" d="M237.5,209c0,2.5-0.1,5.1-0.2,7.6c0,0.2,0,0.3,0,0.5c-4.1,61-54.8,109.1-116.8,109.1
				c-6.5,0-13.1-0.5-19.3-1.6l0,0l42-90.4l0,0L151,217l0.2-0.5l45-96.8l0.1,0.1c13.7,11.6,24.6,26.4,31.8,43.1l0,0
				C234.1,177,237.5,192.6,237.5,209z M119.2,2.3C56.3,2.3,5,51.8,2,114l0,0c0,1.8,0,3.5,0,5.3c0,16.4,3.5,32,9.5,46.1
				c0,0,0,0,0,0.1l0,0c6.9,15.9,17.2,30.1,30,41.4l0,0l0,0h0.1c0,0,0.1,0,0.2,0c0,0,0,0,0.1,0s0.1,0,0.1,0l43-93.1l0,0h-0.2v-0.1
				L93.7,95l0.1-0.1l42.5-91.4C130.7,2.7,124.8,2.3,119.2,2.3z M236,114h-37l-0.2-0.1v0.1H139V3.9c36,6,66.4,28.5,83.4,59.5
				c0,0.1,0.1,0.1,0.1,0.2l-0.2,0.3C230.4,78.9,235,95.9,236,114z M222.2,63.5L222.2,63.5L222.2,63.5L222.2,63.5z M3.5,217
				c1,16,5.2,31.6,12.3,45.5v0.1c16.5,32.2,47.1,55.5,84.1,61.8V217H3.5z M151,217L151,217"/>
		</g>
	</g>
</g>
<g id="circle-svg">
	<circle class="st0" cx="119.8" cy="164.2" r="117.8"/>
</g>
</svg>
