<?xml version="1.0" encoding="UTF-8"?>
<svg width="192px" height="20px" viewBox="0 0 192 20" version="1.1" xmlns="http://www.w3.org/2000/svg" xmlns:xlink="http://www.w3.org/1999/xlink">
    <!-- Generator: Sketch 43.1 (39012) - http://www.bohemiancoding.com/sketch -->
    <title>SMH WHITE</title>
    <desc>Created with Sketch.</desc>
    <defs></defs>
    <g id="Symbols" stroke="none" stroke-width="1" fill="none" fill-rule="evenodd">
        <g id="LOGO/SMH-WHITE" fill-rule="nonzero" fill="#FFFFFF">
            <g id="SMH-WHITE">
                <g id="Layer_1">
                    <g id="Group">
                        <path d="M50.3021207,5.71875 L48.5794454,6.84375 L49.1745514,7.34375 L49.1745514,14.09375 C49.1745514,14.6875 48.6734095,15.125 47.9843393,15.125 C47.9843393,15.125 47.7964111,15.125 47.702447,15.09375 L47.702447,6.6875 L46.1990212,5.71875 L44.2884176,6.96875 L44.3823817,7.125 C44.3823817,7.125 44.7269168,6.90625 44.7895595,6.84375 C44.7895595,6.84375 45.4786297,7.46875 45.4786297,8.0625 L45.4786297,15.09375 C44.7269168,15.3125 43.9438825,15.9375 43.9125612,17.34375 C43.9125612,18 44.4763458,18.84375 45.5099511,19 C46.0737357,19.09375 47.6398042,18.84375 47.6711256,18.84375 C47.8903752,18.8125 48.1722675,18.78125 48.9553018,18.75 C49.6130506,18.71875 50.0515498,19 50.2707993,19.21875 C50.3334421,19.28125 50.3647635,19.3125 50.4274062,19.375 L50.4274062,19.375 C50.6153344,19.15625 50.8032626,18.71875 50.8032626,18.40625 C50.8032626,17.71875 50.5213703,17.25 50.0202284,16.96875 C49.6756933,16.78125 49.2058728,16.6875 48.6107667,16.6875 C48.5794454,16.6875 48.4228385,16.6875 48.2035889,16.71875 C47.9216966,16.75 47.5458401,16.78125 47.2326264,16.8125 C46.7314845,16.875 46.2303426,16.9375 45.9171289,16.96875 C45.6978793,17 45.5412724,17.03125 45.4786297,17.03125 C45.2280587,17.03125 45.0401305,16.9375 44.8835237,16.8125 C44.7269168,16.65625 44.6955954,16.5 44.6955954,16.40625 C44.7582382,15.8125 45.5099511,15.53125 45.7292007,15.53125 L45.9797716,15.53125 C46.4182708,15.625 47.4205546,15.78125 48.4854812,15.78125 C48.8300163,15.78125 49.1745514,15.71875 49.5504078,15.5625 C49.8949429,15.4375 50.2081566,15.21875 50.4900489,14.96875 C50.7719413,14.71875 50.9285481,14.53125 51.085155,14.25 C51.2417618,13.9375 51.3357259,13.625 51.3357259,13.28125 L51.3357259,6.46875 C51.3357259,6.40625 50.3021207,5.71875 50.3021207,5.71875 Z" id="Shape"></path>
                        <g transform="translate(50.053834, 4.937500)">
                            <path d="M1.25057096,1.71875 L1.845677,1.21875" id="Shape"></path>
                            <rect id="Rectangle-path" transform="translate(1.456806, 0.984680) rotate(-122.955893) translate(-1.456806, -0.984680) " x="0.959199958" y="0.478970459" width="1" height="1"></rect>
                        </g>
                        <path d="M66.8398042,14.0625 L66.4639478,14.3125 L66.1507341,14.03125 L66.1507341,6.5625 L64.8665579,5.6875 L62.5174551,7.21875 L62.4548124,7.0625 C62.1415987,6.21875 61.6717781,5.9375 61.4525285,5.71875 L61.4525285,5.71875 L59.2287113,7.1875 L59.3226754,7.34375 C59.3226754,7.34375 59.5732463,7.1875 59.6985318,7.09375 C59.9177814,7.3125 60.3249592,7.96875 60.3249592,8.21875 L60.3249592,13.84375 L59.7298532,14.34375 L61.4525285,15.5 L63.1752039,14.375 L62.5800979,13.875 L62.5800979,7.65625 L63.1752039,7.28125 L64.0208809,8.21875 L64.0208809,14.03125 C64.0208809,14.71875 64.5846656,15.21875 64.960522,15.53125 L67.0277325,14.15625 L66.8398042,14.0625 Z" id="Shape"></path>
                        <g transform="translate(64.774878, 4.937500)">
                            <path d="M1.25057096,1.8125 L1.845677,1.3125" id="Shape"></path>
                            <rect id="Rectangle-path" transform="translate(1.449299, 1.104742) rotate(-122.955893) translate(-1.449299, -1.104742) " x="0.951692226" y="0.599032959" width="1" height="1"></rect>
                        </g>
                        <g transform="translate(19.985318, 12.750000)">
                            <path d="M1.40717781,1.84375 L2.03360522,1.34375" id="Shape"></path>
                            <rect id="Rectangle-path" transform="translate(1.627958, 1.115228) rotate(-122.906658) translate(-1.627958, -1.115228) " x="1.13022577" y="0.609812215" width="1" height="1"></rect>
                        </g>
                        <path d="M25.9340946,14.15625 C25.9340946,14.15625 25.4016313,14.5 25.3076672,14.53125 C25.3076672,14.53125 24.0861338,13.65625 24.0861338,13.625 L24.0861338,10.875 L27.1243067,8.84375 L25.4016313,5.65625 L21.7996737,8.03125 L21.7996737,14.1875 C22.4887439,14.6875 23.9921697,15.5625 23.9921697,15.5625 L26.0593801,14.25 L25.9340946,14.15625 Z M24.0861338,7.125 L25.4955954,9.53125 L24.0861338,10.46875 L24.0861338,7.125 Z" id="Shape"></path>
                        <g transform="translate(66.027732, 12.750000)">
                            <path d="M1.25057096,1.90625 L1.845677,1.40625" id="Shape"></path>
                            <rect id="Rectangle-path" transform="translate(1.471264, 1.174836) rotate(-122.955893) translate(-1.471264, -1.174836) " x="0.973657903" y="0.669126709" width="1" height="1"></rect>
                        </g>
                        <path d="M114.542251,5.96875 C114.542251,5.96875 113.007504,7 112.725612,7.15625 C112.662969,7.0625 112.443719,6.25 111.629364,5.6875 C111.378793,5.84375 109.530832,7.09375 109.530832,7.09375 L109.624796,7.21875 C109.624796,7.21875 109.875367,7.03125 109.93801,7 L110.094617,7.09375 C110.345188,7.34375 110.470473,7.53125 110.470473,7.65625 L110.470473,13.65625 L109.844046,14.1875 L111.598042,15.5625 C111.598042,15.5625 113.477325,14.25 113.414682,14.28125 L112.725612,13.6875 L112.725612,7.71875 L113.101468,7.46875 L113.978467,8.59375 C113.978467,8.59375 113.884502,8.71875 113.853181,8.78125 C113.727896,8.96875 113.508646,9.25 113.508646,9.65625 C113.508646,9.8125 113.665253,10.15625 113.947145,10.15625 L113.978467,10.15625 C114.166395,10.15625 114.197716,10.125 114.354323,10.0625 L114.416966,10.03125 L114.354323,10 C114.229038,9.96875 114.135073,9.9375 114.072431,9.875 C114.072431,9.875 114.041109,9.875 114.041109,9.84375 C113.947145,9.75 113.853181,9.59375 113.853181,9.46875 C113.853181,9.25 113.978467,9 114.229038,8.6875 C114.667537,8.1875 115.669821,7.46875 115.669821,7.46875 L114.542251,5.96875 Z" id="Shape"></path>
                        <g transform="translate(189.747145, 5.562500)">
                            <path d="M1.28189233,1.75 L1.87699837,1.25" id="Shape"></path>
                            <rect id="Rectangle-path" transform="translate(1.508678, 1.000736) rotate(-122.955893) translate(-1.508678, -1.000736) " x="1.01107128" y="0.495026709" width="1" height="1"></rect>
                        </g>
                        <g transform="translate(183.796085, 12.750000)">
                            <path d="M1.18792822,1.8125 L1.78303426,1.3125" id="Shape"></path>
                            <rect id="Rectangle-path" transform="translate(1.409708, 1.085808) rotate(-122.955893) translate(-1.409708, -1.085808) " x="0.912102013" y="0.580098584" width="1" height="1"></rect>
                        </g>
                        <path d="M42.2212072,13.625 C41.0623165,12.8125 39.7468189,12.21875 38.4939641,11.875 L38.4626427,11.875 L39.840783,9.84375 C41.5947798,10.21875 42.7849918,11.1875 42.7849918,12.15625 C42.7536705,12.59375 42.5657423,13.1875 42.2212072,13.625 L42.2212072,13.625 Z M39.0264274,7 C38.7758564,6.96875 38.0241436,6.84375 37.8362153,6.78125 C37.2097879,6.65625 34.0776509,5.75 34.0776509,4.375 C34.0776509,2.8125 36.0822186,2.8125 37.0531811,2.8125 C37.2724307,2.8125 39.5275693,3 40.6238173,4.46875 C40.6238173,4.53125 39.3083197,6.5625 39.0264274,7 Z M45.8858075,4.90625 L45.9171289,4.875 C46.0737357,4.71875 46.1990212,4.4375 46.1990212,4.25 C46.1990212,4.03125 46.1363785,3.84375 45.9797716,3.71875 C45.8544861,3.5625 45.6352365,3.46875 45.3533442,3.46875 L45.1967374,3.46875 C44.5076672,3.46875 43.7872757,3.90625 43.0042414,4.65625 C42.3151713,5.3125 42.0646003,5.78125 41.6574225,6.46875 C41.3128874,7 41.1562806,7.28125 41.0623165,7.40625 C40.937031,7.375 40.1539967,7.28125 39.4336052,7.125 C39.6528548,6.75 40.341925,5.59375 41.0936378,4.5 C41.6574225,3.71875 42.3151713,3 42.6597064,2.59375 C42.7223491,2.53125 42.7536705,2.5 42.8163132,2.46875 C42.8476346,2.4375 42.9415987,2.40625 42.9415987,2.375 C42.9415987,2.34375 42.8476346,2.25 42.8476346,2.25 C42.8163132,2.25 42.7849918,2.28125 42.7223491,2.28125 C42.6597064,2.3125 42.5970636,2.34375 42.5030995,2.34375 C42.377814,2.34375 42.2525285,2.25 42.033279,2.0625 C41.4694943,1.59375 40.3732463,0.71875 38.4939641,0.71875 C35.267863,0.71875 33.3572594,3.4375 33.3885808,5.25 C33.3885808,6.375 33.6078303,7.625 34.171615,8.125 C34.7353997,8.65625 35.7063622,9.03125 37.4290375,9.4375 L37.554323,9.46875 L37.2724307,9.78125 C36.8339315,10.15625 36.4893964,10.53125 35.6750408,10.53125 C35.1425775,10.53125 34.8920065,10.34375 34.7040783,10.1875 L34.6727569,10.21875 C34.7040783,10.3125 34.8293638,10.5 34.9859706,10.6875 C35.1738989,10.90625 35.3618271,11.03125 35.5184339,11.0625 C35.5497553,11.0625 35.7690049,11.125 36.11354,11 C36.5833605,10.84375 37.0845024,10.5 37.554323,9.96875 L37.7422512,9.75 L37.9301794,9.53125 L39.1517129,9.6875 C39.2769984,9.71875 39.4336052,9.71875 39.5588907,9.78125 L39.0577488,10.53125 C38.4313214,11.46875 38.1807504,11.78125 38.1807504,11.78125 C38.1807504,11.78125 37.7735726,11.71875 37.6482871,11.6875 C37.303752,11.625 36.7712887,11.59375 36.0195759,11.59375 C34.5474715,11.59375 32.5115824,12.125 31.2900489,13.34375 C31.039478,13.59375 30.8202284,13.875 30.6636215,14.15625 C30.3817292,14.65625 30.2251223,15.1875 30.2251223,15.75 C30.2251223,16.5 30.7262643,17.34375 32.1044046,17.34375 C33.9523654,17.34375 35.5497553,15.625 36.3954323,14.6875 L36.5207178,14.53125 C36.7712887,14.25 36.8965742,14.0625 36.9905383,13.96875 C37.9615008,14.25 39.5588907,14.90625 40.937031,15.78125 C41.2189233,15.5 42.033279,14.53125 42.8163132,13.375 C43.2548124,12.75 44.2257749,11.28125 44.2570962,10.15625 C44.2884176,9.09375 43.2861338,7.78125 41.4068515,7.40625 C41.4694943,7.28125 41.5634584,7.09375 41.8453507,6.65625 C42.628385,5.46875 43.3174551,4.25 44.7582382,4.25 C45.0088091,4.25 45.5725938,4.3125 45.8544861,4.84375 C45.8544861,4.875 45.8544861,4.875 45.8858075,4.90625 Z M34.9233279,15.65625 C34.5787928,15.96875 34.2029364,16.21875 33.8584013,16.40625 C33.4825449,16.59375 33.1380098,16.75 32.7621533,16.84375 C32.6368679,16.875 32.5429038,16.90625 32.4489396,16.90625 C32.2923328,16.9375 32.1357259,16.9375 32.0104405,16.9375 L31.7911909,16.9375 C31.039478,16.875 30.5696574,16.4375 30.5696574,15.78125 C30.5696574,14.09375 33.4199021,13.5625 34.4535073,13.5625 L34.6727569,13.5625 C35.1425775,13.5625 35.4871126,13.59375 36.4267537,13.78125 L36.6146819,13.84375 C36.2075041,14.375 35.7063622,14.90625 35.267863,15.34375 C35.1738989,15.46875 35.0486134,15.5625 34.9233279,15.65625 Z" id="Shape"></path>
                        <path d="M13.4055465,11.46875 L13.3742251,11.46875 C12.0587276,13.0625 10.8998369,13.5625 10.7119086,13.65625 L10.7119086,5.25 L10.7119086,5.25 C12.2153344,5.1875 13.2489396,4.3125 13.2489396,2.90625 C13.2489396,2.75 13.2176183,2.5 13.1236542,2.28125 C12.685155,2.8125 11.9647635,2.96875 11.5262643,2.96875 C10.4300163,2.96875 9.27112561,2.625 8.04959217,2.28125 C6.76541599,1.90625 5.41859706,1.53125 4.10309951,1.53125 C2.22381729,1.59375 0,2.46875 0,4.96875 C0,5.875 0.626427406,7.53125 2.09853181,8.3125 L2.19249592,8.34375 C2.19249592,8.34375 1.84796085,9.125 1.84796085,9.8125 C1.84796085,12.21875 3.35138662,15.875 7.61109299,15.875 C8.64469821,15.875 9.58433931,15.65625 10.4300163,15.1875 C11.0877651,14.8125 11.7141925,14.3125 12.2153344,13.6875 C13.0610114,12.59375 13.4055465,11.5 13.4055465,11.46875 L13.4055465,11.46875 Z M6.42088091,13.53125 C6.51484502,13.46875 6.60880914,13.40625 6.60880914,13.40625 C8.0182708,12.46875 8.70734095,11.625 8.70734095,10.78125 L8.70734095,5.03125 C8.70734095,5.03125 9.42773246,5.21875 10.3986949,5.25 L10.3986949,13.78125 C8.83262643,14.3125 7.14127243,13.9375 6.42088091,13.53125 Z M6.51484502,12.125 C6.48352365,12.46875 6.38955954,12.875 6.07634584,13.34375 L5.98238173,13.28125 C4.54159869,12.34375 3.82120718,10.53125 3.72724307,8.5625 C3.66460033,7.125 4.38499184,5.3125 5.4812398,4.125 C5.60652529,4.15625 6.20163132,4.3125 6.48352365,4.4375 L6.48352365,8 L6.48352365,10.8125 L6.48352365,12 L6.48352365,12.125 L6.51484502,12.125 Z M5.13670473,4.03125 C2.94420881,6.21875 2.25513866,8.125 2.25513866,8.125 L2.16117455,8.09375 C1.53474715,7.78125 1.22153344,7 1.19021207,6.3125 C1.12756933,4.65625 2.28646003,3.9375 3.85252855,3.9375 C4.35367047,3.90625 4.94877651,3.96875 5.13670473,4.03125 Z" id="Shape"></path>
                        <path d="M125.72398,5.625 C125.692659,5.65625 123.625449,7.0625 123.625449,7.0625 L123.719413,7.25 C123.719413,7.25 124.001305,7.0625 124.063948,7.03125 L124.189233,7.125 C124.439804,7.375 124.533768,7.53125 124.533768,7.65625 L124.533768,14.375 L125.661338,15.53125 L127.791191,14.375 L127.634584,14.15625 C127.634584,14.15625 127.352692,14.3125 127.32137,14.3125 L126.788907,13.75 L126.788907,6.53125 C126.788907,6.5625 125.755302,5.65625 125.72398,5.625 Z" id="Shape"></path>
                        <polygon id="Shape" points="124.502447 3.25 124.471126 3.25 124.502447 3.25 125.849266 2.1875 127.070799 3.34375 125.692659 4.34375 125.661338 4.34375"></polygon>
                        <path d="M78.9298532,5.6875 L77.2071778,6.8125 L77.8022838,7.3125 L77.8022838,14.0625 C77.8022838,14.65625 77.3011419,15.09375 76.6120718,15.09375 C76.6120718,15.09375 76.4241436,15.09375 76.2988581,15.0625 L76.2988581,6.65625 L74.7954323,5.65625 L72.8848287,6.90625 L72.9787928,7.0625 C72.9787928,7.0625 73.3233279,6.84375 73.3859706,6.78125 C73.3859706,6.78125 74.0750408,7.40625 74.0750408,8 L74.0750408,15.0625 C73.3233279,15.28125 72.5089723,15.875 72.5089723,17.28125 C72.5089723,17.9375 73.0727569,18.78125 74.1063622,18.9375 C74.6701468,19.03125 76.2362153,18.78125 76.2675367,18.78125 C76.4867863,18.75 76.7686786,18.71875 77.5517129,18.6875 C78.2094617,18.65625 78.6479608,18.9375 78.8672104,19.15625 C78.9298532,19.21875 78.9611746,19.25 79.0238173,19.3125 L79.0551387,19.3125 C79.2430669,19.09375 79.4309951,18.65625 79.4309951,18.34375 C79.4309951,17.65625 79.1491028,17.1875 78.6479608,16.90625 C78.3034258,16.71875 77.8336052,16.625 77.2384992,16.625 C77.2071778,16.625 77.050571,16.625 76.8313214,16.65625 C76.549429,16.6875 76.1735726,16.71875 75.8603589,16.75 C75.359217,16.8125 74.858075,16.875 74.5448613,16.90625 C74.3256117,16.9375 74.1690049,16.96875 74.1063622,16.96875 C73.8557912,16.96875 73.6365416,16.875 73.4799347,16.75 C73.3233279,16.59375 73.2920065,16.40625 73.2920065,16.3125 C73.3546493,15.71875 74.0750408,15.4375 74.2942904,15.4375 C74.3256117,15.4375 74.5761827,15.4375 74.6075041,15.46875 C75.0773246,15.5625 76.0482871,15.75 77.1132137,15.75 C77.4577488,15.75 77.8022838,15.6875 78.1781403,15.53125 C78.5226754,15.40625 78.8358891,15.1875 79.1177814,14.9375 C79.3996737,14.6875 79.5562806,14.5 79.7128874,14.21875 C79.8694943,13.90625 79.9634584,13.59375 79.9634584,13.25 L79.9634584,6.4375 C79.9634584,6.375 78.9298532,5.6875 78.9298532,5.6875 Z" id="Shape"></path>
                        <path d="M150.40522,9.9375 C150.530506,9.9375 150.781077,9.96875 150.875041,10 C151.000326,10.0625 151.062969,10.125 151.09429,10.1875 C151.125612,10.25 151.125612,12.34375 151.125612,12.34375 C151.125612,12.75 151.062969,12.90625 150.969005,13.09375 C151.752039,12.6875 152.69168,11.875 152.942251,11.375 C153.255465,10.71875 153.255465,9.4375 153.224144,8.0625 C153.192822,6.5 153.161501,4.75 153.631321,3.4375 C153.036215,3.8125 152.69168,4.125 152.253181,4.59375 C151.783361,5.0625 151.470147,5.5 151.344861,5.75 C151.031648,6.53125 151.125612,7.71875 151.09429,7.96875 C148.651223,8.21875 148.212724,9.34375 148.244046,10.3125 C148.244046,10.34375 148.275367,10.5 148.306688,10.65625 L148.33801,10.78125 C148.839152,10.09375 149.528222,9.9375 150.40522,9.9375 Z" id="Shape"></path>
                        <path d="M148.33801,3.1875 C148.431974,3.1875 148.839152,3.28125 149.778793,3.5 C150.279935,3.625 150.937684,3.75 151.000326,3.75 L151.501468,3.75 C152.033931,3.75 153.130179,3.09375 154.445677,2.03125 L154.664927,1.84375 C154.351713,1.96875 154.007178,2.125 153.6,2.125 C153.036215,2.125 152.378467,1.90625 151.689396,1.6875 C150.937684,1.4375 150.185971,1.1875 149.4969,1.1875 C148.024796,1.1875 147.022512,2.09375 147.022512,3.40625 C147.022512,3.71875 147.147798,4.0625 147.367047,4.34375 C147.335726,4.21875 147.273083,4.09375 147.273083,3.96875 C147.335726,3.5 147.711582,3.1875 148.33801,3.1875 Z" id="Shape"></path>
                        <path d="M159.457096,0.59375 C159.77031,0.75 160.240131,1.03125 160.490701,1.53125 C159.77031,2.0625 158.799347,2.75 158.517455,2.9375 C157.984992,2.28125 157.233279,1.4375 156.700816,1.40625 C156.700816,1.40625 156.324959,1.40625 156.230995,1.46875 C156.074388,1.5625 156.074388,1.6875 156.074388,1.8125 L156.074388,6.71875 L158.17292,5.40625 L159.832953,7.0625 L159.832953,12.5625 C159.832953,14.125 158.736705,15.8125 156.57553,17.25 C157.2646,17.46875 158.486134,17.625 159.895595,17.3125 C159.08124,18.5 158.17292,19.09375 157.170636,19.09375 C157.045351,19.09375 156.763458,19.0625 156.544209,18.96875 C155.385318,18.53125 154.570962,18.8125 154.539641,18.78125 C155.541925,17.96875 156.262316,17.15625 156.763458,16.34375 C157.2646,15.53125 157.515171,14.5 157.546493,13.65625 L157.546493,8.25 L156.043067,7.15625 L156.043067,7.6875 L156.043067,7.78125 C156.043067,9.15625 156.043067,10.40625 155.729853,11.0625 C155.447961,11.59375 154.539641,12.375 153.756607,12.78125 C153.850571,12.625 153.913214,12.4375 153.913214,12.03125 L153.913214,5.03125 C153.913214,4.90625 153.944535,4.28125 153.975856,4.1875 C154.101142,3.28125 154.28907,2.3125 155.729853,1.3125 C156.79478,0.5625 157.671778,0.25 158.360848,0.25 C158.674062,0.3125 159.08124,0.40625 159.457096,0.59375 Z" id="Shape"></path>
                        <path d="M21.0479608,14.53125 L21.0479608,14.5625 C20.9226754,14.65625 19.8890701,15.375 19.5445351,15.625 C19.1373573,15.90625 18.8241436,16.21875 18.5735726,16.625 C18.354323,16.96875 18.2290375,17.34375 18.2290375,17.75 C18.2290375,17.90625 18.2603589,18.03125 18.3856444,18.125 C18.604894,18.34375 18.9807504,18.40625 19.1686786,18.40625 L19.450571,18.40625 C19.5758564,18.40625 19.6698206,18.375 19.7637847,18.375 L19.7637847,18.40625 C19.7324633,18.5625 19.6071778,18.6875 19.3879282,18.8125 C19.2,18.90625 19.0120718,18.96875 18.8241436,18.96875 C18.0724307,18.96875 17.8218597,18.34375 17.8218597,17.90625 C17.8218597,17.28125 18.604894,16.15625 19.1373573,15.65625 C19.1373573,15.65625 18.1977162,14.90625 18.1977162,14.28125 L18.1977162,8.21875 L17.3520392,7.28125 L16.7882545,7.65625 L16.7882545,13.9375 C16.8195759,13.96875 17.3833605,14.4375 17.3833605,14.4375 L15.6606852,15.5625 L13.9380098,14.40625 L14.5331158,13.90625 L14.5331158,4.125 L14.5331158,3.59375 C14.5331158,3.0625 14.4704731,2.34375 14.3138662,2.15625 C14.2199021,2.03125 14.0632953,1.96875 13.9066884,1.84375 C14.0632953,1.375 14.3451876,1.15625 14.7836868,1.15625 C14.8776509,1.15625 15.2535073,1.21875 15.4727569,1.3125 C15.6293638,0.96875 15.9738989,0.375 16.6942904,0.375 C16.8195759,0.375 17.0701468,0.46875 17.2267537,0.5625 C16.7256117,1.09375 16.7882545,2.34375 16.7882545,3.0625 L16.7882545,3.15625 L16.7882545,7.1875 L19.1060359,5.65625 L20.4528548,6.53125 L20.4528548,13.28125 C20.4528548,13.90625 20.7660685,14.21875 21.0479608,14.53125 Z" id="Shape"></path>
                        <path d="M184.420228,14.0625 L184.514192,14.1875 L182.415661,15.5625 L180.755628,14.4375 L181.288091,13.9375 L181.288091,3.53125 L181.288091,3.34375 C181.288091,2.8125 181.225449,2.09375 181.068842,1.90625 C180.974878,1.78125 180.818271,1.71875 180.661664,1.59375 C180.818271,1.125 181.100163,0.9375 181.538662,0.9375 C181.632626,0.9375 181.94584,0.96875 182.16509,1.09375 C182.478303,0.84375 182.728874,0.34375 183.417945,0.34375 C183.54323,0.34375 183.793801,0.4375 183.950408,0.53125 C183.637194,0.875 183.54323,1.375 183.511909,1.90625 C183.480587,4.8125 183.480587,13.90625 183.480587,13.90625 L183.950408,14.3125 L184.420228,14.0625 Z" id="Shape"></path>
                        <g transform="translate(19.045677, 4.937500)">
                            <path d="M1.28189233,1.8125 L1.87699837,1.3125" id="Shape"></path>
                            <rect id="Rectangle-path" transform="translate(1.484111, 1.090272) rotate(-122.963817) translate(-1.484111, -1.090272) " x="0.986525062" y="0.584515247" width="1" height="1"></rect>
                        </g>
                        <g transform="translate(57.257749, 5.562500)">
                            <path d="M1.12528548,1.6875 L1.72039152,1.1875" id="Shape"></path>
                            <rect id="Rectangle-path" transform="translate(1.329576, 0.965658) rotate(-122.955893) translate(-1.329576, -0.965658) " x="0.83196942" y="0.459948584" width="1" height="1"></rect>
                        </g>
                        <g transform="translate(50.993475, 12.750000)">
                            <path d="M1.34453507,1.75 L1.93964111,1.25" id="Shape"></path>
                            <rect id="Rectangle-path" transform="translate(1.543680, 1.047139) rotate(-122.976549) translate(-1.543680, -1.047139) " x="1.04612673" y="0.541306984" width="1" height="1"></rect>
                        </g>
                        <g transform="translate(78.556281, 4.625000)">
                            <path d="M1.37585644,1.96875 L2.00228385,1.46875" id="Shape"></path>
                            <rect id="Rectangle-path" transform="translate(1.596416, 1.235330) rotate(-122.976549) translate(-1.596416, -1.235330) " x="1.09886252" y="0.729497609" width="1" height="1"></rect>
                        </g>
                        <g transform="translate(107.371941, 5.250000)">
                            <path d="M1.12528548,1.90625 L1.72039152,1.40625" id="Shape"></path>
                            <rect id="Rectangle-path" transform="translate(1.324677, 1.168439) rotate(-122.955893) translate(-1.324677, -1.168439) " x="0.827070757" y="0.662729834" width="1" height="1"></rect>
                        </g>
                        <g transform="translate(101.107667, 12.750000)">
                            <path d="M1.34453507,1.90625 L1.93964111,1.40625" id="Shape"></path>
                            <rect id="Rectangle-path" transform="translate(1.551322, 1.175292) rotate(-122.955893) translate(-1.551322, -1.175292) " x="1.05371533" y="0.669582959" width="1" height="1"></rect>
                        </g>
                        <g transform="translate(125.538336, 4.937500)">
                            <path d="M1.12528548,1.78125 L1.72039152,1.28125" id="Shape"></path>
                            <rect id="Rectangle-path" transform="translate(1.325263, 1.049064) rotate(-122.955893) translate(-1.325263, -1.049064) " x="0.827656467" y="0.543354834" width="1" height="1"></rect>
                        </g>
                        <g transform="translate(122.719413, 13.062500)">
                            <path d="M1.37585644,1.71875 L1.97096248,1.21875" id="Shape"></path>
                            <rect id="Rectangle-path" transform="translate(1.589452, 0.988761) rotate(-122.955893) translate(-1.589452, -0.988761) " x="1.09184596" y="0.483051709" width="1" height="1"></rect>
                        </g>
                        <g transform="translate(140.885808, 5.250000)">
                            <path d="M1.28189233,1.96875 L1.87699837,1.46875" id="Shape"></path>
                            <rect id="Rectangle-path" transform="translate(1.504847, 1.228739) rotate(-122.955893) translate(-1.504847, -1.228739) " x="1.00724068" y="0.723029834" width="1" height="1"></rect>
                        </g>
                        <g transform="translate(177.845024, 4.937500)">
                            <path d="M1.21924959,1.96875 L1.81435563,1.46875" id="Shape"></path>
                            <rect id="Rectangle-path" transform="translate(1.445336, 1.215242) rotate(-122.955893) translate(-1.445336, -1.215242) " x="0.947730072" y="0.709532959" width="1" height="1"></rect>
                        </g>
                        <path d="M185.422512,1.6875 L185.422512,4.53125 C185.861011,4.9375 186.863295,5.875 187.333116,6.3125 C186.894617,6.71875 186.04894,7.15625 185.391191,7.34375 C185.359869,7.34375 185.485155,7.53125 185.485155,7.78125 L185.485155,14.1875 L187.42708,15.625 C189.243719,14.4375 190.559217,14.15625 191.185644,14.03125 L191.216966,7.125 L185.422512,1.6875 Z M187.834258,6.78125 L188.993148,7.875 L188.993148,14.21875 L187.64633,13.28125 L187.64633,6.9375 L187.834258,6.78125 Z" id="Shape"></path>
                        <path d="M107.213051,5.625 C106.398695,6.15625 104.112235,7.15625 102.85938,7.40625 C102.828059,7.40625 102.953344,7.59375 102.953344,7.84375 L102.953344,14.25 L104.895269,15.6875 C106.711909,14.5 108.027406,14.21875 108.653834,14.09375 L108.685155,6.96875 L107.213051,5.625 Z M105.271126,7 L106.461338,8.28125 L106.461338,14.25 L105.114519,13.3125 L105.114519,7.0625 L105.271126,7 Z" id="Shape"></path>
                        <path d="M52.7451876,1.65625 L52.7451876,4.5 C53.1836868,4.90625 54.1859706,5.84375 54.6557912,6.28125 C54.217292,6.6875 53.371615,7.125 52.7138662,7.3125 C52.6825449,7.3125 52.8078303,7.5 52.8078303,7.75 L52.8078303,14.15625 L54.7497553,15.59375 C56.5663948,14.40625 57.8818923,14.125 58.5083197,14 L58.5396411,7.09375 L52.7451876,1.65625 Z M55.1569331,6.75 L56.3158238,7.84375 L56.3158238,14.1875 L54.9690049,13.25 L54.9690049,6.90625 L55.1569331,6.75 Z" id="Shape"></path>
                        <g transform="translate(178.158238, 12.750000)">
                            <path d="M1.21924959,1.71875 L1.81435563,1.21875" id="Shape"></path>
                            <rect id="Rectangle-path" transform="translate(1.424634, 0.975825) rotate(-123.154534) translate(-1.424634, -0.975825) " x="0.925014786" y="0.474899122" width="1" height="1"></rect>
                        </g>
                        <g transform="translate(112.070147, 12.437500)">
                            <path d="M1.15660685,1.96875 L1.65660685,1.46875" id="Shape"></path>
                            <rect id="Rectangle-path" transform="translate(1.352257, 1.184584) rotate(-125.775462) translate(-1.352257, -1.184584) " x="0.85524937" y="0.679956394" width="1" height="1"></rect>
                        </g>
                        <path d="M179.377488,14.15625 C179.252202,14 179.158238,13.78125 179.18956,13.625 L179.18956,6.71875 C179.064274,6.59375 178.06199,5.65625 178.06199,5.65625 L176.307993,7.03125 L174.992496,5.75 L173.301142,7.09375 L174.491354,8.40625 C174.303426,8.65625 173.802284,9.625 174.39739,10.40625 C174.522675,10.5625 174.553997,10.625 174.553997,10.625 L174.39739,10.6875 C173.301142,11.03125 172.518108,12.21875 172.518108,13.09375 C172.518108,13.8125 172.862643,15.03125 173.864927,15.5625 L176.9031,13.6875 L176.934421,13.90625 C176.965742,14.40625 177.278956,14.96875 177.780098,15.59375 L179.596737,14.3125 L179.377488,14.15625 Z M176.809135,13.25 L175.368352,14.15625 C174.898532,13.90625 174.585318,13.53125 174.39739,13.1875 C174.209462,12.78125 174.115498,12.34375 174.115498,11.96875 C174.115498,11.96875 174.115498,11.5 174.303426,11.25 C174.39739,11.125 174.522675,11.0625 174.585318,11 C174.679282,10.9375 174.804568,10.9375 174.86721,11 C175.399674,11.40625 176.026101,11.46875 176.777814,11.5 L176.809135,13.25 Z M176.339315,7.40625 L176.840457,7.90625 L176.840457,11.0625 C176.057423,11.09375 175.399674,10.90625 175.117781,10.65625 C173.770962,9.53125 174.898532,8 176.339315,7.40625 Z" id="Shape"></path>
                        <path d="M123.343556,14.0625 L122.9677,14.3125 L122.654486,14.03125 L122.654486,6.5625 L121.37031,5.6875 L119.021207,7.21875 L118.958564,7.0625 C118.645351,6.21875 118.17553,5.9375 117.956281,5.71875 L117.956281,5.71875 L115.732463,7.1875 L115.826427,7.34375 C115.826427,7.34375 116.076998,7.1875 116.202284,7.125 C116.421533,7.34375 116.828711,8 116.828711,8.25 L116.828711,13.875 L116.233605,14.375 L117.956281,15.53125 L119.678956,14.40625 L119.08385,13.90625 L119.08385,7.6875 L119.678956,7.3125 L120.524633,8.25 L120.524633,14.0625 C120.524633,14.75 121.088418,15.25 121.464274,15.5625 L123.531485,14.1875 L123.343556,14.0625 Z" id="Shape"></path>
                        <g transform="translate(121.153344, 4.937500)">
                            <path d="M1.34453507,1.84375 L1.93964111,1.34375" id="Shape"></path>
                            <rect id="Rectangle-path" transform="translate(1.559866, 1.094042) rotate(-122.955893) translate(-1.559866, -1.094042) " x="1.06225979" y="0.588332959" width="1" height="1"></rect>
                        </g>
                        <path d="M135.527569,14.0625 L135.151713,14.3125 L134.838499,14.03125 L134.838499,6.5625 L133.554323,5.6875 L131.20522,7.21875 L131.142577,7.0625 C130.829364,6.21875 130.359543,5.9375 130.140294,5.71875 L130.140294,5.71875 L127.916476,7.1875 L128.01044,7.34375 C128.01044,7.34375 128.261011,7.1875 128.386297,7.125 C128.605546,7.34375 129.012724,8 129.012724,8.25 L129.012724,13.875 L128.417618,14.375 L130.140294,15.53125 L131.862969,14.40625 L131.267863,13.90625 L131.267863,7.6875 L131.862969,7.3125 L132.708646,8.25 L132.708646,14.0625 C132.708646,14.75 133.272431,15.25 133.648287,15.5625 L135.715498,14.1875 L135.527569,14.0625 Z" id="Shape"></path>
                        <g transform="translate(133.368679, 4.937500)">
                            <path d="M1.3132137,1.84375 L1.90831974,1.34375" id="Shape"></path>
                            <rect id="Rectangle-path" transform="translate(1.515735, 1.106714) rotate(-122.976549) translate(-1.515735, -1.106714) " x="1.0181818" y="0.600881984" width="1" height="1"></rect>
                        </g>
                        <path d="M71.9138662,14.15625 L71.2874388,14.53125 L70.0659054,13.65625 L70.0659054,10.90625 L73.1040783,8.875 L71.3814029,5.6875 L67.7794454,8.0625 L67.7794454,14.21875 C68.4685155,14.71875 69.9719413,15.59375 69.9719413,15.59375 L72.0391517,14.28125 L71.9138662,14.15625 Z M70.034584,7.125 L71.4440457,9.53125 L70.034584,10.46875 L70.034584,7.125 Z" id="Shape"></path>
                        <g transform="translate(159.365416, 12.750000)">
                            <path d="M1.21924959,1.90625 L1.845677,1.40625" id="Shape"></path>
                            <rect id="Rectangle-path" transform="translate(1.447348, 1.166270) rotate(-122.976549) translate(-1.447348, -1.166270) " x="0.94979472" y="0.660438234" width="1" height="1"></rect>
                        </g>
                        <path d="M165.220228,14.15625 L164.593801,14.53125 L163.372268,13.65625 L163.372268,10.90625 L166.41044,8.875 L164.687765,5.6875 L161.085808,8.0625 L161.085808,14.21875 C161.774878,14.71875 163.278303,15.59375 163.278303,15.59375 L165.345514,14.28125 L165.220228,14.15625 Z M163.372268,7.15625 L164.781729,9.5625 L163.372268,10.5 L163.372268,7.15625 Z" id="Shape"></path>
                        <path d="M171.609788,5.96875 C171.609788,5.96875 170.075041,7 169.793148,7.15625 C169.730506,7.03125 169.511256,6.25 168.6969,5.6875 C168.44633,5.84375 166.598369,7.09375 166.598369,7.09375 L166.692333,7.21875 C166.692333,7.21875 166.942904,7.03125 167.005546,7 L167.162153,7.09375 C167.412724,7.34375 167.53801,7.53125 167.53801,7.65625 L167.53801,13.65625 L166.911582,14.1875 L168.665579,15.5625 C168.665579,15.5625 170.544861,14.25 170.482219,14.28125 L169.793148,13.6875 L169.793148,7.71875 L170.169005,7.46875 L171.046003,8.59375 C171.046003,8.59375 170.952039,8.71875 170.920718,8.78125 C170.795432,8.96875 170.576183,9.25 170.576183,9.65625 C170.576183,9.8125 170.73279,10.15625 171.014682,10.15625 L171.046003,10.15625 C171.233931,10.15625 171.265253,10.125 171.42186,10.0625 L171.484502,10.03125 L171.42186,10 C171.296574,9.96875 171.20261,9.9375 171.139967,9.875 C171.139967,9.875 171.108646,9.875 171.108646,9.84375 C171.014682,9.75 170.920718,9.59375 170.920718,9.46875 C170.920718,9.25 171.046003,9 171.296574,8.6875 C171.735073,8.1875 172.737357,7.46875 172.737357,7.46875 L171.609788,5.96875 Z" id="Shape"></path>
                        <rect id="Rectangle-path" transform="translate(170.479689, 13.621303) rotate(-126.087192) translate(-170.479689, -13.621303) " x="169.980022" y="13.120781" width="1" height="1"></rect>
                        <path d="M138.565742,7.09375 L140.100489,8.5 L140.100489,13.65625 L139.630669,14.0625 L139.599347,14.0625 C139.035563,13.84375 138.346493,12.90625 138.346493,12.34375 L138.346493,7.25 L138.565742,7.09375 Z M142.261664,13.0625 L142.261664,7.03125 C142.261664,7.03125 141.165416,6.03125 140.726917,5.59375 C140.35106,5.875 138.127243,6.875 135.99739,7.53125 C136.060033,7.59375 136.216639,7.78125 136.216639,7.78125 L136.185318,11.53125 C136.185318,12.15625 136.185318,12.9375 136.404568,13.625 C136.655139,14.375 137.093638,14.9375 137.782708,15.34375 L137.939315,15.4375 L134.431321,18.375 C134.462643,18.40625 134.493964,18.75 134.493964,18.75 C134.556607,18.75 134.650571,18.71875 134.775856,18.65625 C135.026427,18.53125 135.433605,18.34375 136.122675,18.34375 C137.062316,18.34375 138.095922,18.96875 138.565742,19.25 C138.659706,19.3125 138.75367,19.34375 138.784992,19.375 C139.066884,19.3125 140.194454,18.46875 141.196737,17.5625 C141.760522,17.0625 142.230343,16.5625 142.574878,16.15625 C142.982055,15.65625 143.169984,15.3125 143.169984,15.0625 C143.169984,14.75 142.950734,14.46875 142.731485,14.15625 C142.543556,13.84375 142.261664,13.5 142.261664,13.0625 Z M140.664274,17.75 L140.382382,17.59375 C139.693312,17.1875 139.035563,16.84375 138.252529,16.84375 L138.0646,16.84375 C137.814029,16.875 137.438173,16.9375 137.093638,17 L136.968352,16.75 C136.968352,16.75 139.693312,14.46875 139.943883,14.25 C140.288418,14.53125 140.758238,15.09375 140.946166,15.4375 C141.165416,15.78125 141.228059,16.125 141.228059,16.53125 C141.228059,16.96875 141.102773,17.21875 140.664274,17.75 Z" id="Shape"></path>
                        <path d="M152.848287,13 C150.40522,13.09375 148.431974,15.3125 148.463295,17.5 C148.463295,18.375 148.776509,19.71875 150.060685,19.71875 C150.593148,19.71875 151.031648,19.46875 151.031648,18.75 C151.031648,18.625 151.000326,18.375 150.937684,18.25 C150.843719,18.5 150.40522,19.0625 149.966721,19.0625 C149.02708,19.03125 148.776509,18.28125 148.776509,17.65625 C148.776509,16.3125 149.778793,14.75 151.407504,14.75 C152.315824,14.75 153.224144,15.15625 154.101142,16.125 C154.101142,16.125 156.043067,14.71875 156.011746,14.6875 C154.915498,13.3125 154.257749,12.96875 152.848287,13 Z" id="Shape"></path>
                        <g transform="translate(85.820555, 0.625000)" id="Shape">
                            <path d="M6.48352365,11.6875 C6.38955954,12.0625 5.79445351,13.25 5.10538336,13.28125 C4.54159869,13.28125 4.29102773,13.28125 3.82120718,13.15625 C3.4766721,13.0625 3.19477977,13 2.88156607,13 C2.72495922,13 2.56835237,12.96875 2.47438825,12.96875 C0.783034258,12.96875 0.281892333,14.4375 0.281892333,15.34375 C0.281892333,16.9375 1.03360522,18.625 3.03817292,18.59375 C3.63327896,18.59375 4.98009788,18.25 4.98009788,17 C4.98009788,16.96875 4.8548124,16.25 4.51027732,16.25 L4.25970636,16.25 C4.29102773,16.46875 4.44763458,16.8125 4.44763458,16.9375 C4.44763458,17.75 3.35138662,18.1875 2.8502447,18.1875 C1.75399674,18.1875 0.751712887,17.53125 0.751712887,16.1875 C0.751712887,15.4375 1.12756933,14.6875 2.0045677,14.6875 C2.75628059,14.6875 3.6959217,15.15625 4.44763458,15.15625 C6.07634584,15.09375 6.45220228,13.96875 6.48352365,11.6875 Z"></path>
                            <path d="M1.75399674,4.21875 L1.78531811,4.1875 C1.4721044,3.9375 1.31549755,3.625 1.31549755,3.40625 C1.31549755,2.84375 1.78531811,2.25 2.66231648,2.25 C2.81892333,2.25 3.28874388,2.34375 3.88384992,2.46875 C4.13442088,2.53125 4.41631321,2.59375 4.47895595,2.59375 C5.19934747,2.625 6.35823817,1.84375 7.04730832,1.0625 L7.07862969,1.03125 L7.04730832,1.03125 C6.42088091,1.03125 5.95106036,0.84375 5.4812398,0.65625 C5.01141925,0.46875 4.51027732,0.28125 3.88384992,0.28125 C2.47438825,0.28125 0.876998369,1.375 0.876998369,2.8125 C0.908319739,3.0625 1.19021207,3.9375 1.75399674,4.21875 Z"></path>
                            <path d="M16.2871126,13.28125 C16.2871126,13.28125 16.067863,13.46875 15.9425775,13.4375 C15.9112561,13.4375 15.817292,13.40625 15.7233279,13.34375 C15.4101142,13.15625 15.0969005,12.71875 15.0969005,12.09375 L15.0969005,3.1875 C15.0969005,2.65625 15.3161501,2.3125 15.4414356,2.125 L15.4414356,2.09375 C15.222186,1.90625 14.9402936,1.6875 14.6584013,1.4375 C14.125938,1 13.4368679,0.4375 13.02969,0.15625 C13.02969,0.15625 10.993801,1.8125 10.8371941,1.90625 L9.89755302,1.15625 C9.52169657,0.84375 8.92659054,0.34375 8.76998369,0.21875 C8.48809135,0.375 4.22838499,4 4.22838499,4 L4.22838499,7 L4.10309951,7 C1.72267537,7.3125 1.56606852,9.125 1.56606852,9.6875 C1.56606852,9.75 1.62871126,10.03125 1.691354,10.25 L1.691354,10.3125 L1.72267537,10.25 C1.87928222,9.9375 2.09853181,9.6875 2.38042414,9.46875 C2.66231648,9.28125 2.97553018,9.125 3.32006525,9.09375 C4.07177814,9 4.13442088,9.03125 4.19706362,9.09375 L4.22838499,9.125 L4.22838499,12.34375 C4.22838499,12.65625 4.16574225,12.8125 4.07177814,12.96875 C4.88613377,12.5625 5.85709625,11.71875 6.13898858,11.1875 C6.48352365,10.5 6.45220228,10.53125 6.45220228,9.09375 L6.45220228,8.9375 L8.42544861,8.9375 L8.42544861,12.6875 L7.73637847,13.40625 L10.0854812,14.96875 L12.2779772,13.375 L11.9647635,13.1875 C11.9647635,13.1875 11.8707993,13.25 11.839478,13.28125 C11.7768352,13.34375 11.7141925,13.375 11.6202284,13.375 C11.4009788,13.375 10.7119086,12.78125 10.6492659,12.65625 L10.6492659,8.96875 L12.8104405,8.96875 L12.8104405,12.5 C12.8104405,12.75 12.8104405,13.15625 13.0923328,13.78125 C13.1549755,13.90625 13.8440457,14.78125 14.3451876,15.03125 C14.5644372,14.90625 16.5376835,13.4375 16.5376835,13.4375 L16.2871126,13.28125 Z M8.42544861,6.9375 L6.45220228,6.9375 L6.45220228,2.875 L7.26655791,2.1875 C7.26655791,2.1875 8.39412724,3.15625 8.42544861,3.15625 L8.42544861,6.9375 Z M12.8730832,6.9375 L10.6805873,6.9375 L10.6805873,2.8125 L11.4636215,2.1875 L12.8730832,3.53125 L12.8730832,6.9375 Z"></path>
                        </g>
                    </g>
                </g>
            </g>
        </g>
    </g>
</svg>