<?xml version="1.0" encoding="UTF-8"?>
<svg width="87px" height="23px" viewBox="0 0 87 23" version="1.1" xmlns="http://www.w3.org/2000/svg" xmlns:xlink="http://www.w3.org/1999/xlink">
    <!-- Generator: Sketch 43.1 (39012) - http://www.bohemiancoding.com/sketch -->
    <title>Suncorp-HOR</title>
    <desc>Created with Sketch.</desc>
    <defs></defs>
    <g id="Symbols" stroke="none" stroke-width="1" fill="none" fill-rule="evenodd">
        <g id="LOGO/Suncorp-HOR-WHITE" transform="translate(-5.000000, -4.000000)" fill="#FFFFFF">
            <g id="Suncorp-HOR">
                <path d="M79.5467007,4.46904255 C78.9975658,4.47542553 78.4586414,4.52106383 77.9312039,4.59957447 L79.7225132,12.9759574 L81.6408158,4.62670213 C80.9602204,4.5137234 80.2588849,4.45946809 79.5467007,4.46904255" id="Fill-4"></path>
                <path d="M81.6440066,4.62734043 L80.7620724,13.1476596 L85.1656809,5.80148936 C84.0782599,5.23659574 82.8932007,4.83414894 81.6440066,4.62734043" id="Fill-5"></path>
                <path d="M90.3181678,11.0297872 C89.7569079,9.91180851 89.0246217,8.89340426 88.1548125,8.01223404 L82.4401086,14.3865957 L90.3181678,11.0297872" id="Fill-6"></path>
                <path d="M74.3878322,5.71787234 L78.6816776,13.1339362 L77.9276941,4.59957447 C76.6714803,4.78755319 75.4806776,5.17021277 74.3878322,5.71787234" id="Fill-7"></path>
                <path d="M91.4422829,14.5755319 C91.2533882,13.3190426 90.8682599,12.1276596 90.3188059,11.0323404 L82.9110691,15.33 L91.4422829,14.5755319" id="Fill-8"></path>
                <path d="M85.1685526,5.80276596 L81.6995263,13.6356383 L88.1525789,8.00968085 C87.2830888,7.12723404 86.2770329,6.37946809 85.1685526,5.80276596" id="Fill-9"></path>
                <path d="M71.3645592,7.88074468 L77.7372039,13.6046809 L74.3862368,5.71851064 C73.2662697,6.27893617 72.2477697,7.01202128 71.3645592,7.88074468" id="Fill-10"></path>
                <path d="M90.2450987,21.8269149 C90.812102,20.7376596 91.2131842,19.5504255 91.4180329,18.297766 L82.8951151,17.4143617 L90.2450987,21.8269149" id="Fill-11"></path>
                <path d="M91.4422829,14.5787234 L83.0674178,16.373617 L91.4180329,18.2952128 C91.5290724,17.6176596 91.5829967,16.9196809 91.5747007,16.2108511 C91.5676809,15.6555319 91.5210954,15.1120213 91.4422829,14.5787234" id="Fill-12"></path>
                <path d="M88.0399441,24.8221277 C88.9234737,23.9498936 89.6701184,22.9401064 90.2450987,21.8288298 L82.4088388,18.3507447 L88.0399441,24.8221277" id="Fill-13"></path>
                <path d="M85.4136053,26.7832979 C86.3775428,26.252234 87.2613914,25.5915957 88.0386678,24.8221277 L81.7065461,19.1352128 C83.4324441,21.4809574 84.6685559,24.0769149 85.4136053,26.7832979" id="Fill-14"></path>
                <path d="M69.3575526,10.4958511 C72.0521743,11.2784043 74.6392664,12.555 76.9726908,14.3294681 L71.3626447,7.88234043 C70.5799441,8.65404255 69.9038158,9.53297872 69.3575526,10.4958511" id="Fill-15"></path>
                <path d="M65.7264342,9.36861702 C65.7264342,9.36861702 64.9791513,15.1225532 70.4436974,18.8368085 C70.4436974,18.8368085 74.7598783,22.0397872 80.4784112,19.6037234 C76.9095132,14.676383 71.7283092,11.012234 65.7264342,9.36861702" id="Fill-16"></path>
                <path d="M22.6105724,15.3111702 C23.3208421,15.7206383 23.3147796,16.2721277 23.3147796,17.0364894 L23.3147796,22.5970213 C23.3147796,23.3588298 23.3208421,23.8665957 22.5962138,24.2885106 L22.5962138,24.366383 L25.0859868,24.366383 L25.0859868,24.2885106 C24.3939046,23.882234 24.3485954,23.3160638 24.3485954,22.5970213 L24.3485954,17.202766 C24.3508289,17.2640426 30.0731908,24.4656383 31.0875428,24.8080851 L31.0875428,16.9691489 C31.0875428,16.206383 31.0948816,15.722234 31.803875,15.3137234 L31.803875,15.2345745 L29.3259079,15.2345745 L29.3259079,15.3137234 C30.0218191,15.7065957 30.0661711,16.2469149 30.0661711,16.9691489 L30.0661711,21.9919149 C30.0661711,21.9335106 25.0492928,15.8792553 25.0492928,15.8792553 C25.0454638,15.8744681 24.694477,15.3951064 24.6418289,15.2345745 L22.6105724,15.2345745 L22.6105724,15.3111702" id="Fill-17"></path>
                <path d="M45.5239507,23.5554255 C43.3526184,23.5554255 42.0102533,21.5259574 42.0102533,19.647766 C42.0102533,17.5212766 43.4451513,16.0346809 45.4965099,16.0346809 C47.736125,16.0346809 48.9435197,18.0654255 48.9435197,19.9796809 C48.9435197,22.0828723 47.5386151,23.5554255 45.5239507,23.5554255 M49.1844243,16.4253191 C48.2536711,15.4994681 46.9779934,14.991383 45.5947862,15 C44.1541447,14.9652128 42.8127368,15.48 41.8188059,16.452766 C40.9011349,17.3489362 40.3957138,18.5301064 40.3957138,19.7735106 C40.3957138,22.5191489 42.5705559,24.5891489 45.4556678,24.5891489 C48.3168487,24.5891489 50.5564638,22.4438298 50.5564638,19.7026596 C50.5564638,18.4726596 50.0701875,17.3093617 49.1844243,16.4253191" id="Fill-18"></path>
                <path d="M10.9692961,21.8326596 C10.9692961,20.6862766 9.77913158,20.0310638 8.51653618,19.3375532 C7.08897697,18.5514894 5.61227961,17.7395745 5.61227961,16.1511702 C5.61227961,14.3910638 7.04622039,13.2532979 9.26286184,13.2532979 C10.3802763,13.2532979 11.1910559,13.4939362 11.8413388,13.733617 L11.8413388,15.6239362 C11.1814836,14.9039362 10.197125,14.4884043 9.11672368,14.4884043 C7.90007566,14.4884043 7.04845395,15.0848936 7.04845395,15.936383 C7.04845395,16.9496809 8.08322697,17.4817021 9.28200658,18.096383 L9.28455921,18.096383 C10.746898,18.848617 12.4041941,19.7007447 12.4041941,21.6520213 C12.4041941,23.3588298 10.9922697,24.5984043 9.04365461,24.5984043 C7.72617763,24.5984043 6.62918421,24.3890426 5.59441118,23.9444681 C5.56920395,23.8270213 5.46390789,23.301383 5.32032237,22.5839362 C5.32032237,22.5839362 5.21598355,22.0579787 5.17641776,21.8652128 C6.19332237,22.8293617 7.48782566,23.3610638 8.84486842,23.3610638 C10.2245658,23.3610638 10.9692961,22.5753191 10.9692961,21.8326596" id="Fill-19"></path>
                <path d="M40.3788026,22.5325532 C39.6844868,22.928617 38.6149342,23.4006383 37.4458289,23.4006383 C35.4566908,23.4006383 33.9608487,21.758617 33.9608487,19.5807447 C33.9608487,17.5908511 35.2792829,16.2003191 37.1691875,16.2003191 C38.0303816,16.2003191 38.9368849,16.4865957 39.7419211,17.0017021 L39.7419211,15.3785106 C38.7380987,15.1231915 37.9394441,15.0143617 37.2125822,15.0143617 C34.3466151,15.0143617 32.3440757,16.9761702 32.3440757,19.7865957 C32.3440757,22.7489362 34.3740559,24.5891489 37.6414243,24.5891489 C38.4388026,24.5891489 39.1417336,24.4480851 39.7310724,24.1707447 C39.7419211,24.1614894 40.4544243,22.5325532 40.4544243,22.5325532 L40.3788026,22.5325532" id="Fill-20"></path>
                <path d="M17.4418125,24.5996809 C18.7241908,24.5996809 19.8176743,24.2323404 20.3853158,23.6151064 C21.0968618,22.8351064 21.0955855,21.8830851 21.0930329,20.9304255 L21.0920757,16.9835106 C21.0825033,16.3764894 21.0681447,15.5435106 21.6858816,15.3137234 L21.6858816,15.2345745 L19.0895362,15.2345745 L19.0895362,15.3137234 C19.7040822,15.5460638 19.6906809,16.3905319 19.6836612,17.0061702 L19.6823849,20.9304255 C19.6823849,22.7010638 18.8881974,23.5841489 17.4418125,23.5841489 C15.9925559,23.5841489 15.1996447,22.7010638 15.1996447,20.9304255 L15.1996447,17.0061702 C15.1910296,16.3905319 15.1779474,15.5460638 15.7912171,15.3137234 L15.7912171,15.2345745 L13.1958289,15.2345745 L13.1958289,15.3137234 C13.8151612,15.5435106 13.79825,16.3764894 13.7899539,16.9835106 L13.7864441,20.9304255 C13.7864441,21.8830851 13.7864441,22.8351064 14.4967138,23.6151064 C15.0643553,24.2323404 16.1578388,24.5996809 17.4418125,24.5996809" id="Fill-21"></path>
                <path d="M62.3413257,15.2345745 L58.9842961,15.2345745 L58.9842961,15.3137234 C59.5962895,15.5581915 59.5832072,16.4039362 59.5771447,17.0208511 L59.5749112,22.6005319 C59.5771447,22.752766 59.5784211,22.9180851 59.5710822,23.0856383 C59.5710822,23.0856383 59.5918224,24.1614894 58.9986546,24.0440426 C58.7689178,23.9974468 58.2887039,23.6058511 58.0251447,23.3661702 C57.6668191,23.0425532 57.3400822,22.7167021 57.0860954,22.4007447 L55.1027007,19.9040426 C55.1987434,19.8826596 55.2944671,19.8523404 55.3905099,19.8191489 C56.3774211,19.5051064 57.2970066,18.6354255 57.2970066,17.4781915 C57.2970066,16.1151064 56.1674671,15.2345745 54.4179572,15.2345745 L51.1276151,15.2345745 L51.1276151,15.3137234 C51.7469474,15.5435106 51.7329079,16.3835106 51.7207829,16.9965957 L51.7207829,22.7096809 C51.7329079,23.322766 51.7469474,24.0702128 51.1276151,24.2885106 L51.1276151,24.366383 L53.7721414,24.366383 L53.7721414,24.2885106 C53.2131151,24.0906383 53.1662105,23.2975532 53.1662105,22.7096809 L53.1662105,16.167766 C53.4910329,16.1498936 53.5459145,16.148617 54.0873914,16.1317021 C54.6298257,16.1125532 55.0787697,16.2743617 55.4093355,16.5915957 C55.6971447,16.8651064 55.84775,17.2289362 55.84775,17.6447872 C55.84775,19.0369149 54.3640329,19.4693617 53.4798651,19.6011702 C53.4779507,19.6046809 53.4741217,19.6117021 53.4798651,19.6203191 C53.4779507,19.6203191 53.4811414,19.6203191 53.4798651,19.6225532 C53.4798651,19.6225532 54.2743717,20.8697872 54.7494803,21.5629787 C55.200977,22.2245745 56.0178191,23.1947872 56.4192204,23.6690426 C56.8276414,24.1707447 57.2791382,24.366383 58.0359934,24.366383 L61.7628355,24.366383 L61.7628355,24.2885106 C61.0563947,23.8873404 61.0241678,23.3435106 61.0241678,22.6005319 L61.0241678,16.3308511 C61.3269737,16.2960638 61.6422237,16.2673404 61.9689605,16.2673404 C62.6945461,16.2673404 63.9127895,16.4888298 63.9127895,17.9476596 C63.9127895,19.2405319 62.6878454,19.9867021 61.4673684,20.0575532 C61.4791743,20.0645745 61.4590724,20.0680851 61.4673684,20.0741489 C61.4590724,20.0751064 61.4791743,20.0751064 61.4673684,20.0776596 C61.5200164,20.1006383 61.5653257,20.1197872 61.6179737,20.1392553 C61.8493059,20.2311702 62.1294572,20.2908511 62.4670428,20.2908511 C63.9699046,20.2908511 65.5247763,19.3110638 65.5247763,17.672234 C65.5247763,16.1929787 64.274625,15.2345745 62.3413257,15.2345745" id="Fill-22"></path>
            </g>
        </g>
    </g>
</svg>