<?xml version="1.0" encoding="UTF-8"?>
<svg width="418px" height="113px" viewBox="0 0 418 113" version="1.1" xmlns="http://www.w3.org/2000/svg" xmlns:xlink="http://www.w3.org/1999/xlink">
    <!-- Generator: Sketch 43.1 (39012) - http://www.bohemiancoding.com/sketch -->
    <title>VOYAGES_Rev</title>
    <desc>Created with Sketch.</desc>
    <defs>
        <polygon id="path-1" points="416.939 112.94 0.06 112.94 0.06 0.602 208.4995 0.602 416.939 0.602"></polygon>
    </defs>
    <g id="Symbols" stroke="none" stroke-width="1" fill="none" fill-rule="evenodd">
        <g id="LOGO/VOYAGES_Rev">
            <g id="VOYAGES_Rev">
                <path d="M168.96,32.096 C169.596,31.007 169.941,30.142 169.941,29.508 C169.941,27.78 167.979,27.373 164.929,27.265 L165.451,25.015 L178.751,25.015 L178.236,27.265 C176.563,27.491 175.179,27.836 174.201,29.387 L151.799,65.966 L150.011,65.966 L141.716,29.387 C141.372,27.836 140.276,27.491 138.607,27.265 L139.125,25.015 L154.331,25.015 L153.813,27.265 C150.933,27.373 147.879,27.606 147.824,30.601 C147.824,31.007 147.879,31.523 147.998,32.037 L153.354,58.133 L168.96,32.096" id="Fill-1" fill="#FFFFFF"></path>
                <path d="M208.817,41.027 C208.817,33.368 205.989,27.435 199.656,27.435 C190.153,27.435 183.99,38.266 183.99,49.382 C183.99,57.044 186.818,63.027 193.148,63.027 C202.654,63.027 208.817,52.147 208.817,41.027 M178.001,49.615 C178.001,35.901 187.566,24.437 199.715,24.437 C209.68,24.437 214.806,31.522 214.806,40.798 C214.806,54.502 205.245,66.025 193.092,66.025 C183.135,66.025 178.001,58.884 178.001,49.615" id="Fill-2" fill="#FFFFFF"></path>
                <path d="M250.515,32.04 C251.551,30.774 252.069,29.856 252.069,29.216 C252.069,27.839 250.744,27.55 247.176,27.265 L247.69,25.014 L260.883,25.014 L260.368,27.265 C258.695,27.494 257.658,27.894 256.33,29.39 L239.514,49.149 L237.61,58.133 C237.378,59.051 237.267,59.861 237.267,60.261 C237.267,62.633 239.398,63.085 243.085,63.203 L242.626,65.444 L224.308,65.444 L224.77,63.203 C228.63,63.085 231.396,62.512 232.144,58.995 L234.216,49.204 L226.036,29.39 C225.402,27.894 224.593,27.494 222.923,27.265 L223.441,25.014 L238.592,25.014 L238.073,27.265 C234.905,27.265 232.255,27.432 232.199,29.741 C232.199,30.371 232.429,31.118 232.772,32.04 L238.362,46.498 L250.515,32.04" id="Fill-3" fill="#FFFFFF"></path>
                <path d="M268.887,49.549 L283.516,49.549 L279.892,31.756 L268.887,49.549 Z M284.093,52.37 L267.158,52.37 L263.476,58.364 C262.665,59.633 262.32,60.558 262.32,61.188 C262.32,62.738 264.049,63.083 267.332,63.201 L266.929,65.444 L253.973,65.444 L254.429,63.201 C256.157,62.968 257.427,62.687 258.4,61.072 L278.796,28.299 L277.815,24.494 L283.919,24.494 L291.756,61.072 C292.093,62.631 293.248,62.968 294.861,63.201 L294.462,65.444 L279.085,65.444 L279.485,63.201 C282.713,63.083 285.418,62.854 285.478,59.974 C285.478,59.518 285.418,58.992 285.363,58.422 L284.093,52.37 L284.093,52.37 Z" id="Fill-4" fill="#FFFFFF"></path>
                <path d="M325.561,24.437 C330.339,24.437 334.892,25.761 337.716,27.946 L335.984,36.537 L334.026,36.537 C333.515,30.081 330.398,27.264 325.213,27.264 C314.444,27.264 307.589,38.836 307.589,49.892 C307.589,58.657 312.257,63.144 318.652,63.144 C321.992,63.144 324.238,62.455 326.712,61.008 L328.614,53.36 C328.847,52.369 328.958,51.625 328.958,51.221 C328.958,48.856 327.407,48.401 323.714,48.286 L324.18,46.032 L340.596,46.032 L340.134,48.286 C336.276,48.401 334.892,48.974 334.026,52.484 L331.727,62.045 C327.407,64.531 323.369,66.024 318.42,66.024 C308.337,66.024 301.6,60.611 301.6,49.952 C301.6,36.648 312.201,24.437 325.561,24.437" id="Fill-5" fill="#FFFFFF"></path>
                <path d="M343.65,63.202 C347.449,63.084 349.633,62.514 350.385,58.994 L356.089,32.331 C356.259,31.465 356.374,30.603 356.374,30.195 C356.374,27.838 354.885,27.375 351.194,27.263 L351.65,25.013 L383.732,25.013 L381.663,34.633 L380.105,34.633 C379.016,29.622 378.49,27.664 373.771,27.664 L362.596,27.664 L359.254,43.444 L368.471,43.444 C371.062,43.444 372.501,41.722 373.826,38.265 L375.788,38.265 L373.017,51.28 L371.062,51.28 C371.062,47.76 370.491,46.094 367.897,46.094 L358.68,46.094 L356.203,57.905 C355.974,58.932 355.914,59.797 355.914,60.146 C355.914,62.281 357.413,62.799 361.038,62.799 L365.42,62.799 C370.603,62.799 372.731,61.126 377.746,55.081 L379.416,55.081 L375.496,65.443 L343.126,65.443 L343.65,63.202" id="Fill-6" fill="#FFFFFF"></path>
                <path d="M387.647,61.01 L389.146,51.455 L391.104,51.455 C391.678,58.933 395.135,63.26 401.068,63.26 C405.565,63.26 409.423,60.95 409.423,55.772 C409.423,51.74 407.058,49.671 401.416,46.558 C396.06,43.619 393.466,40.388 393.466,35.561 C393.466,28.646 398.71,24.438 405.739,24.438 C410.918,24.438 414.946,26.218 417.773,28.587 L416.16,36.997 L414.261,36.997 C413.568,30.886 411.093,27.21 405.677,27.21 C400.605,27.21 398.304,30.024 398.304,34.288 C398.304,37.686 400.15,39.758 404.755,42.186 C410.748,45.348 414.602,48.569 414.602,54.102 C414.602,62.046 407.576,66.025 400.95,66.025 C394.387,66.025 389.778,63.086 387.647,61.01" id="Fill-7" fill="#FFFFFF"></path>
                <path d="M143.125,87.326 C143.084,87.521 143.059,87.726 143.059,87.823 C143.059,88.369 143.407,88.481 144.266,88.505 L144.155,89.03 L140.085,89.03 L140.21,88.505 C141.098,88.481 141.605,88.349 141.776,87.521 L143.108,81.306 C143.149,81.104 143.177,80.903 143.177,80.808 C143.177,80.255 142.826,80.151 141.97,80.119 L142.078,79.602 L146.147,79.602 L146.022,80.119 C145.139,80.151 144.627,80.286 144.457,81.104 L143.125,87.326" id="Fill-8" fill="#FFFFFF"></path>
                <path d="M156.229,81.305 C156.27,81.103 156.294,80.904 156.294,80.807 C156.294,80.258 155.947,80.15 155.087,80.122 L155.199,79.6 L158.753,79.6 L158.635,80.122 C157.749,80.15 157.237,80.282 157.063,81.103 L155.401,89.03 L154.83,89.03 L150.709,81.575 L149.502,87.325 C149.457,87.524 149.432,87.729 149.432,87.823 C149.432,88.368 149.784,88.48 150.639,88.504 L150.531,89.03 L146.96,89.03 L147.085,88.504 C147.968,88.48 148.476,88.344 148.65,87.524 L150.076,80.887 C149.662,80.258 149.502,80.14 148.827,80.122 L148.952,79.6 L151.088,79.6 L155.032,86.918 L156.229,81.305" id="Fill-9" fill="#FFFFFF"></path>
                <path d="M163.891,80.216 L162.402,87.242 C162.347,87.486 162.336,87.677 162.336,87.764 C162.336,88.306 162.601,88.414 163.436,88.414 L163.512,88.414 C165.853,88.414 167.856,86.626 167.856,83.468 C167.856,81.733 167.157,80.216 164.816,80.216 L163.891,80.216 Z M159.47,88.504 C160.354,88.48 160.869,88.345 161.046,87.524 L162.375,81.305 C162.413,81.103 162.44,80.906 162.44,80.808 C162.44,80.258 162.093,80.151 161.23,80.122 L161.335,79.601 L165.035,79.601 C168.096,79.601 169.265,81.305 169.265,83.468 C169.265,86.679 166.688,89.03 163.366,89.03 L159.352,89.03 L159.47,88.504 L159.47,88.504 Z" id="Fill-10" fill="#FFFFFF"></path>
                <path d="M174.04,87.326 C173.998,87.521 173.974,87.726 173.974,87.823 C173.974,88.369 174.321,88.481 175.18,88.505 L175.069,89.03 L171,89.03 L171.125,88.505 C172.012,88.481 172.52,88.349 172.69,87.521 L174.022,81.306 C174.064,81.104 174.092,80.903 174.092,80.808 C174.092,80.255 173.74,80.151 172.885,80.119 L172.993,79.602 L177.062,79.602 L176.937,80.119 C176.053,80.151 175.542,80.286 175.372,81.104 L174.04,87.326" id="Fill-11" fill="#FFFFFF"></path>
                <path d="M184.189,79.466 C185.306,79.466 186.366,79.769 187.023,80.283 L186.62,82.287 L186.165,82.287 C186.046,80.782 185.319,80.12 184.112,80.12 C181.598,80.12 180.001,82.82 180.001,85.403 C180.001,87.445 181.09,88.492 182.575,88.492 C183.354,88.492 183.879,88.328 184.46,87.998 L184.898,86.21 C184.958,85.978 184.982,85.804 184.982,85.713 C184.982,85.163 184.617,85.056 183.761,85.028 L183.869,84.503 L187.695,84.503 L187.591,85.028 C186.686,85.056 186.366,85.188 186.165,86.009 L185.626,88.239 C184.617,88.816 183.674,89.163 182.526,89.163 C180.172,89.163 178.6,87.901 178.6,85.417 C178.6,82.312 181.073,79.466 184.189,79.466" id="Fill-12" fill="#FFFFFF"></path>
                <path d="M189.179,88.504 C190.065,88.48 190.577,88.345 190.751,87.524 L192.083,81.305 C192.125,81.103 192.149,80.904 192.149,80.808 C192.149,80.258 191.801,80.147 190.935,80.122 L191.043,79.601 L198.531,79.601 L198.048,81.841 L197.679,81.841 C197.425,80.672 197.307,80.216 196.205,80.216 L193.599,80.216 L192.82,83.896 L194.97,83.896 C195.571,83.896 195.912,83.499 196.218,82.689 L196.677,82.689 L196.03,85.726 L195.571,85.726 C195.571,84.908 195.436,84.519 194.834,84.519 L192.685,84.519 L192.111,87.27 C192.055,87.51 192.041,87.715 192.041,87.795 C192.041,88.292 192.393,88.414 193.238,88.414 L194.26,88.414 C195.467,88.414 195.964,88.025 197.133,86.613 L197.526,86.613 L196.608,89.03 L189.061,89.03 L189.179,88.504" id="Fill-13" fill="#FFFFFF"></path>
                <path d="M209.053,81.305 C209.095,81.103 209.12,80.904 209.12,80.807 C209.12,80.258 208.772,80.15 207.909,80.122 L208.017,79.6 L211.578,79.6 L211.457,80.122 C210.569,80.15 210.062,80.282 209.888,81.103 L208.219,89.03 L207.655,89.03 L203.527,81.575 L202.32,87.325 C202.282,87.524 202.254,87.729 202.254,87.823 C202.254,88.368 202.605,88.48 203.464,88.504 L203.353,89.03 L199.784,89.03 L199.902,88.504 C200.79,88.48 201.301,88.344 201.475,87.524 L202.897,80.887 C202.487,80.258 202.32,80.14 201.652,80.122 L201.77,79.6 L203.906,79.6 L207.857,86.918 L209.053,81.305" id="Fill-14" fill="#FFFFFF"></path>
                <path d="M220.003,83.334 C220.003,81.547 219.343,80.166 217.867,80.166 C215.648,80.166 214.212,82.691 214.212,85.278 C214.212,87.067 214.873,88.464 216.348,88.464 C218.566,88.464 220.003,85.926 220.003,83.334 M212.814,85.334 C212.814,82.138 215.047,79.467 217.885,79.467 C220.205,79.467 221.401,81.118 221.401,83.276 C221.401,86.482 219.168,89.167 216.337,89.167 C214.011,89.167 212.814,87.501 212.814,85.334" id="Fill-15" fill="#FFFFFF"></path>
                <path d="M231.776,81.305 C231.817,81.103 231.842,80.904 231.842,80.807 C231.842,80.258 231.494,80.15 230.632,80.122 L230.739,79.6 L234.301,79.6 L234.18,80.122 C233.292,80.15 232.784,80.282 232.61,81.103 L231.574,85.996 C231.105,88.223 229.543,89.165 227.745,89.165 C225.638,89.165 224.507,88.156 224.507,86.306 C224.507,86.007 224.549,85.687 224.618,85.336 L225.449,81.305 C225.487,81.103 225.512,80.904 225.512,80.807 C225.512,80.258 225.168,80.15 224.305,80.122 L224.413,79.6 L228.482,79.6 L228.364,80.122 C227.474,80.15 226.966,80.282 226.792,81.103 L225.859,85.471 C225.812,85.753 225.772,86.007 225.772,86.261 C225.772,87.513 226.493,88.358 227.843,88.358 C229.414,88.358 230.444,87.676 230.848,85.736 L231.776,81.305" id="Fill-16" fill="#FFFFFF"></path>
                <path d="M235.322,87.997 L235.67,85.764 L236.129,85.764 C236.265,87.514 237.068,88.523 238.456,88.523 C239.499,88.523 240.403,87.98 240.403,86.773 C240.403,85.834 239.848,85.347 238.536,84.627 C237.284,83.938 236.683,83.187 236.683,82.06 C236.683,80.449 237.906,79.465 239.545,79.465 C240.752,79.465 241.694,79.883 242.355,80.432 L241.976,82.394 L241.527,82.394 C241.374,80.971 240.793,80.109 239.527,80.109 C238.352,80.109 237.81,80.77 237.81,81.761 C237.81,82.554 238.244,83.041 239.315,83.608 C240.713,84.342 241.614,85.093 241.614,86.383 C241.614,88.24 239.973,89.162 238.428,89.162 C236.895,89.162 235.823,88.481 235.322,87.997" id="Fill-17" fill="#FFFFFF"></path>
                <path d="M258.513,79.602 L258.123,82.412 L257.695,82.412 C257.264,80.565 257.197,80.203 255.945,80.203 L255.01,80.203 L253.507,87.326 C253.448,87.538 253.438,87.727 253.438,87.823 C253.438,88.37 253.921,88.482 254.78,88.506 L254.673,89.03 L250.332,89.03 L250.437,88.506 C251.341,88.482 251.984,88.346 252.158,87.525 L253.72,80.203 L252.791,80.203 C251.542,80.203 251.313,80.565 250.105,82.412 L249.675,82.412 L250.495,79.602 L258.513,79.602" id="Fill-18" fill="#FFFFFF"></path>
                <path d="M267.201,83.334 C267.201,81.547 266.54,80.166 265.065,80.166 C262.843,80.166 261.41,82.691 261.41,85.278 C261.41,87.067 262.064,88.464 263.542,88.464 C265.765,88.464 267.201,85.926 267.201,83.334 M260.012,85.334 C260.012,82.138 262.238,79.467 265.076,79.467 C267.397,79.467 268.593,81.118 268.593,83.276 C268.593,86.482 266.366,89.167 263.532,89.167 C261.209,89.167 260.012,87.501 260.012,85.334" id="Fill-19" fill="#FFFFFF"></path>
                <path d="M278.969,81.305 C279.014,81.103 279.034,80.904 279.034,80.807 C279.034,80.258 278.687,80.15 277.827,80.122 L277.939,79.6 L281.493,79.6 L281.375,80.122 C280.488,80.15 279.977,80.282 279.803,81.103 L278.773,85.996 C278.297,88.223 276.742,89.165 274.94,89.165 C272.829,89.165 271.699,88.156 271.699,86.306 C271.699,86.007 271.741,85.687 271.811,85.336 L272.642,81.305 C272.68,81.103 272.711,80.904 272.711,80.807 C272.711,80.258 272.359,80.15 271.504,80.122 L271.608,79.6 L275.682,79.6 L275.557,80.122 C274.673,80.15 274.158,80.282 273.984,81.103 L273.059,85.471 C273.003,85.753 272.965,86.007 272.965,86.261 C272.965,87.513 273.692,88.358 275.034,88.358 C276.606,88.358 277.636,87.676 278.043,85.736 L278.969,81.305" id="Fill-20" fill="#FFFFFF"></path>
                <path d="M286.513,80.216 L285.66,84.236 L286.293,84.236 C288.029,84.236 289.291,83.559 289.291,81.924 C289.291,80.888 288.7,80.216 287.194,80.216 L286.513,80.216 Z M285.01,87.325 C284.969,87.524 284.94,87.729 284.94,87.823 C284.94,88.369 285.288,88.48 286.147,88.504 L286.039,89.03 L281.97,89.03 L282.092,88.504 C282.976,88.48 283.483,88.345 283.66,87.524 L284.992,81.305 C285.027,81.103 285.059,80.906 285.059,80.808 C285.059,80.258 284.707,80.151 283.852,80.122 L283.956,79.601 L287.747,79.601 C289.695,79.601 290.672,80.446 290.672,81.924 C290.672,83.586 289.274,84.519 287.466,84.706 L289.01,87.256 C289.545,88.132 289.789,88.494 290.714,88.504 L290.606,89.03 L288.794,89.03 C288.339,88.612 288.067,88.143 287.66,87.444 L286.175,84.824 L285.531,84.824 L285.01,87.325 L285.01,87.325 Z" id="Fill-21" fill="#FFFFFF"></path>
                <path d="M295.906,87.326 C295.864,87.521 295.84,87.726 295.84,87.823 C295.84,88.369 296.188,88.481 297.047,88.505 L296.936,89.03 L292.866,89.03 L292.991,88.505 C293.879,88.481 294.387,88.349 294.557,87.521 L295.889,81.306 C295.931,81.104 295.958,80.903 295.958,80.808 C295.958,80.255 295.607,80.151 294.752,80.119 L294.859,79.602 L298.929,79.602 L298.804,80.119 C297.917,80.151 297.409,80.286 297.238,81.104 L295.906,87.326" id="Fill-22" fill="#FFFFFF"></path>
                <path d="M300.292,87.997 L300.64,85.764 L301.1,85.764 C301.235,87.514 302.038,88.523 303.423,88.523 C304.47,88.523 305.374,87.98 305.374,86.773 C305.374,85.834 304.817,85.347 303.499,84.627 C302.254,83.938 301.652,83.187 301.652,82.06 C301.652,80.449 302.87,79.465 304.512,79.465 C305.722,79.465 306.657,79.883 307.318,80.432 L306.939,82.394 L306.497,82.394 C306.337,80.971 305.764,80.109 304.497,80.109 C303.314,80.109 302.779,80.77 302.779,81.761 C302.779,82.554 303.207,83.041 304.285,83.608 C305.677,84.342 306.581,85.093 306.581,86.383 C306.581,88.24 304.936,89.162 303.392,89.162 C301.864,89.162 300.79,88.481 300.292,87.997" id="Fill-23" fill="#FFFFFF"></path>
                <path d="M319.107,81.643 L314.687,89.03 L314.287,89.03 L312.916,81.549 L310.829,87.325 C310.75,87.541 310.726,87.715 310.726,87.862 C310.726,88.345 311.073,88.463 311.849,88.505 L311.762,89.03 L308.523,89.03 L308.632,88.505 C309.393,88.481 309.72,88.327 309.946,87.698 L312.43,80.915 C312.43,80.293 312.245,80.147 311.41,80.122 L311.528,79.601 L313.897,79.601 C313.897,79.855 313.897,80.081 313.949,80.353 L315.105,87.152 L319.107,80.353 C319.271,80.071 319.379,79.904 319.486,79.601 L321.887,79.601 L321.769,80.122 C320.863,80.147 320.575,80.391 320.426,81.1 L319.9,87.698 C319.845,88.327 320.099,88.481 320.863,88.505 L320.776,89.03 L317.038,89.03 L317.132,88.505 C317.977,88.481 318.571,88.321 318.669,87.325 L319.107,81.643" id="Fill-24" fill="#FFFFFF"></path>
                <path d="M330.75,85.324 L334.169,85.324 L333.324,81.172 L330.75,85.324 Z M334.302,85.979 L330.351,85.979 L329.484,87.376 C329.3,87.676 329.224,87.891 329.224,88.034 C329.224,88.396 329.62,88.483 330.389,88.507 L330.295,89.028 L327.272,89.028 L327.38,88.507 C327.787,88.455 328.075,88.389 328.309,88.01 L333.064,80.361 L332.837,79.478 L334.256,79.478 L336.086,88.01 C336.169,88.371 336.434,88.455 336.813,88.507 L336.715,89.028 L333.129,89.028 L333.224,88.507 C333.975,88.483 334.607,88.423 334.625,87.756 C334.625,87.648 334.607,87.523 334.597,87.394 L334.302,85.979 L334.302,85.979 Z" id="Fill-25" fill="#FFFFFF"></path>
                <path d="M346.972,81.305 C347.017,81.103 347.038,80.904 347.038,80.807 C347.038,80.258 346.69,80.15 345.831,80.122 L345.942,79.6 L349.497,79.6 L349.379,80.122 C348.492,80.15 347.98,80.282 347.807,81.103 L346.777,85.996 C346.301,88.223 344.746,89.165 342.944,89.165 C340.833,89.165 339.703,88.156 339.703,86.306 C339.703,86.007 339.744,85.687 339.814,85.336 L340.646,81.305 C340.684,81.103 340.715,80.904 340.715,80.807 C340.715,80.258 340.363,80.15 339.508,80.122 L339.612,79.6 L343.686,79.6 L343.56,80.122 C342.677,80.15 342.162,80.282 341.988,81.103 L341.063,85.471 C341.007,85.753 340.969,86.007 340.969,86.261 C340.969,87.513 341.695,88.358 343.038,88.358 C344.61,88.358 345.64,87.676 346.047,85.736 L346.972,81.305" id="Fill-26" fill="#FFFFFF"></path>
                <path d="M350.523,87.997 L350.871,85.764 L351.331,85.764 C351.467,87.514 352.27,88.523 353.654,88.523 C354.701,88.523 355.605,87.98 355.605,86.773 C355.605,85.834 355.049,85.347 353.73,84.627 C352.485,83.938 351.884,83.187 351.884,82.06 C351.884,80.449 353.101,79.465 354.742,79.465 C355.953,79.465 356.889,79.883 357.55,80.432 L357.17,82.394 L356.729,82.394 C356.568,80.971 355.995,80.109 354.729,80.109 C353.546,80.109 353.011,80.77 353.011,81.761 C353.011,82.554 353.439,83.041 354.517,83.608 C355.908,84.342 356.813,85.093 356.813,86.383 C356.813,88.24 355.167,89.162 353.623,89.162 C352.096,89.162 351.022,88.481 350.523,87.997" id="Fill-27" fill="#FFFFFF"></path>
                <path d="M368.95,79.602 L368.561,82.412 L368.133,82.412 C367.698,80.565 367.632,80.203 366.383,80.203 L365.444,80.203 L363.939,87.326 C363.886,87.538 363.868,87.727 363.868,87.823 C363.868,88.37 364.355,88.482 365.218,88.506 L365.104,89.03 L360.77,89.03 L360.874,88.506 C361.778,88.482 362.422,88.346 362.596,87.525 L364.153,80.203 L363.229,80.203 C361.977,80.203 361.75,80.565 360.536,82.412 L360.108,82.412 L360.926,79.602 L368.95,79.602" id="Fill-28" fill="#FFFFFF"></path>
                <path d="M374.272,80.216 L373.427,84.236 L374.061,84.236 C375.789,84.236 377.052,83.559 377.052,81.924 C377.052,80.888 376.46,80.216 374.961,80.216 L374.272,80.216 Z M372.77,87.325 C372.729,87.524 372.7,87.729 372.7,87.823 C372.7,88.369 373.048,88.48 373.911,88.504 L373.807,89.03 L369.733,89.03 L369.852,88.504 C370.735,88.48 371.25,88.345 371.428,87.524 L372.756,81.305 C372.794,81.103 372.822,80.906 372.822,80.808 C372.822,80.258 372.475,80.151 371.611,80.122 L371.716,79.601 L375.507,79.601 C377.458,79.601 378.439,80.446 378.439,81.924 C378.439,83.586 377.041,84.519 375.226,84.706 L376.77,87.256 C377.313,88.132 377.549,88.494 378.478,88.504 L378.373,89.03 L376.554,89.03 C376.099,88.612 375.827,88.143 375.427,87.444 L373.935,84.824 L373.292,84.824 L372.77,87.325 L372.77,87.325 Z" id="Fill-29" fill="#FFFFFF"></path>
                <path d="M383.367,85.324 L386.786,85.324 L385.94,81.172 L383.367,85.324 Z M386.918,85.979 L382.967,85.979 L382.101,87.376 C381.916,87.676 381.84,87.891 381.84,88.034 C381.84,88.396 382.236,88.483 383.005,88.507 L382.911,89.028 L379.889,89.028 L379.996,88.507 C380.403,88.455 380.692,88.389 380.925,88.01 L385.68,80.361 L385.454,79.478 L386.873,79.478 L388.702,88.01 C388.786,88.371 389.05,88.455 389.429,88.507 L389.332,89.028 L385.746,89.028 L385.84,88.507 C386.591,88.483 387.224,88.423 387.241,87.756 C387.241,87.648 387.224,87.523 387.214,87.394 L386.918,85.979 L386.918,85.979 Z" id="Fill-30" fill="#FFFFFF"></path>
                <path d="M394.311,87.326 C394.27,87.521 394.245,87.688 394.245,87.781 C394.245,88.28 394.61,88.415 395.455,88.415 L396.109,88.415 C397.333,88.415 397.887,87.806 398.943,86.415 L399.393,86.415 L398.412,89.03 L391.278,89.03 L391.397,88.505 C392.283,88.481 392.795,88.349 392.969,87.521 L394.301,81.306 C394.339,81.104 394.37,80.903 394.37,80.808 C394.37,80.255 394.016,80.151 393.156,80.119 L393.264,79.602 L397.333,79.602 L397.215,80.119 C396.328,80.151 395.814,80.286 395.644,81.104 L394.311,87.326" id="Fill-31" fill="#FFFFFF"></path>
                <path d="M404.342,87.326 C404.3,87.521 404.275,87.726 404.275,87.823 C404.275,88.369 404.623,88.481 405.482,88.505 L405.371,89.03 L401.302,89.03 L401.427,88.505 C402.314,88.481 402.821,88.349 402.992,87.521 L404.324,81.306 C404.365,81.104 404.394,80.903 404.394,80.808 C404.394,80.255 404.042,80.151 403.187,80.119 L403.294,79.602 L407.364,79.602 L407.238,80.119 C406.352,80.151 405.844,80.286 405.674,81.104 L404.342,87.326" id="Fill-32" fill="#FFFFFF"></path>
                <g id="Group-36">
                    <mask id="mask-2" fill="white">
                        <use xlink:href="#path-1"></use>
                    </mask>
                    <g id="Clip-34"></g>
                    <path d="M410.876,85.324 L414.288,85.324 L413.442,81.172 L410.876,85.324 Z M414.424,85.979 L410.469,85.979 L409.61,87.376 C409.426,87.676 409.342,87.891 409.342,88.034 C409.342,88.396 409.746,88.483 410.515,88.507 L410.42,89.028 L407.398,89.028 L407.506,88.507 C407.905,88.455 408.201,88.389 408.428,88.01 L413.189,80.361 L412.956,79.478 L414.382,79.478 L416.211,88.01 C416.288,88.371 416.56,88.455 416.939,88.507 L416.841,89.028 L413.255,89.028 L413.346,88.507 C414.101,88.483 414.733,88.423 414.744,87.756 C414.744,87.648 414.733,87.523 414.716,87.394 L414.424,85.979 L414.424,85.979 Z" id="Fill-33" fill="#FFFFFF" mask="url(#mask-2)"></path>
                    <path d="M56.202,0.602 C87.24,0.602 112.401,25.762 112.401,56.801 C112.401,87.839 87.24,112.999 56.202,112.999 C25.167,112.999 0,87.839 0,56.801 C0,25.762 25.167,0.602 56.202,0.602 Z" id="Fill-35" fill="#D8262C" mask="url(#mask-2)"></path>
                </g>
                <path d="M71.928,27.236 C70.784,27.236 69.865,26.315 69.865,25.174 C69.865,24.036 70.784,23.104 71.928,23.104 C73.072,23.104 73.99,24.036 73.99,25.174 C73.99,26.315 73.072,27.236 71.928,27.236" id="Fill-37" fill="#F9C723"></path>
                <path d="M67.062,27.433 C66.081,27.433 65.285,26.637 65.285,25.659 C65.285,24.686 66.081,23.885 67.062,23.885 C68.029,23.885 68.826,24.686 68.826,25.659 C68.826,26.637 68.029,27.433 67.062,27.433" id="Fill-38" fill="#F9C723"></path>
                <path d="M62.562,29.097 C61.686,29.097 60.962,28.384 60.962,27.5 C60.962,26.617 61.686,25.904 62.562,25.904 C63.449,25.904 64.163,26.617 64.163,27.5 C64.163,28.384 63.449,29.097 62.562,29.097" id="Fill-39" fill="#F9C723"></path>
                <path d="M43.471,43.491 C42.264,43.491 41.294,42.514 41.294,41.31 C41.294,40.114 42.264,39.144 43.471,39.144 C44.668,39.144 45.638,40.114 45.638,41.31 C45.638,42.514 44.668,43.491 43.471,43.491" id="Fill-40" fill="#F9C723"></path>
                <path d="M44.232,36.799 C42.806,36.799 41.648,35.64 41.648,34.215 C41.648,32.788 42.806,31.63 44.232,31.63 C45.662,31.63 46.816,32.788 46.816,34.215 C46.816,35.64 45.662,36.799 44.232,36.799" id="Fill-41" fill="#F9C723"></path>
                <path d="M46.801,30.391 C45.229,30.391 43.956,29.115 43.956,27.542 C43.956,25.963 45.229,24.683 46.801,24.683 C48.38,24.683 49.663,25.963 49.663,27.542 C49.663,29.115 48.38,30.391 46.801,30.391" id="Fill-42" fill="#F9C723"></path>
                <path d="M51.123,24.769 C49.38,24.769 47.971,23.365 47.971,21.618 C47.971,19.882 49.38,18.478 51.123,18.478 C52.858,18.478 54.27,19.882 54.27,21.618 C54.27,23.365 52.858,24.769 51.123,24.769" id="Fill-43" fill="#F9C723"></path>
                <path d="M56.758,19.881 C55.179,19.881 53.899,18.605 53.899,17.032 C53.899,15.453 55.179,14.174 56.758,14.174 C58.334,14.174 59.61,15.453 59.61,17.032 C59.61,18.605 58.334,19.881 56.758,19.881" id="Fill-44" fill="#F9C723"></path>
                <path d="M62.743,16.275 C61.317,16.275 60.159,15.117 60.159,13.691 C60.159,12.265 61.317,11.103 62.743,11.103 C64.162,11.103 65.331,12.265 65.331,13.691 C65.331,15.117 64.162,16.275 62.743,16.275" id="Fill-45" fill="#F9C723"></path>
                <path d="M47.853,70.053 C46.893,70.053 46.11,69.278 46.11,68.318 C46.11,67.355 46.893,66.582 47.853,66.582 C48.812,66.582 49.591,67.355 49.591,68.318 C49.591,69.278 48.812,70.053 47.853,70.053" id="Fill-46" fill="#FFFFFF"></path>
                <path d="M43.407,64.57 C42.196,64.57 41.226,63.6 41.226,62.397 C41.226,61.203 42.196,60.226 43.407,60.226 C44.592,60.226 45.573,61.203 45.573,62.397 C45.573,63.6 44.592,64.57 43.407,64.57" id="Fill-47" fill="#FFFFFF"></path>
                <path d="M38.941,58.295 C37.442,58.295 36.228,57.081 36.228,55.586 C36.228,54.08 37.442,52.862 38.941,52.862 C40.444,52.862 41.665,54.08 41.665,55.586 C41.665,57.081 40.444,58.295 38.941,58.295" id="Fill-48" fill="#FFFFFF"></path>
                <path d="M36.158,50.506 C34.287,50.506 32.757,48.986 32.757,47.104 C32.757,45.233 34.287,43.709 36.158,43.709 C38.037,43.709 39.56,45.233 39.56,47.104 C39.56,48.986 38.037,50.506 36.158,50.506" id="Fill-49" fill="#FFFFFF"></path>
                <path d="M35.809,41.735 C33.729,41.735 32.045,40.055 32.045,37.975 C32.045,35.902 33.729,34.219 35.809,34.219 C37.885,34.219 39.568,35.902 39.568,37.975 C39.568,40.055 37.885,41.735 35.809,41.735" id="Fill-50" fill="#FFFFFF"></path>
                <path d="M37.935,32.51 C35.757,32.51 33.98,30.744 33.98,28.563 C33.98,26.382 35.757,24.615 37.935,24.615 C40.115,24.615 41.876,26.382 41.876,28.563 C41.876,30.744 40.115,32.51 37.935,32.51" id="Fill-51" fill="#FFFFFF"></path>
                <path d="M42.281,23.365 C40.205,23.365 38.515,21.685 38.515,19.606 C38.515,17.529 40.205,15.849 42.281,15.849 C44.358,15.849 46.042,17.529 46.042,19.606 C46.042,21.685 44.358,23.365 42.281,23.365" id="Fill-52" fill="#FFFFFF"></path>
                <path d="M48.89,16.27 C47.015,16.27 45.488,14.75 45.488,12.868 C45.488,10.997 47.015,9.473 48.89,9.473 C50.764,9.473 52.292,10.997 52.292,12.868 C52.292,14.75 50.764,16.27 48.89,16.27" id="Fill-53" fill="#FFFFFF"></path>
                <path d="M56.208,10.978 C54.706,10.978 53.492,9.764 53.492,8.265 C53.492,6.759 54.706,5.546 56.208,5.546 C57.714,5.546 58.935,6.759 58.935,8.265 C58.935,9.764 57.714,10.978 56.208,10.978" id="Fill-54" fill="#FFFFFF"></path>
                <path d="M62.464,24.276 C61.038,24.276 59.876,23.118 59.876,21.689 C59.876,20.266 61.038,19.108 62.464,19.108 C63.886,19.108 65.045,20.266 65.045,21.689 C65.045,23.118 63.886,24.276 62.464,24.276" id="Fill-55" fill="#0A0A08"></path>
                <path d="M57.102,27.414 C55.898,27.414 54.932,26.447 54.932,25.24 C54.932,24.044 55.898,23.07 57.102,23.07 C58.305,23.07 59.276,24.044 59.276,25.24 C59.276,26.447 58.305,27.414 57.102,27.414" id="Fill-56" fill="#0A0A08"></path>
                <path d="M68.24,21.296 C67.044,21.296 66.063,20.316 66.063,19.119 C66.063,17.916 67.044,16.949 68.24,16.949 C69.441,16.949 70.418,17.916 70.418,19.119 C70.418,20.316 69.441,21.296 68.24,21.296" id="Fill-57" fill="#0A0A08"></path>
                <path d="M53.07,32.04 C51.933,32.04 51.001,31.115 51.001,29.974 C51.001,28.837 51.933,27.904 53.07,27.904 C54.215,27.904 55.136,28.837 55.136,29.974 C55.136,31.115 54.215,32.04 53.07,32.04" id="Fill-58" fill="#0A0A08"></path>
                <path d="M40.466,86.367 C41.607,86.367 42.525,87.289 42.525,88.431 C42.525,89.568 41.607,90.496 40.466,90.496 C39.322,90.496 38.393,89.568 38.393,88.431 C38.393,87.289 39.322,86.367 40.466,86.367" id="Fill-59" fill="#F9C723"></path>
                <path d="M45.335,86.176 C46.312,86.176 47.102,86.965 47.102,87.946 C47.102,88.92 46.312,89.717 45.335,89.717 C44.357,89.717 43.567,88.92 43.567,87.946 C43.567,86.965 44.357,86.176 45.335,86.176" id="Fill-60" fill="#F9C723"></path>
                <path d="M49.826,84.507 C50.709,84.507 51.422,85.227 51.422,86.108 C51.422,86.988 50.709,87.703 49.826,87.703 C48.939,87.703 48.226,86.988 48.226,86.108 C48.226,85.227 48.939,84.507 49.826,84.507" id="Fill-61" fill="#F9C723"></path>
                <path d="M68.922,70.11 C70.119,70.11 71.1,71.083 71.1,72.283 C71.1,73.49 70.119,74.464 68.922,74.464 C67.719,74.464 66.745,73.49 66.745,72.283 C66.745,71.083 67.719,70.11 68.922,70.11" id="Fill-62" fill="#F9C723"></path>
                <path d="M68.156,76.805 C69.578,76.805 70.74,77.96 70.74,79.386 C70.74,80.816 69.578,81.97 68.156,81.97 C66.726,81.97 65.568,80.816 65.568,79.386 C65.568,77.96 66.726,76.805 68.156,76.805" id="Fill-63" fill="#F9C723"></path>
                <path d="M65.582,83.21 C67.157,83.21 68.434,84.484 68.434,86.062 C68.434,87.641 67.157,88.925 65.582,88.925 C64.01,88.925 62.733,87.641 62.733,86.062 C62.733,84.484 64.01,83.21 65.582,83.21" id="Fill-64" fill="#F9C723"></path>
                <path d="M61.274,88.831 C63.006,88.831 64.419,90.24 64.419,91.983 C64.419,93.719 63.006,95.127 61.274,95.127 C59.532,95.127 58.116,93.719 58.116,91.983 C58.116,90.24 59.532,88.831 61.274,88.831" id="Fill-65" fill="#F9C723"></path>
                <path d="M55.63,93.723 C57.212,93.723 58.485,94.995 58.485,96.571 C58.485,98.147 57.212,99.427 55.63,99.427 C54.051,99.427 52.774,98.147 52.774,96.571 C52.774,94.995 54.051,93.723 55.63,93.723" id="Fill-66" fill="#F9C723"></path>
                <path d="M49.651,97.331 C51.073,97.331 52.232,98.489 52.232,99.919 C52.232,101.338 51.073,102.496 49.651,102.496 C48.218,102.496 47.063,101.338 47.063,99.919 C47.063,98.489 48.218,97.331 49.651,97.331" id="Fill-67" fill="#F9C723"></path>
                <path d="M64.536,43.548 C65.499,43.548 66.275,44.331 66.275,45.291 C66.275,46.247 65.499,47.023 64.536,47.023 C63.572,47.023 62.797,46.247 62.797,45.291 C62.797,44.331 63.572,43.548 64.536,43.548" id="Fill-68" fill="#FFFFFF"></path>
                <path d="M68.99,49.031 C70.194,49.031 71.168,50.002 71.168,51.194 C71.168,52.402 70.194,53.379 68.99,53.379 C67.794,53.379 66.813,52.402 66.813,51.194 C66.813,50.002 67.794,49.031 68.99,49.031" id="Fill-69" fill="#FFFFFF"></path>
                <path d="M73.444,55.306 C74.947,55.306 76.168,56.524 76.168,58.027 C76.168,59.522 74.947,60.74 73.444,60.74 C71.942,60.74 70.735,59.522 70.735,58.027 C70.735,56.524 71.942,55.306 73.444,55.306" id="Fill-70" fill="#FFFFFF"></path>
                <path d="M76.235,63.099 C78.11,63.099 79.63,64.618 79.63,66.496 C79.63,68.371 78.11,69.895 76.235,69.895 C74.357,69.895 72.833,68.371 72.833,66.496 C72.833,64.618 74.357,63.099 76.235,63.099" id="Fill-71" fill="#FFFFFF"></path>
                <path d="M76.585,71.866 C78.662,71.866 80.341,73.549 80.341,75.629 C80.341,77.705 78.662,79.389 76.585,79.389 C74.505,79.389 72.818,77.705 72.818,75.629 C72.818,73.549 74.505,71.866 76.585,71.866" id="Fill-72" fill="#FFFFFF"></path>
                <path d="M74.46,81.093 C76.64,81.093 78.4,82.857 78.4,85.041 C78.4,87.222 76.64,88.985 74.46,88.985 C72.278,88.985 70.505,87.222 70.505,85.041 C70.505,82.857 72.278,81.093 74.46,81.093" id="Fill-73" fill="#FFFFFF"></path>
                <path d="M70.112,90.238 C72.189,90.238 73.872,91.918 73.872,93.998 C73.872,96.074 72.189,97.758 70.112,97.758 C68.028,97.758 66.345,96.074 66.345,93.998 C66.345,91.918 68.028,90.238 70.112,90.238" id="Fill-74" fill="#FFFFFF"></path>
                <path d="M63.493,97.331 C65.368,97.331 66.898,98.861 66.898,100.737 C66.898,102.608 65.368,104.128 63.493,104.128 C61.622,104.128 60.095,102.608 60.095,100.737 C60.095,98.861 61.622,97.331 63.493,97.331" id="Fill-75" fill="#FFFFFF"></path>
                <path d="M56.171,102.622 C57.674,102.622 58.888,103.84 58.888,105.339 C58.888,106.842 57.674,108.063 56.171,108.063 C54.669,108.063 53.459,106.842 53.459,105.339 C53.459,103.84 54.669,102.622 56.171,102.622" id="Fill-76" fill="#FFFFFF"></path>
                <path d="M49.927,89.324 C51.353,89.324 52.512,90.486 52.512,91.912 C52.512,93.342 51.353,94.493 49.927,94.493 C48.502,94.493 47.343,93.342 47.343,91.912 C47.343,90.486 48.502,89.324 49.927,89.324" id="Fill-77" fill="#0A0A08"></path>
                <path d="M55.278,86.188 C56.482,86.188 57.458,87.157 57.458,88.361 C57.458,89.558 56.482,90.542 55.278,90.542 C54.082,90.542 53.111,89.558 53.111,88.361 C53.111,87.157 54.082,86.188 55.278,86.188" id="Fill-78" fill="#0A0A08"></path>
                <path d="M44.148,92.311 C45.351,92.311 46.325,93.288 46.325,94.491 C46.325,95.688 45.351,96.665 44.148,96.665 C42.951,96.665 41.971,95.688 41.971,94.491 C41.971,93.288 42.951,92.311 44.148,92.311" id="Fill-79" fill="#0A0A08"></path>
                <path d="M59.315,81.561 C60.456,81.561 61.384,82.486 61.384,83.63 C61.384,84.764 60.456,85.696 59.315,85.696 C58.185,85.696 57.253,84.764 57.253,83.63 C57.253,82.486 58.185,81.561 59.315,81.561" id="Fill-80" fill="#0A0A08"></path>
                <path d="M85.767,72.532 C85.767,71.387 86.692,70.462 87.829,70.462 C88.97,70.462 89.898,71.387 89.898,72.532 C89.898,73.676 88.97,74.594 87.829,74.594 C86.692,74.594 85.767,73.676 85.767,72.532" id="Fill-81" fill="#F9C723"></path>
                <path d="M85.572,67.66 C85.572,66.679 86.362,65.89 87.346,65.89 C88.316,65.89 89.116,66.679 89.116,67.66 C89.116,68.641 88.316,69.43 87.346,69.43 C86.362,69.43 85.572,68.641 85.572,67.66" id="Fill-82" fill="#F9C723"></path>
                <path d="M83.906,63.166 C83.906,62.282 84.619,61.569 85.51,61.569 C86.383,61.569 87.099,62.282 87.099,63.166 C87.099,64.053 86.383,64.766 85.51,64.766 C84.619,64.766 83.906,64.053 83.906,63.166" id="Fill-83" fill="#F9C723"></path>
                <path d="M69.515,44.069 C69.515,42.873 70.485,41.899 71.685,41.899 C72.892,41.899 73.865,42.873 73.865,44.069 C73.865,45.269 72.892,46.246 71.685,46.246 C70.485,46.246 69.515,45.269 69.515,44.069" id="Fill-84" fill="#F9C723"></path>
                <path d="M76.205,44.836 C76.205,43.414 77.359,42.252 78.785,42.252 C80.215,42.252 81.377,43.414 81.377,44.836 C81.377,46.262 80.215,47.417 78.785,47.417 C77.359,47.417 76.205,46.262 76.205,44.836" id="Fill-85" fill="#F9C723"></path>
                <path d="M82.615,47.407 C82.615,45.835 83.891,44.555 85.467,44.555 C87.039,44.555 88.319,45.835 88.319,47.407 C88.319,48.986 87.039,50.263 85.467,50.263 C83.891,50.263 82.615,48.986 82.615,47.407" id="Fill-86" fill="#F9C723"></path>
                <path d="M88.234,51.726 C88.234,49.987 89.635,48.579 91.381,48.579 C93.117,48.579 94.533,49.987 94.533,51.726 C94.533,53.462 93.117,54.87 91.381,54.87 C89.635,54.87 88.234,53.462 88.234,51.726" id="Fill-87" fill="#F9C723"></path>
                <path d="M93.12,57.361 C93.12,55.786 94.396,54.503 95.971,54.503 C97.547,54.503 98.834,55.786 98.834,57.361 C98.834,58.937 97.547,60.21 95.971,60.21 C94.396,60.21 93.12,58.937 93.12,57.361" id="Fill-88" fill="#F9C723"></path>
                <path d="M96.731,63.347 C96.731,61.921 97.893,60.759 99.315,60.759 C100.741,60.759 101.899,61.921 101.899,63.347 C101.899,64.77 100.741,65.935 99.315,65.935 C97.893,65.935 96.731,64.77 96.731,63.347" id="Fill-89" fill="#F9C723"></path>
                <path d="M42.95,48.453 C42.95,47.493 43.729,46.714 44.689,46.714 C45.656,46.714 46.421,47.493 46.421,48.453 C46.421,49.417 45.656,50.195 44.689,50.195 C43.729,50.195 42.95,49.417 42.95,48.453" id="Fill-90" fill="#FFFFFF"></path>
                <path d="M48.433,44.007 C48.433,42.8 49.403,41.826 50.604,41.826 C51.803,41.826 52.773,42.8 52.773,44.007 C52.773,45.203 51.803,46.181 50.604,46.181 C49.403,46.181 48.433,45.203 48.433,44.007" id="Fill-91" fill="#FFFFFF"></path>
                <path d="M54.709,39.545 C54.709,38.042 55.919,36.828 57.417,36.828 C58.927,36.828 60.145,38.042 60.145,39.545 C60.145,41.047 58.927,42.264 57.417,42.264 C55.919,42.264 54.709,41.047 54.709,39.545" id="Fill-92" fill="#FFFFFF"></path>
                <path d="M62.495,36.765 C62.495,34.89 64.022,33.36 65.9,33.36 C67.771,33.36 69.294,34.89 69.294,36.765 C69.294,38.64 67.771,40.163 65.9,40.163 C64.022,40.163 62.495,38.64 62.495,36.765" id="Fill-93" fill="#FFFFFF"></path>
                <path d="M71.263,36.41 C71.263,34.337 72.949,32.653 75.029,32.653 C77.109,32.653 78.782,34.337 78.782,36.41 C78.782,38.49 77.109,40.173 75.029,40.173 C72.949,40.173 71.263,38.49 71.263,36.41" id="Fill-94" fill="#FFFFFF"></path>
                <path d="M80.492,38.535 C80.492,36.355 82.259,34.588 84.44,34.588 C86.624,34.588 88.391,36.355 88.391,38.535 C88.391,40.716 86.624,42.486 84.44,42.486 C82.259,42.486 80.492,40.716 80.492,38.535" id="Fill-95" fill="#FFFFFF"></path>
                <path d="M89.638,42.88 C89.638,40.803 91.324,39.123 93.401,39.123 C95.474,39.123 97.157,40.803 97.157,42.88 C97.157,44.96 95.474,46.65 93.401,46.65 C91.324,46.65 89.638,44.96 89.638,42.88" id="Fill-96" fill="#FFFFFF"></path>
                <path d="M96.742,49.502 C96.742,47.62 98.262,46.097 100.14,46.097 C102.008,46.097 103.527,47.62 103.527,49.502 C103.527,51.37 102.008,52.893 100.14,52.893 C98.262,52.893 96.742,51.37 96.742,49.502" id="Fill-97" fill="#FFFFFF"></path>
                <path d="M102.028,56.82 C102.028,55.318 103.242,54.104 104.741,54.104 C106.243,54.104 107.46,55.318 107.46,56.82 C107.46,58.323 106.243,59.533 104.741,59.533 C103.242,59.533 102.028,58.323 102.028,56.82" id="Fill-98" fill="#FFFFFF"></path>
                <path d="M88.735,63.065 C88.735,61.642 89.887,60.484 91.309,60.484 C92.738,60.484 93.89,61.642 93.89,63.065 C93.89,64.494 92.738,65.649 91.309,65.649 C89.887,65.649 88.735,64.494 88.735,63.065" id="Fill-99" fill="#0A0A08"></path>
                <path d="M85.587,57.708 C85.587,56.511 86.557,55.538 87.76,55.538 C88.961,55.538 89.938,56.511 89.938,57.708 C89.938,58.905 88.961,59.882 87.76,59.882 C86.557,59.882 85.587,58.905 85.587,57.708" id="Fill-100" fill="#0A0A08"></path>
                <path d="M91.715,68.847 C91.715,67.647 92.686,66.666 93.892,66.666 C95.086,66.666 96.063,67.647 96.063,68.847 C96.063,70.043 95.086,71.014 93.892,71.014 C92.686,71.014 91.715,70.043 91.715,68.847" id="Fill-101" fill="#0A0A08"></path>
                <path d="M80.963,53.674 C80.963,52.534 81.885,51.609 83.025,51.609 C84.163,51.609 85.098,52.534 85.098,53.674 C85.098,54.815 84.163,55.737 83.025,55.737 C81.885,55.737 80.963,54.815 80.963,53.674" id="Fill-102" fill="#0A0A08"></path>
                <path d="M26.641,41.067 C26.641,42.211 25.716,43.13 24.575,43.13 C23.434,43.13 22.502,42.211 22.502,41.067 C22.502,39.923 23.434,38.998 24.575,38.998 C25.716,38.998 26.641,39.923 26.641,41.067" id="Fill-103" fill="#F9C723"></path>
                <path d="M26.833,45.936 C26.833,46.913 26.04,47.702 25.059,47.702 C24.078,47.702 23.292,46.913 23.292,45.936 C23.292,44.958 24.078,44.169 25.059,44.169 C26.04,44.169 26.833,44.958 26.833,45.936" id="Fill-104" fill="#F9C723"></path>
                <path d="M28.501,50.432 C28.501,51.319 27.782,52.032 26.895,52.032 C26.022,52.032 25.302,51.319 25.302,50.432 C25.302,49.545 26.022,48.829 26.895,48.829 C27.782,48.829 28.501,49.545 28.501,50.432" id="Fill-105" fill="#F9C723"></path>
                <path d="M42.893,69.527 C42.893,70.723 41.916,71.7 40.72,71.7 C39.516,71.7 38.539,70.723 38.539,69.527 C38.539,68.323 39.516,67.353 40.72,67.353 C41.916,67.353 42.893,68.323 42.893,69.527" id="Fill-106" fill="#F9C723"></path>
                <path d="M36.201,68.759 C36.201,70.186 35.042,71.347 33.613,71.347 C32.184,71.347 31.039,70.186 31.039,68.759 C31.039,67.337 32.184,66.175 33.613,66.175 C35.042,66.175 36.201,67.337 36.201,68.759" id="Fill-107" fill="#F9C723"></path>
                <path d="M29.793,66.186 C29.793,67.761 28.517,69.037 26.937,69.037 C25.355,69.037 24.086,67.761 24.086,66.186 C24.086,64.611 25.355,63.33 26.937,63.33 C28.517,63.33 29.793,64.611 29.793,66.186" id="Fill-108" fill="#F9C723"></path>
                <path d="M24.169,61.875 C24.169,63.611 22.764,65.023 21.028,65.023 C19.289,65.023 17.873,63.611 17.873,61.875 C17.873,60.132 19.289,58.724 21.028,58.724 C22.764,58.724 24.169,60.132 24.169,61.875" id="Fill-109" fill="#F9C723"></path>
                <path d="M19.289,56.236 C19.289,57.809 18.005,59.092 16.426,59.092 C14.855,59.092 13.574,57.809 13.574,56.236 C13.574,54.661 14.855,53.385 16.426,53.385 C18.005,53.385 19.289,54.661 19.289,56.236" id="Fill-110" fill="#F9C723"></path>
                <path d="M15.674,50.249 C15.674,51.678 14.516,52.837 13.087,52.837 C11.668,52.837 10.503,51.678 10.503,50.249 C10.503,48.826 11.668,47.668 13.087,47.668 C14.516,47.668 15.674,48.826 15.674,50.249" id="Fill-111" fill="#F9C723"></path>
                <path d="M69.458,65.142 C69.458,66.102 68.679,66.878 67.716,66.878 C66.753,66.878 65.977,66.102 65.977,65.142 C65.977,64.183 66.753,63.4 67.716,63.4 C68.679,63.4 69.458,64.183 69.458,65.142" id="Fill-112" fill="#FFFFFF"></path>
                <path d="M63.972,69.594 C63.972,70.797 62.998,71.775 61.795,71.775 C60.598,71.775 59.631,70.797 59.631,69.594 C59.631,68.398 60.598,67.416 61.795,67.416 C62.998,67.416 63.972,68.398 63.972,69.594" id="Fill-113" fill="#FFFFFF"></path>
                <path d="M57.702,74.051 C57.702,75.554 56.482,76.764 54.982,76.764 C53.483,76.764 52.259,75.554 52.259,74.051 C52.259,72.548 53.483,71.327 54.982,71.327 C56.482,71.327 57.702,72.548 57.702,74.051" id="Fill-114" fill="#FFFFFF"></path>
                <path d="M49.902,76.833 C49.902,78.708 48.382,80.235 46.511,80.235 C44.629,80.235 43.109,78.708 43.109,76.833 C43.109,74.959 44.629,73.436 46.511,73.436 C48.382,73.436 49.902,74.959 49.902,76.833" id="Fill-115" fill="#FFFFFF"></path>
                <path d="M41.137,77.186 C41.137,79.266 39.454,80.945 37.38,80.945 C35.304,80.945 33.617,79.266 33.617,77.186 C33.617,75.106 35.304,73.423 37.38,73.423 C39.454,73.423 41.137,75.106 41.137,77.186" id="Fill-116" fill="#FFFFFF"></path>
                <path d="M31.913,75.066 C31.913,77.242 30.146,79.01 27.965,79.01 C25.788,79.01 24.018,77.242 24.018,75.066 C24.018,72.878 25.788,71.111 27.965,71.111 C30.146,71.111 31.913,72.878 31.913,75.066" id="Fill-117" fill="#FFFFFF"></path>
                <path d="M22.762,70.713 C22.762,72.796 21.082,74.473 19.002,74.473 C16.929,74.473 15.246,72.796 15.246,70.713 C15.246,68.633 16.929,66.949 19.002,66.949 C21.082,66.949 22.762,68.633 22.762,70.713" id="Fill-118" fill="#FFFFFF"></path>
                <path d="M15.672,64.099 C15.672,65.978 14.145,67.504 12.267,67.504 C10.399,67.504 8.872,65.978 8.872,64.099 C8.872,62.228 10.399,60.704 12.267,60.704 C14.145,60.704 15.672,62.228 15.672,64.099" id="Fill-119" fill="#FFFFFF"></path>
                <path d="M10.378,56.778 C10.378,58.28 9.16,59.494 7.661,59.494 C6.159,59.494 4.941,58.28 4.941,56.778 C4.941,55.276 6.159,54.062 7.661,54.062 C9.16,54.062 10.378,55.276 10.378,56.778" id="Fill-120" fill="#FFFFFF"></path>
                <path d="M23.676,50.531 C23.676,51.957 22.514,53.108 21.091,53.108 C19.658,53.108 18.511,51.957 18.511,50.531 C18.511,49.098 19.658,47.947 21.091,47.947 C22.514,47.947 23.676,49.098 23.676,50.531" id="Fill-121" fill="#0A0A08"></path>
                <path d="M26.816,55.885 C26.816,57.084 25.842,58.065 24.646,58.065 C23.445,58.065 22.468,57.084 22.468,55.885 C22.468,54.688 23.445,53.711 24.646,53.711 C25.842,53.711 26.816,54.688 26.816,55.885" id="Fill-122" fill="#0A0A08"></path>
                <path d="M20.695,44.751 C20.695,45.955 19.722,46.928 18.518,46.928 C17.315,46.928 16.344,45.955 16.344,44.751 C16.344,43.548 17.315,42.577 18.518,42.577 C19.722,42.577 20.695,43.548 20.695,44.751" id="Fill-123" fill="#0A0A08"></path>
                <path d="M31.439,59.924 C31.439,61.065 30.511,61.986 29.373,61.986 C28.233,61.986 27.304,61.065 27.304,59.924 C27.304,58.78 28.233,57.858 29.373,57.858 C30.511,57.858 31.439,58.78 31.439,59.924" id="Fill-124" fill="#0A0A08"></path>
            </g>
        </g>
    </g>
</svg>