<svg xmlns="http://www.w3.org/2000/svg" viewBox="0 0 841.9 595.3"><path fill="#FFF" d="M85 85.5C76.2 79.6 73.2 67.8 73.2 56c0-26.5 17.7-44.2 44.2-44.2h607.1c23.6 0 44.2 20.6 44.2 44.2s-20.6 44.2-44.2 44.2H117.4c-14.7 0-23.6-5.9-32.4-14.7zm2.9 486.2c-8.8-8.8-11.8-17.7-11.8-32.4 0-23.6 20.6-44.2 44.2-44.2h607.1c23.6 0 44.2 20.6 44.2 44.2s-20.6 44.2-44.2 44.2h-610c-11.8 0-23.6-5.9-29.5-11.8zm0-244.6c-8.8-8.8-11.8-17.7-11.8-32.4 0-23.6 20.6-44.2 44.2-44.2h607.1c23.6 0 44.2 20.6 44.2 44.2s-20.6 44.2-44.2 44.2h-610c-11.8 2.9-23.6-2.9-29.5-11.8z"/></svg>