<svg width="117" height="96" viewBox="0 0 117 96" xmlns="http://www.w3.org/2000/svg"><title>Gap</title><path d="M99.463 2.891h3.857c3.75-.107 5.358 3.321 5.358 6v40.182c.107 2.893-1.608 5.572-4.929 5.572h-4.286V2.891zm3.964-1.5h-15.43v1.5h4.072V93.22h-4.072v1.607h17.359V93.22h-5.893V56.467h5.143c7.286 0 11.465-3.858 11.465-9.108v-36.11c0-5.251-3.536-9.858-12.644-9.858zM21.778 2.569c0 1.5-.857 1.393-1.5.857-2.572-1.714-5.572-3-8.358-3-4.501 0-10.823 2.25-10.93 11.68v69.22c.107 12.108 5.894 14.358 11.573 14.358 4.5.107 6.643-2.25 8.358-3.107.964-.322 2.035.535 2.035 2.357h1.822V50.895h3.75v-1.5H12.884v1.5h4.5v37.824c0 3.108-2.036 5.465-4.714 5.465-2.572 0-4.501-2.465-4.501-5.465V9.32c0-2.143.429-7.179 3.751-7.179 6.429 0 9.858 18.858 9.858 28.609h1.821V1.283h-1.821v1.286m28.395 52.183l4.5-40.396 4.608 40.396h-9.108zm9.322 1.608l4.179 36.86h-4.072v1.607h15.43V93.22H70.96L60.674 1.283h-6.536l-9.644 86.793c-.536 3.108-.75 5.036-5.251 5.144v1.607h11.573V93.22c-3.322 0-4.822-2.143-4.501-4.286l3.643-32.574h9.537z" fill="#FFF" fill-rule="evenodd"/></svg>