<svg width="126" height="89" viewBox="0 0 126 89" xmlns="http://www.w3.org/2000/svg"><title>Group 2</title><g fill="none"><path d="M34.233 89h91.084l-73.02-73.482C42.583 5.78 29.376 0 15.638 0H.38l1.138 2.967 5.086 13.312L34.233 89z" fill="#F60000"/><path d="M6.604 16.279c9.943 17.039 36.13 18.865 39.014 45.412.152 1.065.987 1.978 2.05 2.13 15.104 2.358 29.754 8.596 42.505 18.865.076.076.152.076.304.076.076 0 .228-.076.304-.152a.464.464 0 0 0 0-.608 90.585 90.585 0 0 0-31.728-21.604l-3.72-1.521c-1.897-.76-3.187-2.662-3.187-4.792.227-7.911 18.9-6.314 20.797-10.117l.304-.685c-3.871-3.271-8.425-5.781-13.435-7.15-.076.228-.152 1.14.835 2.814 1.139 1.826-1.214 4.716-4.63 1.597l-.304-.228C30.513 17.04 11.537 29.058 1.518 2.966L6.604 16.28z" fill="#FFF"/></g></svg>