<svg width="87" height="25" viewBox="0 0 87 25" xmlns="http://www.w3.org/2000/svg"><title>HCF LOGO Copy</title><defs><linearGradient x1="63.354%" y1="98.905%" x2="25.804%" y2="4.932%" id="a"><stop stop-color="#A21C49" offset="0%"/><stop stop-color="#8F183F" offset="33%"/><stop stop-color="#7F1335" offset="67%"/><stop stop-color="#6D0B2A" offset="100%"/></linearGradient><linearGradient x1="22.026%" y1="6.271%" x2="65.144%" y2="97.862%" id="b"><stop stop-color="#E0004D" offset="0%"/><stop stop-color="#C81E55" offset="45%"/><stop stop-color="#B31E4F" offset="65%"/><stop stop-color="#A21C49" offset="85%"/></linearGradient></defs><g fill="none"><path d="M16.006 17.226a5.604 5.604 0 0 1-2.012.365c-3.78 0-6.22-3.262-6.22-7.103 0-2.378.519-4.238 1.28-6.098.031-.06.031-.122-.06-.152a5.66 5.66 0 0 0-1.464-.183c-4.054 0-7.317 4.024-7.317 8.963 0 5.153 3.78 9.33 8.415 9.33 3.659 0 6.707-2.165 7.5-5.061.03-.061-.03-.092-.122-.061z" fill="url(#a)"/><path d="M8.201 23.598c-.152 0-.213 0-.244.03 0 .03.061.092.153.122 1.555.64 3.262.976 5.03.976 7.317 0 12.958-5.976 12.958-13.324 0-6.189-4.025-11.189-8.994-11.189-4.086 0-7.53 3.476-8.05 9.055 0 .092.062.092.123.061a5.442 5.442 0 0 1 2.53-.61c3.293 0 5.976 2.836 5.976 6.342 0 4.909-3.933 8.537-8.872 8.537-.183.03-.396 0-.61 0z" fill="url(#b)"/><path d="M62.866 6.677c1.86 0 3.414 1.189 3.81 2.744h2.226V5.335a14.16 14.16 0 0 0-5.914-1.28c-7.226 0-10.732 3.933-10.732 8.963 0 5.244 3.842 9.116 10.153 9.116 3.414 0 5.579-1.22 7.378-2.957L68.293 17.5c-1.28 1.098-2.836 1.86-4.817 1.86-2.958 0-5.915-2.165-5.915-6.799.03-3.933 1.982-5.884 5.305-5.884zm-29.634 2.5v12.591h5V14.33h7.012v7.44h5V4.481h-6.25v1.707c.823.64 1.25 1.463 1.25 2.988v2.622h-7.012V4.482h-6.25v1.707c.823.64 1.25 1.433 1.25 2.988zm51.341-.427h2.043V4.482H70.915v1.707c.823.64 1.25 1.463 1.25 2.988v12.591h5v-7.5h6.372V11.89h-6.372v-5h4.695c1.31-.03 2.408.793 2.713 1.86z" fill="#D21252"/></g></svg>