<svg data-name="Layer 1" xmlns="http://www.w3.org/2000/svg" viewBox="0 0 200 100"><title>AEMC_text_pos</title><path d="M67.21 66.37h-8.52L55.85 59H43.19l-2.75 7.39h-8.17L45.81 34h7.72zM53.29 52.3l-3.89-9.87-3.67 9.87zm41.06 14.07h-11.6a22.79 22.79 0 0 1-5.29-.5 11.6 11.6 0 0 1-4.7-2.39q-4.92-4.09-4.92-12.74 0-8.17 3.38-12.26Q74.93 34 82.93 34h11.42v6.57H83q-6.21 0-6.76 6.17h18.11v6.57H76.26q0 3.45 1.67 5t5.12 1.5h11.3zm41.82 0h-7.49l.47-21.22-6.94 21.22h-7.68l-7.15-21.53.5 21.53h-7.65V34.02h10.48l7.51 22.75 7.43-22.75h10.52v32.35zm31.56 0h-11.6a22.74 22.74 0 0 1-5.29-.5 11.6 11.6 0 0 1-4.7-2.39q-4.92-4.09-4.92-12.74 0-8.17 3.38-12.26Q148.31 34 156.31 34h11.42v6.47h-11.29a8.12 8.12 0 0 0-3.23.52q-3.77 1.67-3.77 10 0 4.5 1.24 6.41 1.56 2.36 5.77 2.36h11.29z"/></svg>