<svg id="Layer_1" xmlns="http://www.w3.org/2000/svg" xmlns:xlink="http://www.w3.org/1999/xlink" viewBox="0 0 102 127.7"><style>.st0{fill:#dada96}.st1{clip-path:url(#SVGID_2_)}.st2{fill:url(#SVGID_3_)}.st3{clip-path:url(#SVGID_5_)}.st4{fill:url(#SVGID_6_)}.st5{fill:none;stroke:#000;stroke-width:.58}</style><title>AEMC_full_pos 2</title><path class="st0" d="M101.8 72l.1-.2-.1.2z"/><defs><path id="SVGID_1_" d="M13.4 51.7c0 16 13.6 29 30.4 29s30.4-13 30.4-29-13.6-29-30.4-29-30.4 13-30.4 29"/></defs><clipPath id="SVGID_2_"><use xlink:href="#SVGID_1_" overflow="visible"/></clipPath><g class="st1"><radialGradient id="SVGID_3_" cx="-1520.713" cy="147.697" r=".99" gradientTransform="matrix(31.16 0 0 -28.28 47428.98 4228.27)" gradientUnits="userSpaceOnUse"><stop offset="0" stop-color="#00a8e5"/><stop offset=".48" stop-color="#00a8e5"/><stop offset=".55" stop-color="#28b6e9"/><stop offset=".73" stop-color="#8dd8f3"/><stop offset=".91" stop-color="#fff"/><stop offset="1" stop-color="#fff"/></radialGradient><path class="st2" d="M10.1 23.7h60.8v56.9H10.1z"/></g><defs><path id="SVGID_4_" d="M19.2 51.7c0 14.4 11 26.1 24.6 26.1S68.4 66 68.4 51.7s-11-26.1-24.6-26.1-24.6 11.6-24.6 26.1"/></defs><clipPath id="SVGID_5_"><use xlink:href="#SVGID_4_" overflow="visible"/></clipPath><g class="st3"><radialGradient id="SVGID_6_" cx="-1514.152" cy="146.024" r="1" gradientTransform="matrix(25.23 0 0 -25.45 38244.66 3767.69)" gradientUnits="userSpaceOnUse"><stop offset="0" stop-color="#00a8e5"/><stop offset=".48" stop-color="#00a8e5"/><stop offset=".55" stop-color="#28b6e9"/><stop offset=".73" stop-color="#8dd8f3"/><stop offset=".91" stop-color="#fff"/><stop offset="1" stop-color="#fff"/></radialGradient><path class="st4" d="M19.2 25.6h49.2v52.1H19.2z"/></g><path class="st5" d="M64.3.6C54.8-.2 41.5.2 28 5.6c-17.6 7-27.2 20.8-26.1 39 .9 14.4 9.5 32.8 24.8 38.1C39.9 87.2 58.8 86 69.3 76c10.8-10.3 11.3-26.2 5.1-39-5.5-11.2-16.9-24.4-30.2-25.6-12.3-1.1-28 17.9-31.6 30.5"/><path class="st5" d="M48.3 121.6c-11.3-1.4-24.2-7.9-32.4-15.3C1.9 93.5-1.6 72.7 1.2 54.7 3.6 39 13.4 25.3 28.7 20.1c13.2-4.5 32.1-3.3 42.6 6.7 10.7 10.3 11.3 26.3 5.1 39-5.5 11.2-17 24.4-30.2 25.6-12.3 1.1-19.9-7.1-25.4-17.1"/><path d="M62.3 106.5h-2.7l-.9-2.3h-4l-.9 2.3h-2.6l4.3-10.2H58l4.3 10.2zm-4.4-4.5l-1.2-3.1-1.2 3.1h2.4zm13 4.5h-3.7c-.6 0-1.1 0-1.7-.2-.5-.1-1-.4-1.5-.8-1.1-1-1.7-2.5-1.6-4-.1-1.4.3-2.7 1.1-3.9 1-1 2.3-1.5 3.7-1.4h3.6v2.1h-3.6c-1-.1-2 .6-2.1 1.7v.3h5.7v2.1h-5.7c-.1.6.1 1.1.5 1.6.5.4 1 .5 1.6.5h3.6l.1 2zm13.2-.1h-2.4l.2-6.6-2.2 6.6h-2.4L75 99.7l.2 6.7h-2.5V96.2h3.4l2.3 7.2 2.4-7.2h3.3zm10 .1h-3.7c-.6 0-1.1 0-1.7-.2-.5-.1-1.1-.4-1.5-.8-1.1-1-1.7-2.5-1.6-4-.1-1.4.3-2.7 1.1-3.9 1-1 2.3-1.5 3.7-1.4H94v2h-3.6c-.3 0-.7 0-1 .2-.8.4-1.2 1.4-1.2 3.2-.1.7.1 1.4.4 2 .4.6 1.1.8 1.8.8H94l.1 2.1z"/></svg>