<svg width="594" height="155" viewBox="0 0 594 155" xmlns="http://www.w3.org/2000/svg"><title>Group 2</title><g fill="none"><path d="M45.1 117.5h120L68.9 20.9C56.1 8.1 38.7.5 20.6.5H.5L2 4.4l6.7 17.5 36.4 95.6z" fill="#F60000"/><path d="M8.7 21.9c13.1 22.4 47.6 24.8 51.4 59.7.2 1.4 1.3 2.6 2.7 2.8 19.9 3.1 39.2 11.3 56 24.8.1.1.2.1.4.1.1 0 .3-.1.4-.2.2-.2.2-.6 0-.8-11.6-12.2-25.9-22-41.8-28.4l-4.9-2c-2.5-1-4.2-3.5-4.2-6.3.3-10.4 24.9-8.3 27.4-13.3l.4-.9c-5.1-4.3-11.1-7.6-17.7-9.4-.1.3-.2 1.5 1.1 3.7 1.5 2.4-1.6 6.2-6.1 2.1l-.4-.3C40.2 22.9 15.2 38.7 2 4.4l6.7 17.5zM177.3 96c-23.7 0-38.8-12.3-38.8-27.8 0-15.7 15.9-27.8 39.5-27.8 23.5 0 39.5 12.1 39.5 27.2 0 6.7-3 12.3-8.7 16.9h14l-3.3 5.7c-2.1 3.6-4.7 5.8-10.3 5.8h-31.9zm.6-12.6c12.9 0 23.9-6.4 23.9-15.2 0-8.8-10.9-15.2-23.9-15.2C165 53 154 59.4 154 68.2c0 8.8 11 15.2 23.9 15.2zm103 3.2h-37.3l-5.3 9.4h-15.5l25.9-44.8c2-3.5 5-6.3 10.8-6.3h5.8c5.9 0 8.8 2.7 10.8 6.3L302 96h-15.8l-5.3-9.4zm-31-11.2h24.7L263.1 55c-.3-.5-.5-.6-.9-.6s-.6.1-.9.6l-11.4 20.4zm125.9-30.5V96H362l-40.6-33.9V96h-13.8V44.9h8.7c4.4 0 6.7 1.2 9.2 3.3l36.6 30.5V44.9h13.7zM425 56.4V96h-13.8V56.4h-28.4V44.9h70.5v11.5zm74.4 30.2H462l-5.3 9.4h-15.5l25.9-44.8c2-3.5 5-6.3 10.8-6.3h5.8c5.9 0 8.8 2.7 10.8 6.3L520.4 96h-15.8l-5.2-9.4zm-31-11.2h24.7L481.6 55c-.3-.5-.5-.6-.9-.6s-.6.1-.9.6l-11.4 20.4zm56.9 16.9l-1.3-.4 3.5-11.1c10 3.2 20.6 4.5 30.2 4.5 15.7 0 19.6-1.8 19.6-3.8 0-.8-.5-1.4-1.8-1.8-1.6-.5-5.9-1.4-18.8-3.5-14.2-2.3-20.7-3.5-25.4-5.7-4.7-2.2-7.6-5.7-7.6-10.8 0-3.9 1.9-7 5-9.5 5.5-4.2 14.8-5.9 24.9-5.9 13.1 0 24.1 1.1 36.3 4.1l1.1.3-2.9 10.8c-13.6-2.9-21.2-3.7-31.6-3.9-7.3-.1-12.3.5-15 1.3-1.5.5-2.1 1.2-2.1 2s.5 1.4 2 1.9c1.6.5 4.3 1.2 18.3 3.4 15.1 2.5 20.1 3.5 24.3 5.1 5.7 2.2 9.1 6.2 9.1 11.2 0 6.3-4.9 11-13.4 13.6-5.2 1.6-12.3 2.5-20.2 2.5-12.5.1-25.7-1.5-34.2-4.3zM317 125.7v-.7c0-2.9-2.1-5.1-5.7-5.1s-5.6 1.8-5.6 4.3c0 2 1.4 3.5 3.3 4.2l4.8 1.9c3.3 1.3 7 3.1 7 8 0 5.1-3.9 8.4-9.5 8.4s-9.5-3.1-9.5-8.1v-.7h3.3v.9c0 2.9 2.3 5.1 6.2 5.1 3.9 0 6.2-2.2 6.2-5.1 0-3.1-2.3-4.3-5-5.4l-4.1-1.7c-3.3-1.3-6-3.4-6-7.2 0-4.3 3.5-7.4 8.9-7.4s9 3.1 9 8.1v.5H317zm11.6 1.6c1.3-1.8 3.3-2.9 5.9-2.9 4.7 0 7.5 3.1 7.5 7.9v6.4c0 4.8-2.8 7.9-7.5 7.9-2.4 0-4.3-.9-5.6-2.6v10.3h-3.2v-29.6h2.5l.4 2.6zm.2 5.3v6c0 3 1.9 5.3 5.1 5.3 3.1 0 4.8-2.1 4.8-5v-6.7c0-2.8-1.6-5-4.8-5-3.2.1-5.1 2.4-5.1 5.4zm19.8-15.9c1.2 0 2.1.9 2.1 2.1 0 1.1-.9 2.1-2.1 2.1-1.2 0-2.1-.9-2.1-2.1-.1-1.2.9-2.1 2.1-2.1zm1.5 8.1v21.4h-3.2v-21.4h3.2zm5.6 21.5v-21.4h2.5l.5 2.7c1.2-1.9 3.2-3.2 5.8-3.2.4 0 .7 0 1.1.1v3.1c-.4 0-.8-.1-1.3-.1-3.1 0-5.3 2.1-5.3 5.3v13.5h-3.3zm15.4-29.6c1.2 0 2.1.9 2.1 2.1 0 1.1-.9 2.1-2.1 2.1-1.2 0-2.1-.9-2.1-2.1 0-1.2.9-2.1 2.1-2.1zm1.6 8.1v21.4h-3.2v-21.4h3.2zm4 .2h4.2v-5.8h3.3v5.8h4.2v2.7h-4.2v18.6h-3.3v-18.6h-4.2zm39.8 13.4c0 5.1-3.4 8.3-8.3 8.3s-8.2-3.2-8.2-8.3v-5.7c0-5.1 3.3-8.3 8.2-8.3 4.9 0 8.3 3.2 8.3 8.3v5.7zm-13.3.3c0 3 1.8 5.3 5 5.3s5-2.3 5-5.3v-6.1c0-3-1.8-5.3-5-5.3s-5 2.3-5 5.3v6.1zm16.5-13.7h3.5v-1.1c0-4.7 2.5-7.3 7.3-7.3h1.9v2.8h-1.7c-3.1 0-4.2 1.8-4.2 4.3v1.3h5.6v2.7h-5.6v18.6h-3.3v-18.6h-3.5V125zm22.5 21.3l9.3-28.8h3.4l9.4 28.8h-3.5l-2.1-6.6h-11.1l-2.1 6.6h-3.3zm6.3-9.5h9.3l-4.7-14.8-4.6 14.8zm19.1-12h3.2V139c0 2.7 1.5 4.8 4.6 4.8 3.1 0 5-2.3 5-5.3v-13.8h3.2v21.4h-2.5l-.5-2.5c-1.3 1.8-3.4 2.9-5.9 2.9-4.6 0-7.2-3-7.2-7.7v-14h.1zm23.5 14.9v.7c0 2.1 1.9 3.7 5 3.7 3 0 4.6-1.5 4.6-3.6 0-1.8-.8-2.6-2.9-3.2l-4.2-1.3c-2.5-.7-5-2.3-5-5.6 0-3.2 3-6 7.3-6 4.6 0 7.7 2.3 7.7 6.3v.3h-3.1v-.5c0-2-1.7-3.6-4.6-3.6-2 0-4.2 1-4.2 3.2 0 1.4.8 2.3 2.6 2.8l3.7 1.1c3.2 1 5.8 2.3 5.8 6 0 3.9-3 6.5-7.7 6.5S488 144 488 140v-.6h3.1v.3zm16.1-14.7h4.2v-5.8h3.3v5.8h4.2v2.7h-4.2v18.6h-3.3v-18.6h-4.2zm15.6 21.3v-21.4h2.5l.5 2.7c1.2-1.9 3.2-3.2 5.8-3.2.4 0 .7 0 1.1.1v3.1c-.4 0-.8-.1-1.3-.1-3.1 0-5.3 2.1-5.3 5.3v13.5h-3.3zm12.9-14c0-4.8 2.8-7.9 7.5-7.9 2.6 0 4.6 1.1 5.9 2.9l.5-2.5h2.5v21.4h-2.5l-.5-2.5c-1.3 1.8-3.4 2.9-5.9 2.9-4.7 0-7.5-3.1-7.5-7.9v-6.4zm13.1 6.3v-6c0-3-1.9-5.3-5.1-5.3-3.1 0-4.8 2.2-4.8 5v6.7c0 2.8 1.6 5 4.8 5 3.2-.1 5.1-2.4 5.1-5.4zm12.1-22v29.7h-3.2v-29.7zm7.3.1c1.2 0 2.1.9 2.1 2.1 0 1.1-.9 2.1-2.1 2.1-1.2 0-2.1-.9-2.1-2.1 0-1.2.9-2.1 2.1-2.1zm1.6 8.1v21.4h-3.2v-21.4h3.2zm4.9 7.5c0-4.8 2.8-7.9 7.5-7.9 2.6 0 4.6 1.1 5.9 2.9l.5-2.5h2.5v21.4h-2.5l-.5-2.5c-1.3 1.8-3.4 2.9-5.9 2.9-4.7 0-7.5-3.1-7.5-7.9v-6.4zm13.1 6.3v-6c0-3-1.9-5.3-5.1-5.3-3.1 0-4.8 2.2-4.8 5v6.7c0 2.8 1.6 5 4.8 5 3.2-.1 5.1-2.4 5.1-5.4z" fill="#FFF"/><path d="M8.7 21.5c13.1 22.4 47.6 24.8 51.4 59.7.2 1.4 1.3 2.6 2.7 2.8 19.9 3.1 39.2 11.3 56 24.8.1.1.2.1.4.1.1 0 .3-.1.4-.2.2-.2.2-.6 0-.8-11.6-12.2-25.9-22-41.8-28.4l-4.9-2c-2.5-1-4.2-3.5-4.2-6.3.3-10.4 24.9-8.3 27.4-13.3l.4-.9c-5.1-4.3-11.1-7.6-17.7-9.4-.1.3-.2 1.5 1.1 3.7 1.5 2.4-1.6 6.2-6.1 2.1l-.4-.3C40.2 22.5 15.2 38.3 2 4l6.7 17.5z" fill="#FFF"/></g></svg>