<svg width="250" height="72" viewBox="0 0 250 72" xmlns="http://www.w3.org/2000/svg"><title>QANTAS_Assure_HealthInsurance_RGB_190816</title><g fill="none" fill-rule="evenodd"><path d="M21.714 71.166l-5.459-8.233v-6.385c4.35-.554 6.848-4.162 6.848-8.881V15.565c0-4.719-2.498-8.326-6.848-8.881V.3c8.419.555 13.878 6.384 13.878 15.45v31.732c0 6.383-2.683 11.195-7.215 13.6l6.753 10.084h-7.957zM.066 15.75C.066 6.591 5.525.855 13.942.3v6.384c-4.347.462-6.845 4.162-6.845 8.881v32.102c0 4.719 2.498 8.419 6.845 8.881v6.385C5.525 62.377.066 56.641.066 47.482V15.75z" fill="#D8272A"/><path d="M241.732 32.376v6.692h7.835v1.944H239.56V22.224h9.779v1.945h-7.607v6.291h6.978v1.916h-6.978zm-17.33-8.235v7.579h2.603c2.517 0 4.089-1.546 4.089-3.891 0-2.231-1.572-3.688-4.089-3.688h-2.603zm-2.172 16.871V22.224h4.889c3.602 0 6.205 2.203 6.205 5.605 0 2.517-1.229 4.405-3.117 5.234l3.09 7.949h-2.375l-2.86-7.462c-.142.028-.656.056-1.001.056h-2.659v7.406h-2.172zm-6.95-18.788v13.212c0 3.604-2.26 5.863-5.519 5.863-3.289 0-5.548-2.259-5.548-5.863V22.224h2.174v13.27c0 2.2 1.229 3.86 3.374 3.86 2.116 0 3.345-1.66 3.345-3.86v-13.27h2.174zm-19.533 5.349v-.743c0-1.774-1.172-3.062-3.23-3.062-2.003 0-3.146 1.288-3.146 2.776 0 1.799 1.029 2.43 2.345 3.059l2.116 1.001c2.116.999 4.318 2.087 4.318 5.346 0 3.118-2.116 5.349-5.576 5.349-3.26 0-5.634-2.003-5.634-5.004v-.745h2.117v.859c0 1.716 1.257 3.059 3.488 3.059 2.287 0 3.518-1.543 3.518-3.29 0-2.172-1.316-2.801-2.889-3.543l-2.116-1.002c-2.117-1.001-3.746-2.316-3.746-4.947 0-2.632 2.059-4.748 5.262-4.748 3.088 0 5.233 2.002 5.233 5.006v.629h-2.06zm-16.472 0v-.743c0-1.774-1.172-3.062-3.231-3.062-2.002 0-3.145 1.288-3.145 2.776 0 1.799 1.029 2.43 2.344 3.059l2.117 1.001c2.115.999 4.318 2.087 4.318 5.346 0 3.118-2.117 5.349-5.577 5.349-3.259 0-5.633-2.003-5.633-5.004v-.745h2.116v.859c0 1.716 1.258 3.059 3.488 3.059 2.288 0 3.517-1.543 3.517-3.29 0-2.172-1.314-2.801-2.887-3.543l-2.116-1.002c-2.117-1.001-3.747-2.316-3.747-4.947 0-2.632 2.06-4.748 5.262-4.748 3.089 0 5.234 2.002 5.234 5.006v.629h-2.06zm-19.502-2.431l-2.602 9.665h5.233l-2.631-9.665zm3.174 11.553h-6.319l-1.144 4.317h-2.145l5.376-18.788h2.23l5.433 18.788h-2.258l-1.173-4.317zM58.388 44.531l-2.459-3.918c1.687-.915 2.716-2.746 2.716-5.176v-7.636c0-3.603-2.316-5.863-5.662-5.863-3.489 0-5.662 2.26-5.662 5.863v7.636c0 3.603 2.287 5.862 5.662 5.862.286 0 .543-.029.801-.086l1.973 3.318h2.631zm-8.894-16.787c0-2.202 1.287-3.861 3.489-3.861 2.231 0 3.489 1.659 3.489 3.861v7.75c0 2.202-1.258 3.86-3.489 3.86-2.202 0-3.489-1.658-3.489-3.86v-7.75zm23.166 7.064h-5.234l2.603-9.667 2.631 9.667zm1.716 6.206h2.26l-5.434-18.79h-2.231l-5.377 18.79h2.145l1.144-4.319h6.321l1.172 4.319zm18.762-18.79h-2.002v14.042L84.1 22.224h-1.916v18.79h2.002V26.742l7.15 14.272h1.802v-18.79zm5.462 1.944h4.404v16.846h2.174V24.168h4.433v-1.944H98.6v1.944zm22.622 10.64h-5.234l2.603-9.667 2.631 9.667zm1.716 6.206h2.26l-5.434-18.79h-2.231l-5.377 18.79h2.145l1.144-4.319h6.321l1.172 4.319zm17.217-13.442v-.629c0-3.003-2.145-5.005-5.234-5.005-3.203 0-5.262 2.117-5.262 4.748 0 2.631 1.63 3.946 3.747 4.947l2.116 1.001c1.573.743 2.888 1.373 2.888 3.546 0 1.744-1.23 3.289-3.517 3.289-2.231 0-3.489-1.344-3.489-3.06v-.858h-2.117v.743c0 3.003 2.374 5.005 5.634 5.005 3.461 0 5.577-2.231 5.577-5.348 0-3.26-2.202-4.347-4.318-5.348l-2.117-1.001c-1.315-.629-2.345-1.258-2.345-3.059 0-1.488 1.144-2.774 3.146-2.774 2.059 0 3.232 1.286 3.232 3.06v.743h2.059z" fill="#FFF"/></g></svg>