<svg width="593" height="44" viewBox="0 0 593 44" xmlns="http://www.w3.org/2000/svg"><title>QANTAS_LOYALTY_REV</title><path d="M29.448 42.545C11.59 42.545.198 33.26.198 21.607.198 9.762 12.167.67 29.96.67c17.729 0 29.76 9.092 29.76 20.489 0 5.058-2.24 9.284-6.528 12.742h10.56l-2.496 4.29c-1.6 2.689-3.52 4.354-7.744 4.354H29.448zm.448-9.477c9.728 0 17.985-4.802 17.985-11.46 0-6.66-8.193-11.462-17.985-11.462-9.729 0-17.985 4.802-17.985 11.461 0 6.66 8.32 11.461 17.985 11.461zm77.636 2.433H79.435l-3.969 7.108H63.818l19.52-33.744c1.537-2.625 3.777-4.738 8.13-4.738h4.351c4.417 0 6.657 2.05 8.129 4.738l19.521 33.744h-11.905l-4.032-7.108zM84.171 27.05h18.625l-8.64-15.367c-.257-.384-.385-.448-.705-.448-.32 0-.448.064-.704.448L84.171 27.05zm94.853-22.987v38.482h-10.368l-30.594-25.548v25.548h-10.369V4.063h6.529c3.328 0 5.056.897 6.912 2.497l27.522 22.987V4.063h10.368zm37.058 8.644v29.838h-10.368V12.707h-21.377V4.063h53.123v8.644zm56.068 22.794h-28.162l-3.968 7.108h-11.65l19.521-33.744c1.536-2.625 3.776-4.738 8.129-4.738h4.352c4.416 0 6.656 2.05 8.128 4.738l19.521 33.744h-11.904L272.15 35.5zm-23.362-8.451h18.625l-8.64-15.367c-.256-.384-.384-.448-.704-.448-.32 0-.448.064-.704.448l-8.577 15.367zm42.819 12.741l-.96-.32 2.624-8.388c7.552 2.434 15.489 3.394 22.721 3.394 11.84 0 14.785-1.345 14.785-2.881 0-.577-.384-1.025-1.344-1.345-1.216-.384-4.416-1.024-14.145-2.625-10.689-1.729-15.617-2.625-19.137-4.29-3.52-1.665-5.696-4.29-5.696-8.132 0-2.945 1.408-5.25 3.776-7.17 4.16-3.138 11.136-4.419 18.753-4.419 9.856 0 18.177.832 27.33 3.073l.832.257-2.177 8.131c-10.24-2.177-16-2.817-23.809-2.945-5.504-.064-9.28.384-11.329.96-1.152.385-1.6.897-1.6 1.537 0 .576.384 1.025 1.536 1.409 1.216.384 3.265.896 13.761 2.56 11.393 1.858 15.17 2.626 18.305 3.843 4.288 1.664 6.849 4.674 6.849 8.451 0 4.738-3.713 8.26-10.113 10.245-3.904 1.217-9.28 1.857-15.233 1.857-9.344.128-19.329-1.089-25.73-3.202zm81.156-.64h16.13v3.906h-20.418V6.048h4.288v33.103zm51.267-7.363c0 7.235-4.928 11.845-12.16 11.845-7.233 0-12.161-4.546-12.161-11.845v-14.47c0-7.236 4.736-11.846 12.16-11.846 7.233 0 12.161 4.546 12.161 11.845v14.47zm-20.033.064c0 4.482 2.88 7.811 7.873 7.811 4.992 0 7.808-3.33 7.808-7.811V17.125c0-4.482-2.816-7.811-7.808-7.811-4.993 0-7.873 3.33-7.873 7.811v14.727zm35.074-25.804l8.32 17.992 8.385-17.992h4.352L449.44 28.266v14.727h-4.288V28.266l-10.69-22.218zM466.4 42.993l11.841-37.009h4.353l11.904 37.009h-4.416l-2.688-8.516h-14.08l-2.625 8.516h-4.288zm8.001-12.166h11.905l-6.016-18.952-5.889 18.952zm38.274 8.324h16.13v3.906h-20.418V6.048h4.288v33.103zM533.54 6.048h23.746v3.906h-9.729v33.039h-4.288V9.89h-9.728V6.048zm38.275 0l8.32 17.992 8.385-17.992h4.352l-10.689 22.218v14.727h-4.288V28.266L567.207 6.048z" fill="#FFF"/></svg>