<svg id="Layer_1" xmlns="http://www.w3.org/2000/svg" viewBox="0 0 323 40" enable-background="new 0 0 323 40"><style>.st0{filter:url(#Adobe_OpacityMaskFilter)}.st1{fill:#fff}.st2{mask:url(#mask-2)}.st2,.st3{fill:#f3b22d}</style><g id="Symbols"><g id="LOGO_x2F_R_x26_H_x5F_POS_x5F_Gold_x5F_RGB"><g id="R_x26_H_x5F_POS_x5F_Gold_x5F_RGB"><g id="Group-3" transform="translate(0 .966)"><defs><filter id="Adobe_OpacityMaskFilter" filterUnits="userSpaceOnUse" x="0" y=".1" width="31" height="38.2"><feColorMatrix values="1 0 0 0 0 0 1 0 0 0 0 0 1 0 0 0 0 0 1 0"/></filter></defs><mask maskUnits="userSpaceOnUse" x="0" y=".1" width="31" height="38.2" id="mask-2"><g class="st0"><path id="path-1" class="st1" d="M0 .1v38.2h31V.1z"/></g></mask><path id="Fill-1" class="st2" d="M7.5 6.2h3.7c5.5 0 8 .7 8 5.1 0 4-2.2 6.2-6.3 6.2H7.5V6.2zm20.4 28.1c-1-1.9-4.5-10.2-4.5-10.2-.7-1.6-1.6-2.7-2.9-3.3 2.2-1.1 6.5-3.8 6.5-10C27 3.6 22.3.1 13 .1H0v38.2h7.5V23.5h5.3c1.8 0 2.7 1.1 3.5 2.8l4.4 9.5s1 2.5 4.1 2.5H31s-1.7-1.2-3.1-4z"/></g><path id="Fill-4" class="st3" d="M64.5.1c-2.4 0-4.3 1.8-4.3 4.3s1.9 4.3 4.3 4.3 4.3-1.8 4.3-4.3S67 .1 64.5.1"/><path id="Fill-5" class="st3" d="M48 25.7c0 5-2.5 7.7-5.5 7.7s-4.8-2.3-4.8-6.8c0-4.8 2.5-9 7.9-9 .8 0 1.5.1 2.3.2v7.9zm7.6-13.4c-3.5-.6-6.3-1-9.4-1-10.7 0-16.4 6.5-16.4 15.8 0 7.4 3.9 12.8 10.5 12.8 4.3 0 6.8-2 8.2-4.1v3.5h7.1v-27z"/><path id="Fill-6" class="st3" d="M60.8 39.3h7.5V11.8h-7.5z"/><path id="Fill-7" class="st3" d="M89.4 11.2c-4.3 0-7.2 1.6-8.9 4.2v-3.5h-7.2v27.5H81V24.2c0-4 2.2-6.3 5.9-6.3 3.3 0 4.8 1.6 4.8 5.5v15.8h7.7V21.1c0-5.8-3.7-9.9-10-9.9"/><path id="Fill-8" class="st3" d="M243.2 16.6v-4.7H236v27.5h7.7V25.1c0-3.8 5.4-6.7 10.6-6v-7.3c-4.3-.7-8.8 1.6-11.1 4.8"/><path id="Fill-9" class="st3" d="M273 11.2c-4.3 0-7.2 1.6-8.9 4.2v-3.5h-7.2v27.5h7.7V24.2c0-4 2.2-6.3 5.9-6.3 3.3 0 4.8 1.6 4.8 5.5v15.8h7.7V21.1c0-5.8-3.8-9.9-10-9.9"/><path id="Fill-10" class="st3" d="M219.5 33.3c-3.3 0-5.7-2.4-5.8-7.4-.1-5.5 1.9-8.3 5.8-8.3 3.3 0 5.5 2.5 5.6 7.4.2 5.6-1.7 8.3-5.6 8.3zm-.1-22.1c-8.7 0-13.8 6.7-13.6 15 .2 8.4 5.7 13.7 13.6 13.7 8.7 0 13.8-6.7 13.6-15-.2-8.4-5.6-13.7-13.6-13.7z"/><path id="Fill-11" class="st3" d="M194.9 16.6h-14.5V1.3h-7.9v37.9h7.9V23.4h14.5v15.8h7.8V1.3h-7.8v15.3"/><path id="Fill-12" class="st3" d="M146.2 33.2c-4.6 0-8.1-2.3-8.1-5.4 0-3.6 3.6-4.5 6.6-4.6 4.6 1.7 8.1 3.9 10.5 6.6-1.5 1.7-3.9 3.4-9 3.4zm17.7-3.7c1-1.6 2.9-5.8 1.8-12.5l-.1-.4h-7s.4.9.5 3.6c0 1.1-.2 2.6-.4 3.6-.2-.2-.5-.4-.8-.6-.8-.7-1.7-1.3-2.7-1.9-2.2-1.5-5.8-3.2-8.4-4.4l-.8-.4c-2.3-1.1-3.6-3.1-3.2-5 .3-1.3.8-2.3 1.7-2.9 1.2-.8 2.9-1 4.6-.7.9.2 2.2.7 3.6 1.5 2.1 1.2 3.5 2.8 3.5 2.8l5.1-5.1c-1.9-2.1-4.7-4.6-8.9-5.7a16 16 0 0 0-3.9-.5c-2.9 0-5.9.7-7.8 2-2.4 1.6-4 4.1-4.6 7.2-.6 2.9 0 5.5 1.6 7.9-4.2 1.9-6.6 5.5-6.6 9.9 0 6.9 6.4 12.1 14.8 12.1 5 0 9.1-1.3 12.4-4.1 0 .1.1.2.1.3.3.8.3 2.2.3 2.3v.7h7.1v-.7c.3-.1.4-5-1.9-9z"/><path id="Fill-13" class="st3" d="M317.1 33.8h.5c.7 0 1 .1 1 .7 0 .5-.3.8-.8.8h-.7v-1.5zm2 2.3c-.1-.2-.2-.3-.4-.4.3-.1.8-.5.8-1.3 0-.9-.6-1.4-1.8-1.4h-1.6v4.8h.9V36h.7c.2 0 .3.1.4.3l.7 1.5h1l-.7-1.7z"/><path id="Fill-14" class="st3" d="M317.9 39c-1.9 0-3.4-1.5-3.4-3.4s1.5-3.4 3.4-3.4 3.4 1.5 3.4 3.4-1.5 3.4-3.4 3.4zm0-7.8c-2.4 0-4.3 1.9-4.3 4.3s1.9 4.3 4.3 4.3 4.3-1.9 4.3-4.3c0-2.3-2-4.3-4.3-4.3z"/><path id="Fill-15" class="st3" d="M114 16.8c-3.9 1.2-4.4 5.3-4.4 5.3s4.2-.1 8.4-.1c5.5 0 2.8-7.2-4-5.2zm5.2 11.2h-9.6c.1 3 4.2 4.9 6.3 5.3 2.7.5 4.9-.2 6.8-1l4.6 4.6c-2.7 1.7-6.4 3-9.3 3-10.2 0-15.8-6.4-15.8-14.7 0-7.8 5.6-14.8 13.7-14.8 8.2 0 12 5.2 12 10.7 0 3.8-3.3 6.9-8.7 6.9z"/><path id="Fill-16" class="st3" d="M297.6 16.8c-3.9 1.2-4.4 5.3-4.4 5.3s4.2-.1 8.4-.1c5.5 0 2.8-7.2-4-5.2zm5.2 11.2h-9.6c.1 3 4.2 4.9 6.3 5.3 2.7.5 4.9-.2 6.8-1l4.6 4.6c-2.7 1.7-6.4 3-9.3 3-10.2 0-15.8-6.4-15.8-14.7 0-7.8 5.6-14.8 13.7-14.8 8.2 0 12 5.2 12 10.7 0 3.8-3.3 6.9-8.7 6.9z"/></g></g></g></svg>