<svg width="323" height="40" viewBox="0 0 323 40" xmlns="http://www.w3.org/2000/svg" xmlns:xlink="http://www.w3.org/1999/xlink"><title>R&amp;H_POS_Gold_RGB</title><defs><path id="a" d="M.008.075V38.32h30.99V.075H.007z"/></defs><g fill="none" fill-rule="evenodd"><g transform="translate(0 .966)"><mask id="b" fill="#fff"><use xlink:href="#a"/></mask><path d="M7.508 6.166h3.662c5.548 0 8.024.74 8.024 5.135 0 4.003-2.248 6.208-6.326 6.208h-5.36V6.166zM27.88 34.274c-.965-1.93-4.493-10.186-4.493-10.186-.706-1.61-1.648-2.666-2.913-3.33 2.221-1.06 6.458-3.783 6.458-9.967C26.933 3.579 22.27.075 12.926.075H0V38.32h7.508V23.487h5.258c1.835 0 2.714 1.107 3.461 2.769l4.361 9.537s1.016 2.527 4.13 2.527h6.28s-1.714-1.243-3.117-4.046z" fill="#FFF" mask="url(#b)"/></g><path d="M64.545.081c-2.432 0-4.306 1.812-4.306 4.303 0 2.49 1.874 4.305 4.306 4.305 2.423 0 4.302-1.814 4.302-4.305 0-2.491-1.879-4.303-4.302-4.303M47.955 25.71c0 4.984-2.457 7.748-5.452 7.748-2.996 0-4.794-2.283-4.794-6.79 0-4.806 2.515-8.952 7.906-8.952.779 0 1.5.06 2.34.181v7.814zm7.667-13.4c-3.476-.6-6.35-.96-9.407-.96-10.662 0-16.355 6.547-16.355 15.8 0 7.45 3.895 12.798 10.485 12.798 4.312 0 6.77-1.983 8.21-4.144v3.486h7.067V12.31zm5.134 26.975h7.576V11.82h-7.576zm28.686-28.072c-4.335 0-7.225 1.625-8.912 4.156V11.82h-7.168v27.465h7.715V24.16c0-4.034 2.165-6.26 5.896-6.26 3.254 0 4.759 1.564 4.759 5.538v15.848h7.71V21.15c0-5.84-3.737-9.936-10-9.936m153.768 5.342V11.82h-7.168l.002 11.495v15.97h7.706V25.083c0-3.778 5.405-6.725 10.608-5.97l.017-7.293c-4.38-.748-8.897 1.623-11.166 4.736m29.748-5.343c-4.336 0-7.229 1.625-8.916 4.156V11.82h-7.163v27.465h7.708V24.16c0-4.034 2.168-6.26 5.9-6.26 3.253 0 4.757 1.564 4.757 5.538v15.848h7.713V21.15c0-5.84-3.737-9.936-9.999-9.936M219.518 33.32c-3.315 0-5.679-2.415-5.808-7.353-.142-5.48 1.947-8.274 5.808-8.274 3.312 0 5.483 2.494 5.611 7.431.146 5.478-1.761 8.197-5.611 8.197zm-.11-22.16c-8.743 0-13.813 6.689-13.594 14.95.221 8.437 5.663 13.744 13.616 13.744 8.743 0 13.812-6.694 13.597-14.954-.222-8.436-5.666-13.74-13.62-13.74zm-24.522 5.474h-14.515v-15.3h-7.827v37.883h7.827v-15.78h14.515v15.78h7.83V1.335h-7.83v15.299M146.208 33.25c-4.604 0-8.076-2.322-8.076-5.398 0-3.6 3.569-4.482 6.584-4.58 4.576 1.7 8.1 3.915 10.487 6.588-1.535 1.59-3.95 3.39-8.995 3.39zm17.687-3.791c.973-1.6 2.93-5.825 1.833-12.504l-.082-.38h-7.002s.378.882.502 3.57c.049 1.138-.156 2.646-.39 3.627a27.57 27.57 0 0 0-.766-.614 24.126 24.126 0 0 0-2.713-1.94c-2.233-1.458-5.783-3.163-8.374-4.41l-.751-.367c-2.337-1.125-3.595-3.103-3.203-5.039.269-1.343.837-2.284 1.735-2.873 1.186-.78 2.893-1.047 4.59-.703.927.186 2.216.692 3.61 1.457 2.117 1.163 3.502 2.794 3.512 2.808l5.088-5.075c-1.89-2.135-4.685-4.635-8.87-5.681a15.957 15.957 0 0 0-3.872-.455c-2.947 0-5.852.746-7.764 2.004-2.417 1.584-4.023 4.069-4.648 7.184-.58 2.871-.035 5.512 1.624 7.852-4.18 1.854-6.574 5.462-6.574 9.932 0 6.925 6.375 12.148 14.828 12.148 5.046 0 9.101-1.336 12.388-4.084.036.066.083.151.128.254.302.832.257 2.248.257 2.265l-.007.71h7.076l.005-.694c.002-.05.15-4.942-2.16-8.992zm153.211 4.359h.464c.7 0 1.011.094 1.011.652 0 .501-.284.784-.799.784h-.676v-1.436zm2.006 2.267c-.087-.206-.204-.339-.364-.421.281-.136.81-.48.81-1.258 0-.915-.588-1.358-1.767-1.358h-1.633v4.834h.948V36.01h.672c.23 0 .342.14.436.346l.697 1.526h1.01l-.809-1.797z" fill="#FFF"/><path d="M317.868 38.994c-1.9 0-3.446-1.54-3.446-3.445 0-1.9 1.545-3.443 3.446-3.443a3.443 3.443 0 0 1 3.443 3.443 3.442 3.442 0 0 1-3.443 3.445zm0-7.745a4.303 4.303 0 1 0 0 8.607 4.305 4.305 0 1 0 0-8.607zM114.05 16.817c-3.91 1.176-4.366 5.277-4.366 5.277s4.157-.05 8.414-.05c5.372 0 2.697-7.253-4.048-5.227zm5.165 11.138l-9.588-.002c.081 3.01 4.18 4.937 6.295 5.306 2.721.472 4.862-.185 6.845-.97l4.606 4.649c-2.668 1.749-6.42 3.01-9.32 3.01-10.2 0-15.846-6.43-15.846-14.732 0-7.775 5.618-14.764 13.74-14.764 8.246 0 11.998 5.23 11.998 10.66 0 3.773-3.303 6.843-8.73 6.843zm178.429-11.138c-3.91 1.176-4.367 5.277-4.367 5.277s4.156-.05 8.414-.05c5.374 0 2.697-7.253-4.047-5.227zm5.164 11.138l-9.587-.002c.081 3.01 4.18 4.937 6.294 5.306 2.722.472 4.863-.185 6.847-.97l4.604 4.649c-2.668 1.749-6.418 3.01-9.318 3.01-10.202 0-15.848-6.43-15.848-14.732 0-7.775 5.618-14.764 13.742-14.764 8.243 0 11.998 5.23 11.998 10.66 0 3.773-3.301 6.843-8.732 6.843z" fill="#FFF"/></g></svg>