<svg xmlns="http://www.w3.org/2000/svg" viewBox="0 0 239 328"><style>.st0{fill:#fff}</style><path class="st0" d="M237.5 209c0 2.5-.1 5.1-.2 7.6v.5c-4.1 61-54.8 109.1-116.8 109.1-6.5 0-13.1-.5-19.3-1.6l42-90.4L151 217l.2-.5 45-96.8.1.1c13.7 11.6 24.6 26.4 31.8 43.1 6 14.1 9.4 29.7 9.4 46.1zM119.2 2.3C56.3 2.3 5 51.8 2 114v5.3c0 16.4 3.5 32 9.5 46.1v.1c6.9 15.9 17.2 30.1 30 41.4h.5l43-93.1h-.2v-.1L93.7 95l.1-.1 42.5-91.4c-5.6-.8-11.5-1.2-17.1-1.2zM236 114h-37l-.2-.1v.1H139V3.9c36 6 66.4 28.5 83.4 59.5 0 .1.1.1.1.2l-.2.3c8.1 15 12.7 32 13.7 50.1zm-13.8-50.5zM3.5 217c1 16 5.2 31.6 12.3 45.5v.1c16.5 32.2 47.1 55.5 84.1 61.8V217H3.5zm147.5 0" id="slik-logo-svg"/><circle class="st0" cx="119.8" cy="164.2" r="117.8" id="circle-svg"/></svg>