<svg xmlns="http://www.w3.org/2000/svg" xmlns:xlink="http://www.w3.org/1999/xlink" viewBox="0 0 275 406"><image width="339" height="427" xlink:href="C413B0FC338FB9F0.png" transform="translate(-29 -11)" overflow="visible" opacity=".29"/><image width="284" height="373" xlink:href="C413B0FC338FB9F1.png" transform="translate(-3 6)" overflow="visible"/><path d="M255.5 230c0 2.5-.1 5.1-.2 7.6v.5c-4.1 61-54.8 109.1-116.8 109.1-6.5 0-13.1-.5-19.3-1.6l42-90.4L169 238l.2-.5 45-96.8.1.1c13.7 11.6 24.6 26.4 31.8 43.1 6 14.1 9.4 29.7 9.4 46.1zM137.2 23.3C74.3 23.3 23 72.8 20 135v5.3c0 16.4 3.5 32 9.5 46.1v.1c6.9 15.9 17.2 30.1 30 41.4h.5l43-93.1h-.2v-.1l8.9-18.7.1-.1 42.5-91.4c-5.6-.8-11.5-1.2-17.1-1.2zM254 135h-37l-.2-.1v.1H157V24.9c36 6 66.4 28.5 83.4 59.5 0 .1.1.1.1.2l-.2.3c8.1 15 12.7 32 13.7 50.1zm-13.8-50.5zM21.5 238c1 16 5.2 31.6 12.3 45.5v.1c16.5 32.2 47.1 55.5 84.1 61.8V238H21.5zm147.5 0"/></svg>