<svg width="192" height="20" viewBox="0 0 192 20" xmlns="http://www.w3.org/2000/svg"><title>SMH WHITE</title><g fill="#FFF"><path d="M50.302 5.719L48.58 6.844l.596.5v6.75c0 .594-.502 1.031-1.19 1.031 0 0-.189 0-.283-.031V6.688l-1.503-.97-1.91 1.25.093.157s.345-.219.408-.281c0 0 .689.625.689 1.218v7.032c-.752.219-1.535.844-1.566 2.25 0 .656.563 1.5 1.597 1.656.564.094 2.13-.156 2.161-.156.22-.032.501-.063 1.284-.094.658-.031 1.097.25 1.316.469l.156.156c.188-.219.376-.656.376-.969 0-.687-.282-1.156-.783-1.437-.344-.188-.814-.282-1.41-.282-.03 0-.187 0-.406.032-.282.031-.658.062-.971.093-.502.063-1.003.125-1.316.157-.22.031-.376.062-.438.062a.92.92 0 0 1-.595-.218.576.576 0 0 1-.188-.407c.062-.593.814-.875 1.033-.875h.25c.44.094 1.442.25 2.506.25.345 0 .69-.062 1.065-.219.345-.124.658-.343.94-.593a2.51 2.51 0 0 0 .595-.719 2.12 2.12 0 0 0 .25-.969V6.47c0-.063-1.033-.75-1.033-.75zm1.002.937l.596-.5"/><path d="M51.357 6.615l-.544-.84.84-.543.543.839zm15.483 7.448l-.376.25-.313-.282V6.562l-1.284-.875-2.35 1.532-.062-.157c-.313-.843-.783-1.125-1.002-1.343l-2.224 1.468.094.157s.25-.157.376-.25c.219.218.626.875.626 1.125v5.625l-.595.5 1.723 1.156 1.722-1.125-.595-.5V7.656l.595-.375.846.938v5.812c0 .688.564 1.188.94 1.5l2.067-1.375-.188-.094zm-.815-7.313l.596-.5"/><path d="M66.07 6.735l-.544-.84.84-.543.543.839zm-44.678 7.859l.627-.5m-.559.464l-.544-.84.84-.543.543.84z"/><path d="M25.934 14.156s-.532.344-.626.375c0 0-1.222-.875-1.222-.906v-2.75l3.038-2.031-1.722-3.188L21.8 8.031v6.156c.689.5 2.192 1.376 2.192 1.376l2.067-1.313-.125-.094zm-1.848-7.031l1.41 2.406-1.41.938V7.125zm43.192 7.531l.595-.5m-.528.461l-.544-.839.84-.544.543.84zm47.197-8.648S113.008 7 112.726 7.156c-.063-.093-.282-.906-1.097-1.468-.25.156-2.098 1.406-2.098 1.406l.094.125s.25-.188.313-.219l.157.094c.25.25.375.437.375.562v6l-.626.531 1.754 1.376s1.88-1.313 1.817-1.282l-.69-.594V7.72l.376-.25.877 1.125s-.093.125-.125.187c-.125.188-.344.469-.344.875 0 .156.156.5.438.5h.031c.188 0 .22-.031.376-.094l.063-.03-.063-.032c-.125-.031-.219-.063-.282-.125 0 0-.03 0-.03-.031-.095-.094-.189-.25-.189-.375 0-.219.125-.469.376-.781.439-.5 1.44-1.22 1.44-1.22l-1.127-1.5zm76.487 1.344l.595-.5m-.522.443l-.544-.84.84-.543.543.839zm-6.118 7.307l.595-.5m-.527.466l-.544-.84.84-.543.543.839zm-142.831-.904a12.256 12.256 0 0 0-3.727-1.75h-.031l1.378-2.031c1.754.375 2.944 1.344 2.944 2.312a2.869 2.869 0 0 1-.564 1.469zM39.026 7c-.25-.031-1.002-.156-1.19-.219-.626-.125-3.758-1.031-3.758-2.406 0-1.563 2.004-1.563 2.975-1.563.22 0 2.475.188 3.57 1.657 0 .062-1.315 2.093-1.597 2.531zm6.86-2.094l.031-.031c.157-.156.282-.438.282-.625 0-.219-.063-.406-.22-.531-.125-.156-.344-.25-.626-.25h-.156c-.69 0-1.41.437-2.193 1.187-.689.657-.94 1.125-1.347 1.813-.344.531-.5.812-.595.937-.125-.031-.908-.125-1.628-.281.219-.375.908-1.531 1.66-2.625.563-.781 1.221-1.5 1.566-1.906a.55.55 0 0 1 .156-.125c.032-.031.126-.063.126-.094s-.094-.125-.094-.125c-.032 0-.063.031-.126.031a.453.453 0 0 1-.219.063c-.125 0-.25-.094-.47-.281-.564-.47-1.66-1.344-3.539-1.344-3.226 0-5.137 2.719-5.105 4.531 0 1.125.219 2.375.783 2.875.563.531 1.534.906 3.257 1.313l.125.03-.282.313c-.438.375-.783.75-1.597.75-.532 0-.783-.187-.97-.344l-.032.032c.031.094.156.281.313.469.188.218.376.343.532.374.032 0 .251.063.596-.062.47-.156.97-.5 1.44-1.031l.188-.219.188-.219 1.222.156c.125.032.282.032.407.094l-.501.75c-.627.938-.877 1.25-.877 1.25s-.407-.062-.533-.094c-.344-.062-.877-.093-1.628-.093-1.473 0-3.508.531-4.73 1.75-.25.25-.47.531-.626.812a3.212 3.212 0 0 0-.439 1.594c0 .75.501 1.594 1.88 1.594 1.847 0 3.445-1.719 4.29-2.657l.126-.156c.25-.281.376-.469.47-.562.97.281 2.568.937 3.946 1.812.282-.281 1.096-1.25 1.88-2.406.438-.625 1.409-2.094 1.44-3.219.031-1.062-.97-2.375-2.85-2.75.062-.125.156-.312.438-.75.783-1.187 1.472-2.406 2.913-2.406.25 0 .815.063 1.096.594 0 .031 0 .031.032.062zm-10.963 10.75a5.47 5.47 0 0 1-1.065.75c-.375.188-.72.344-1.096.438-.125.031-.22.062-.313.062-.157.032-.313.032-.439.032h-.219c-.752-.063-1.221-.5-1.221-1.157 0-1.687 2.85-2.219 3.884-2.219h.219c.47 0 .814.032 1.754.22l.188.062a15.774 15.774 0 0 1-1.347 1.5 1.64 1.64 0 0 1-.345.312zm-21.517-4.187h-.032c-1.315 1.594-2.474 2.094-2.662 2.187V5.25c1.503-.063 2.537-.938 2.537-2.344 0-.156-.031-.406-.125-.625-.439.531-1.16.688-1.598.688-1.096 0-2.255-.344-3.476-.688-1.285-.375-2.631-.75-3.947-.75C2.223 1.594 0 2.47 0 4.97c0 .906.626 2.562 2.099 3.343l.093.032s-.344.781-.344 1.469c0 2.406 1.503 6.062 5.763 6.062 1.034 0 1.973-.219 2.819-.688a6.258 6.258 0 0 0 1.785-1.5c.846-1.093 1.19-2.187 1.19-2.218zM6.42 13.53l.188-.125c1.41-.937 2.098-1.781 2.098-2.625V5.03s.72.188 1.692.219v8.531c-1.566.531-3.258.156-3.978-.25zm.094-1.406c-.031.344-.125.75-.439 1.219l-.094-.063c-1.44-.937-2.16-2.75-2.255-4.719-.062-1.437.658-3.25 1.754-4.437.126.031.72.188 1.003.313v7.687h.03zM5.137 4.031C2.944 6.22 2.255 8.125 2.255 8.125l-.094-.031c-.626-.313-.94-1.094-.97-1.781-.063-1.657 1.095-2.375 2.662-2.375.5-.032 1.096.03 1.284.093zm120.587 1.594c-.031.031-2.099 1.438-2.099 1.438l.094.187s.282-.188.345-.219l.125.094c.25.25.345.406.345.531v6.719l1.127 1.156 2.13-1.156-.156-.219s-.282.156-.314.156l-.532-.562V6.531c0 .032-1.034-.875-1.065-.906zm-1.222-2.375h-.03.03l1.347-1.063 1.222 1.157-1.378 1h-.032zM78.93 5.688l-1.723 1.125.595.5v6.75c0 .593-.5 1.03-1.19 1.03 0 0-.188 0-.313-.03V6.655l-1.504-1-1.91 1.25.094.157s.344-.22.407-.282c0 0 .689.625.689 1.219v7.063c-.752.218-1.566.812-1.566 2.218 0 .657.564 1.5 1.597 1.657.564.093 2.13-.157 2.162-.157.219-.031.5-.062 1.284-.093.657-.032 1.096.25 1.315.468l.157.157h.031c.188-.22.376-.657.376-.97 0-.687-.282-1.155-.783-1.437-.345-.187-.814-.281-1.41-.281-.03 0-.187 0-.407.031-.282.032-.657.063-.97.094-.502.063-1.003.125-1.316.156-.22.032-.376.063-.439.063-.25 0-.47-.094-.626-.219a.635.635 0 0 1-.188-.438c.063-.593.783-.875 1.002-.875.032 0 .282 0 .314.032.47.094 1.44.281 2.505.281.345 0 .69-.063 1.065-.219.345-.125.658-.344.94-.594a2.51 2.51 0 0 0 .595-.718c.156-.313.25-.625.25-.969V6.437c0-.062-1.033-.75-1.033-.75zm71.475 4.25c.126 0 .376.03.47.062.125.063.188.125.22.188.03.062.03 2.156.03 2.156 0 .406-.062.562-.156.75.783-.406 1.723-1.219 1.973-1.719.313-.656.313-1.938.282-3.313-.031-1.562-.062-3.312.407-4.624-.595.374-.94.687-1.378 1.156-.47.468-.783.906-.908 1.156-.313.781-.22 1.969-.25 2.219-2.444.25-2.882 1.375-2.851 2.343 0 .032.031.188.063.344l.031.125c.501-.687 1.19-.844 2.067-.844zm-2.067-6.75c.094 0 .501.093 1.44.312.502.125 1.16.25 1.222.25h.501c.533 0 1.63-.656 2.945-1.719l.219-.187c-.313.125-.658.281-1.065.281-.564 0-1.222-.219-1.91-.438-.752-.25-1.504-.5-2.193-.5-1.472 0-2.474.907-2.474 2.22 0 .312.125.655.344.937-.031-.125-.094-.25-.094-.375.063-.469.439-.781 1.065-.781zM159.457.594c.313.156.783.437 1.034.937a74.625 74.625 0 0 1-1.974 1.407c-.532-.657-1.284-1.5-1.816-1.532 0 0-.376 0-.47.063-.157.093-.157.218-.157.343V6.72l2.099-1.313 1.66 1.657v5.5c0 1.562-1.096 3.25-3.257 4.687.689.219 1.91.375 3.32.063-.815 1.187-1.723 1.78-2.725 1.78a1.82 1.82 0 0 1-.627-.124c-1.159-.438-1.973-.157-2.004-.188 1.002-.812 1.722-1.625 2.223-2.437.502-.813.752-1.844.783-2.688V8.25l-1.503-1.094v.625c0 1.375 0 2.625-.313 3.282-.282.53-1.19 1.312-1.973 1.718.094-.156.156-.344.156-.75v-7c0-.125.032-.75.063-.843.125-.907.313-1.875 1.754-2.875 1.065-.75 1.942-1.063 2.63-1.063.314.063.721.156 1.097.344zM21.048 14.531v.031c-.125.094-1.159.813-1.503 1.063a3.28 3.28 0 0 0-.971 1c-.22.344-.345.719-.345 1.125 0 .156.031.281.157.375.219.219.595.281.783.281h.282c.125 0 .219-.031.313-.031v.031c-.032.157-.157.282-.376.407a1.278 1.278 0 0 1-.564.156c-.752 0-1.002-.625-1.002-1.063 0-.625.783-1.75 1.315-2.25 0 0-.94-.75-.94-1.375V8.22l-.845-.938-.564.375v6.282c.032.03.595.5.595.5l-1.722 1.124-1.723-1.156.595-.5V3.594c0-.531-.063-1.25-.22-1.438-.093-.125-.25-.187-.406-.312.156-.469.438-.688.877-.688.094 0 .47.063.689.157.156-.344.5-.938 1.221-.938.126 0 .376.094.533.188-.501.53-.439 1.78-.439 2.5v4.124l2.318-1.53 1.347.874v6.75c0 .625.313.938.595 1.25zm163.372-.468l.094.124-2.098 1.376-1.66-1.126.532-.5V3.345c0-.531-.063-1.25-.22-1.438-.093-.125-.25-.187-.406-.312.156-.469.438-.657.877-.657.094 0 .407.032.626.157.313-.25.564-.75 1.253-.75.125 0 .376.094.532.187-.313.344-.407.844-.438 1.375-.031 2.907-.031 12-.031 12l.47.406.47-.25zM20.328 6.75l.595-.5"/><path d="M20.376 6.72l-.544-.84.84-.543.543.839zm38.007.53l.595-.5m-.544.47l-.544-.838.839-.544.544.839zm-6.096 7.28l.595-.5m-.55.49l-.544-.839.839-.544.544.839zm27.549-7.896l.627-.5m-.56.459l-.545-.839.84-.544.544.839zm28.498.603l.595-.5m-.549.455l-.544-.84.84-.543.543.839zm-6.091 7.545l.595-.5m-.541.461l-.544-.839.839-.544.544.84zm24.158-7.898l.595-.5m-.549.461l-.545-.84.84-.544.544.84zm-2.615 8.101l.595-.5m-.535.463l-.544-.84.84-.543.543.839zm18.013-7.525l.595-.5m-.526.453l-.544-.84.84-.543.543.839zm36.827-.266l.595-.5m-.522.439l-.544-.84.84-.543.543.839zm6.286-5.157V4.53c.438.407 1.44 1.344 1.91 1.782-.438.406-1.284.843-1.942 1.03-.031 0 .094.188.094.438v6.407l1.942 1.437c1.817-1.188 3.132-1.469 3.759-1.594l.031-6.906-5.794-5.438zm2.411 5.093l1.16 1.094v6.344l-1.348-.938V6.937l.188-.156z"/><path d="M107.213 5.625c-.814.531-3.1 1.531-4.354 1.781-.03 0 .094.188.094.438v6.406l1.942 1.438c1.817-1.188 3.132-1.47 3.759-1.594l.031-7.125-1.472-1.344zM105.271 7l1.19 1.281v5.969l-1.346-.938v-6.25L105.27 7zM52.745 1.656V4.5c.439.406 1.441 1.344 1.91 1.781-.438.407-1.283.844-1.941 1.032-.031 0 .094.187.094.437v6.406l1.942 1.438c1.816-1.188 3.132-1.469 3.758-1.594l.032-6.906-5.795-5.438zm2.412 5.094l1.159 1.094v6.343l-1.347-.937V6.906l.188-.156zm124.22 7.719l.596-.5m-.536.449l-.547-.837.837-.547.547.837zm-66.21-.012l.5-.5m-.423.414l-.585-.81.811-.585.585.81z"/><path d="M179.377 14.156c-.125-.156-.219-.375-.187-.531V6.719c-.126-.125-1.128-1.063-1.128-1.063l-1.754 1.375-1.316-1.281-1.69 1.344 1.19 1.312c-.189.25-.69 1.219-.095 2 .126.156.157.219.157.219l-.157.063c-1.096.343-1.879 1.53-1.879 2.406 0 .719.345 1.937 1.347 2.469l3.038-1.876.031.22c.032.5.345 1.062.846 1.687l1.817-1.281-.22-.157zm-2.568-.906l-1.44.906a2.4 2.4 0 0 1-.972-.969 2.99 2.99 0 0 1-.282-1.218s0-.469.188-.719c.094-.125.22-.188.282-.25.094-.063.22-.063.282 0 .533.406 1.16.469 1.91.5l.032 1.75zm-.47-5.844l.501.5v3.157c-.783.03-1.44-.157-1.722-.407-1.347-1.125-.22-2.656 1.221-3.25zm-52.995 6.657l-.376.25-.314-.282V6.562l-1.284-.875-2.349 1.532-.062-.157c-.314-.843-.783-1.125-1.003-1.343l-2.224 1.468.094.157s.251-.157.376-.219c.22.219.627.875.627 1.125v5.625l-.595.5 1.722 1.156 1.723-1.125-.595-.5V7.687l.595-.375.846.938v5.813c0 .687.563 1.187.94 1.5l2.066-1.376-.187-.124z"/><path d="M122.498 6.781l.595-.5m-.533.444l-.545-.84.84-.544.544.84zm12.968 7.338l-.376.25-.314-.282V6.562l-1.284-.875-2.349 1.532-.062-.157c-.314-.843-.783-1.125-1.003-1.343l-2.224 1.468.094.157s.251-.157.376-.219c.22.219.627.875.627 1.125v5.625l-.595.5 1.722 1.156 1.723-1.125-.595-.5V7.687l.595-.375.846.938v5.813c0 .687.563 1.187.94 1.5l2.066-1.376-.187-.124z"/><path d="M134.682 6.781l.595-.5m-.546.456l-.544-.839.839-.544.544.839zm-62.817 7.419l-.627.375-1.221-.875v-2.75l3.038-2.031-1.723-3.188-3.602 2.375v6.157c.69.5 2.193 1.375 2.193 1.375l2.067-1.313-.125-.125zm-1.88-7.031l1.41 2.406-1.41.938V7.125zm90.551 7.531l.626-.5m-.552.454l-.545-.84.84-.544.544.839z"/><path d="M165.22 14.156l-.626.375-1.222-.875v-2.75l3.038-2.031-1.722-3.188-3.602 2.375v6.157c.689.5 2.192 1.375 2.192 1.375l2.068-1.313-.126-.125zm-1.848-7l1.41 2.407-1.41.937V7.156zm8.238-1.187S170.075 7 169.793 7.156c-.062-.125-.282-.906-1.096-1.468a221.73 221.73 0 0 0-2.099 1.406l.094.125s.25-.188.314-.219l.156.094c.25.25.376.437.376.562v6l-.626.531 1.754 1.376s1.879-1.313 1.816-1.282l-.689-.594V7.72l.376-.25.877 1.125s-.094.125-.125.187c-.126.188-.345.469-.345.875 0 .156.157.5.439.5h.031c.188 0 .22-.031.376-.094l.063-.03-.063-.032c-.125-.031-.22-.063-.282-.125 0 0-.031 0-.031-.031-.094-.094-.188-.25-.188-.375 0-.219.125-.469.376-.781.438-.5 1.44-1.22 1.44-1.22l-1.127-1.5z"/><path d="M170.37 14.32l-.59-.808.809-.59.589.809zm-31.804-7.226L140.1 8.5v5.156l-.47.406h-.03c-.564-.218-1.254-1.156-1.254-1.718V7.25l.22-.156zm3.696 5.968v-6.03s-1.097-1-1.535-1.438c-.376.281-2.6 1.281-4.73 1.937.063.063.22.25.22.25l-.032 3.75c0 .625 0 1.406.22 2.094.25.75.689 1.313 1.378 1.719l.156.094-3.508 2.937c.032.031.063.375.063.375a.722.722 0 0 0 .282-.094c.25-.125.658-.312 1.347-.312.94 0 1.973.625 2.443.906.094.063.188.094.219.125.282-.063 1.41-.906 2.412-1.813.564-.5 1.033-1 1.378-1.406.407-.5.595-.843.595-1.093 0-.313-.22-.594-.439-.907-.187-.312-.47-.656-.47-1.094zm-1.598 4.688l-.282-.156c-.689-.407-1.346-.75-2.13-.75h-.187a19.04 19.04 0 0 0-.971.156l-.126-.25s2.725-2.281 2.976-2.5c.344.281.814.844 1.002 1.188.22.343.282.687.282 1.093 0 .438-.125.688-.564 1.219zM152.848 13c-2.443.094-4.416 2.313-4.385 4.5 0 .875.314 2.219 1.598 2.219.532 0 .97-.25.97-.969 0-.125-.03-.375-.093-.5-.094.25-.533.813-.971.813-.94-.032-1.19-.782-1.19-1.407 0-1.343 1.002-2.906 2.63-2.906.909 0 1.817.406 2.694 1.375 0 0 1.942-1.406 1.91-1.438-1.096-1.374-1.753-1.718-3.163-1.687zm-60.544-.687c-.094.374-.689 1.562-1.378 1.593-.564 0-.814 0-1.284-.125-.345-.094-.627-.156-.94-.156-.156 0-.313-.031-.407-.031-1.691 0-2.193 1.469-2.193 2.375 0 1.594.752 3.281 2.757 3.25.595 0 1.942-.344 1.942-1.594 0-.031-.126-.75-.47-.75h-.25c.03.219.187.563.187.688 0 .812-1.096 1.25-1.597 1.25-1.096 0-2.099-.657-2.099-2 0-.75.376-1.5 1.253-1.5.752 0 1.691.468 2.443.468 1.629-.062 2.005-1.187 2.036-3.469zm-4.729-7.469l.03-.032c-.312-.25-.469-.562-.469-.78 0-.563.47-1.157 1.347-1.157.156 0 .626.094 1.221.219.251.062.533.125.596.125.72.031 1.879-.75 2.568-1.531l.031-.032h-.031c-.627 0-1.096-.187-1.566-.375-.47-.187-.971-.375-1.598-.375-1.41 0-3.006 1.094-3.006 2.531.03.25.313 1.126.877 1.407z"/><path d="M102.108 13.906s-.22.188-.345.156a.546.546 0 0 1-.22-.093c-.312-.188-.626-.625-.626-1.25V3.813c0-.532.22-.876.345-1.063v-.031c-.22-.188-.501-.406-.783-.656-.533-.438-1.222-1-1.629-1.282 0 0-2.036 1.656-2.192 1.75l-.94-.75c-.376-.312-.97-.812-1.127-.937-.282.156-4.542 3.781-4.542 3.781v3h-.125c-2.38.313-2.537 2.125-2.537 2.688 0 .062.062.343.125.562v.063l.031-.063c.157-.313.376-.563.658-.781.282-.188.595-.344.94-.375.751-.094.814-.063.877 0l.03.031v3.219c0 .312-.062.469-.156.625.815-.406 1.786-1.25 2.068-1.781.344-.688.313-.657.313-2.094v-.156h1.973v3.75l-.69.718 2.35 1.563L98.099 14l-.314-.188s-.094.063-.125.094a.285.285 0 0 1-.22.094c-.218 0-.908-.594-.97-.719V9.594h2.161v3.531c0 .25 0 .656.282 1.281.063.125.752 1 1.253 1.25.219-.125 2.192-1.594 2.192-1.594l-.25-.156zm-7.862-6.344h-1.973V3.5l.814-.688s1.128.97 1.159.97v3.78zm4.448 0H96.5V3.438l.783-.624 1.41 1.343v3.407z"/></g></svg>