<svg width="87" height="23" viewBox="0 0 87 23" xmlns="http://www.w3.org/2000/svg"><title>Suncorp-HOR</title><g fill="none" fill-rule="evenodd"><path d="M74.547.469c-.55.006-1.088.052-1.616.13l1.792 8.377L76.64.626A11.823 11.823 0 0 0 74.547.47m2.097.157l-.882 8.52 4.404-7.346A11.825 11.825 0 0 0 76.644.627m8.674 6.403a11.894 11.894 0 0 0-2.163-3.018l-5.715 6.375 7.878-3.357m-15.93-5.312l4.294 7.416L72.928.6c-1.257.188-2.447.57-3.54 1.118m17.054 8.858a11.809 11.809 0 0 0-1.123-3.544L77.91 11.33l8.531-.754m-6.272-8.773l-3.47 7.833 6.454-5.626a11.909 11.909 0 0 0-2.984-2.207M66.365 3.88l6.372 5.725-3.35-7.886a11.918 11.918 0 0 0-3.022 2.162m18.88 13.946c.567-1.09.968-2.277 1.173-3.53l-8.523-.883 7.35 4.413m1.197-7.248l-8.375 1.795 8.351 1.921a12.024 12.024 0 0 0 .024-3.716M83.04 20.822a11.881 11.881 0 0 0 2.205-2.993L77.41 14.35l5.63 6.471m-2.626 1.962a11.88 11.88 0 0 0 2.625-1.96l-6.332-5.688a23.347 23.347 0 0 1 3.707 7.648M64.358 6.496a23.304 23.304 0 0 1 7.615 3.833l-5.61-6.447a11.957 11.957 0 0 0-2.005 2.614" fill="#F4B727"/><path d="M60.726 5.369s-.747 5.754 4.718 9.468c0 0 4.316 3.203 10.034.767A27.072 27.072 0 0 0 60.726 5.369" fill="#D82331"/><path d="M17.61 11.311c.71.41.705.961.705 1.725v5.561c0 .762.006 1.27-.719 1.692v.077h2.49v-.077c-.692-.407-.737-.973-.737-1.692v-5.394c.002.061 5.724 7.263 6.739 7.605V12.97c0-.763.007-1.247.716-1.655v-.08h-2.478v.08c.696.393.74.933.74 1.655v5.023c0-.058-5.017-6.113-5.017-6.113-.004-.005-.355-.484-.407-.644H17.61v.076m22.914 8.243c-2.171 0-3.514-2.029-3.514-3.907 0-2.127 1.435-3.613 3.487-3.613 2.24 0 3.447 2.03 3.447 3.945 0 2.103-1.405 3.575-3.42 3.575m3.66-7.13c-.93-.926-2.206-1.434-3.59-1.425-1.44-.035-2.781.48-3.775 1.453-.918.896-1.423 2.077-1.423 3.32 0 2.746 2.175 4.816 5.06 4.816 2.86 0 5.1-2.145 5.1-4.886 0-1.23-.486-2.394-1.372-3.278M5.97 17.833c0-1.147-1.19-1.802-2.453-2.495C2.089 14.55.612 13.74.612 12.15c0-1.76 1.434-2.898 3.65-2.898a7.1 7.1 0 0 1 2.58.48v1.89c-.66-.72-1.645-1.135-2.725-1.135-1.217 0-2.069.597-2.069 1.448 0 1.014 1.035 1.546 2.234 2.16h.003c1.462.753 3.12 1.605 3.12 3.556 0 1.707-1.413 2.946-3.361 2.946-1.318 0-2.415-.209-3.45-.654-.025-.117-.13-.643-.274-1.36 0 0-.104-.526-.144-.719 1.017.964 2.312 1.496 3.669 1.496 1.38 0 2.124-.786 2.124-1.528m29.41.701c-.695.396-1.764.868-2.933.868-1.99 0-3.485-1.642-3.485-3.82 0-1.99 1.318-3.38 3.208-3.38.861 0 1.768.286 2.573.8V11.38c-1.004-.256-1.803-.365-2.53-.365-2.865 0-4.868 1.962-4.868 4.773 0 2.962 2.03 4.802 5.297 4.802.798 0 1.5-.14 2.09-.418.01-.01.723-1.638.723-1.638h-.075M12.442 20.6c1.282 0 2.376-.368 2.943-.985.712-.78.71-1.732.708-2.685v-3.946c-.01-.608-.025-1.44.593-1.67v-.08H14.09v.08c.614.232.6 1.077.594 1.692l-.002 3.924c0 1.771-.794 2.654-2.24 2.654-1.45 0-2.242-.883-2.242-2.654v-3.924c-.009-.615-.022-1.46.591-1.692v-.08H8.196v.08c.62.23.602 1.062.594 1.67l-.004 3.946c0 .953 0 1.905.71 2.685.568.617 1.662.985 2.946.985m44.899-9.365h-3.357v.079c.612.244.6 1.09.593 1.707l-.002 5.58c.002.152.003.317-.004.485 0 0 .02 1.075-.572.958-.23-.047-.71-.438-.974-.678a8.702 8.702 0 0 1-.939-.965l-1.983-2.497a2.68 2.68 0 0 0 .288-.085c.986-.314 1.906-1.184 1.906-2.34 0-1.364-1.13-2.244-2.879-2.244h-3.29v.079c.619.23.605 1.07.593 1.683v5.713c.012.613.026 1.36-.593 1.579v.077h2.644v-.077c-.559-.198-.606-.991-.606-1.58v-6.541c.325-.018.38-.02.921-.036.543-.02.992.142 1.322.46.288.273.439.637.439 1.053 0 1.392-1.484 1.824-2.368 1.956-.002.004-.006.01 0 .02-.002 0 .001 0 0 .002 0 0 .794 1.247 1.27 1.94.451.662 1.268 1.632 1.67 2.106.408.502.86.697 1.616.697h3.727v-.077c-.707-.402-.739-.945-.739-1.688v-6.27c.303-.035.618-.064.945-.064.726 0 1.944.222 1.944 1.68 0 1.294-1.225 2.04-2.446 2.11.012.008-.008.011 0 .017-.008.001.012.001 0 .004.053.023.098.042.151.061.231.092.511.152.849.152 1.503 0 3.058-.98 3.058-2.619 0-1.479-1.25-2.437-3.184-2.437" fill="#FFF"/></g></svg>