<svg width="418" height="113" viewBox="0 0 418 113" xmlns="http://www.w3.org/2000/svg" xmlns:xlink="http://www.w3.org/1999/xlink"><title>VOYAGES_Rev</title><defs><path id="a" d="M416.939 112.94H.06V.602h416.879z"/></defs><g fill="none" fill-rule="evenodd"><path d="M168.96 32.096c.636-1.089.981-1.954.981-2.588 0-1.728-1.962-2.135-5.012-2.243l.522-2.25h13.3l-.515 2.25c-1.673.226-3.057.571-4.035 2.122l-22.402 36.579h-1.788l-8.295-36.579c-.344-1.551-1.44-1.896-3.109-2.122l.518-2.25h15.206l-.518 2.25c-2.88.108-5.934.341-5.989 3.336 0 .406.055.922.174 1.436l5.356 26.096 15.606-26.037m39.857 8.931c0-7.659-2.828-13.592-9.161-13.592-9.503 0-15.666 10.831-15.666 21.947 0 7.662 2.828 13.645 9.158 13.645 9.506 0 15.669-10.88 15.669-22m-30.816 8.588c0-13.714 9.565-25.178 21.714-25.178 9.965 0 15.091 7.085 15.091 16.361 0 13.704-9.561 25.227-21.714 25.227-9.957 0-15.091-7.141-15.091-16.41m72.514-17.575c1.036-1.266 1.554-2.184 1.554-2.824 0-1.377-1.325-1.666-4.893-1.951l.514-2.251h13.193l-.515 2.251c-1.673.229-2.71.629-4.038 2.125l-16.816 19.759-1.904 8.984c-.232.918-.343 1.728-.343 2.128 0 2.372 2.131 2.824 5.818 2.942l-.459 2.241h-18.318l.462-2.241c3.86-.118 6.626-.691 7.374-4.208l2.072-9.791-8.18-19.814c-.634-1.496-1.443-1.896-3.113-2.125l.518-2.251h15.151l-.519 2.251c-3.168 0-5.818.167-5.874 2.476 0 .63.23 1.377.573 2.299l5.59 14.458 12.153-14.458m18.372 17.509h14.629l-3.624-17.793-11.005 17.793zm15.206 2.821h-16.935l-3.682 5.994c-.811 1.269-1.156 2.194-1.156 2.824 0 1.55 1.729 1.895 5.012 2.013l-.403 2.243h-12.956l.456-2.243c1.728-.233 2.998-.514 3.971-2.129l20.396-32.773-.981-3.805h6.104l7.837 36.578c.337 1.559 1.492 1.896 3.105 2.129l-.399 2.243h-15.377l.4-2.243c3.228-.118 5.933-.347 5.993-3.227 0-.456-.06-.982-.115-1.552l-1.27-6.052zm41.468-27.933c4.778 0 9.331 1.324 12.155 3.509l-1.732 8.591h-1.958c-.511-6.456-3.628-9.273-8.813-9.273-10.769 0-17.624 11.572-17.624 22.628 0 8.765 4.668 13.252 11.063 13.252 3.34 0 5.586-.689 8.06-2.136l1.902-7.648c.233-.991.344-1.735.344-2.139 0-2.365-1.551-2.82-5.244-2.935l.466-2.254h16.416l-.462 2.254c-3.858.115-5.242.688-6.108 4.198l-2.299 9.561c-4.32 2.486-8.358 3.979-13.307 3.979-10.083 0-16.82-5.413-16.82-16.072 0-13.304 10.601-25.515 23.961-25.515m18.089 38.765c3.799-.118 5.983-.688 6.735-4.208l5.704-26.663c.17-.866.285-1.728.285-2.136 0-2.357-1.489-2.82-5.18-2.932l.456-2.25h32.082l-2.069 9.62h-1.558c-1.089-5.011-1.615-6.969-6.334-6.969h-11.175l-3.342 15.78h9.217c2.591 0 4.03-1.722 5.355-5.179h1.962l-2.771 13.015h-1.955c0-3.52-.571-5.186-3.165-5.186h-9.217l-2.477 11.811c-.229 1.027-.289 1.892-.289 2.241 0 2.135 1.499 2.653 5.124 2.653h4.382c5.183 0 7.311-1.673 12.326-7.718h1.67l-3.92 10.362h-32.37l.524-2.241m43.997-2.192l1.499-9.555h1.958c.574 7.478 4.031 11.805 9.964 11.805 4.497 0 8.355-2.31 8.355-7.488 0-4.032-2.365-6.101-8.007-9.214-5.356-2.939-7.95-6.17-7.95-10.997 0-6.915 5.244-11.123 12.273-11.123 5.179 0 9.207 1.78 12.034 4.149l-1.613 8.41h-1.899c-.693-6.111-3.168-9.787-8.584-9.787-5.072 0-7.373 2.814-7.373 7.078 0 3.398 1.846 5.47 6.451 7.898 5.993 3.162 9.847 6.383 9.847 11.916 0 7.944-7.026 11.923-13.652 11.923-6.563 0-11.172-2.939-13.303-5.015M143.125 87.326c-.041.195-.066.4-.066.497 0 .546.348.658 1.207.682l-.111.525h-4.07l.125-.525c.888-.024 1.395-.156 1.566-.984l1.332-6.215c.041-.202.069-.403.069-.498 0-.553-.351-.657-1.207-.689l.108-.517h4.069l-.125.517c-.883.032-1.395.167-1.565.985l-1.332 6.222m13.104-6.021c.041-.202.065-.401.065-.498 0-.549-.347-.657-1.207-.685l.112-.522h3.554l-.118.522c-.886.028-1.398.16-1.572.981l-1.662 7.927h-.571l-4.121-7.455-1.207 5.75c-.045.199-.07.404-.07.498 0 .545.352.657 1.207.681l-.108.526h-3.571l.125-.526c.883-.024 1.391-.16 1.565-.98l1.426-6.637c-.414-.629-.574-.747-1.249-.765l.125-.522h2.136l3.944 7.318 1.197-5.613m7.662-1.089l-1.489 7.026a2.511 2.511 0 0 0-.066.522c0 .542.265.65 1.1.65h.076c2.341 0 4.344-1.788 4.344-4.946 0-1.735-.699-3.252-3.04-3.252h-.925zm-4.421 8.288c.884-.024 1.399-.159 1.576-.98l1.329-6.219c.038-.202.065-.399.065-.497 0-.55-.347-.657-1.21-.686l.105-.521h3.7c3.061 0 4.23 1.704 4.23 3.867 0 3.211-2.577 5.562-5.899 5.562h-4.014l.118-.526zm14.57-1.178c-.042.195-.066.4-.066.497 0 .546.347.658 1.206.682l-.111.525H171l.125-.525c.887-.024 1.395-.156 1.565-.984l1.332-6.215c.042-.202.07-.403.07-.498 0-.553-.352-.657-1.207-.689l.108-.517h4.069l-.125.517c-.884.032-1.395.167-1.565.985l-1.332 6.222m10.149-7.86c1.117 0 2.177.303 2.834.817l-.403 2.004h-.455c-.119-1.505-.846-2.167-2.053-2.167-2.514 0-4.111 2.7-4.111 5.283 0 2.042 1.089 3.089 2.574 3.089.779 0 1.304-.164 1.885-.494l.438-1.788c.06-.232.084-.406.084-.497 0-.55-.365-.657-1.221-.685l.108-.525h3.826l-.104.525c-.905.028-1.225.16-1.426.981l-.539 2.23c-1.009.577-1.952.924-3.1.924-2.354 0-3.926-1.262-3.926-3.746 0-3.105 2.473-5.951 5.589-5.951m4.99 9.038c.886-.024 1.398-.159 1.572-.98l1.332-6.219a2.95 2.95 0 0 0 .066-.497c0-.55-.348-.661-1.214-.686l.108-.521h7.488l-.483 2.24h-.369c-.254-1.169-.372-1.625-1.474-1.625h-2.606l-.779 3.68h2.15c.601 0 .942-.397 1.248-1.207h.459l-.647 3.037h-.459c0-.818-.135-1.207-.737-1.207h-2.149l-.574 2.751c-.056.24-.07.445-.07.525 0 .497.352.619 1.197.619h1.022c1.207 0 1.704-.389 2.873-1.801h.393l-.918 2.417h-7.547l.118-.526m19.874-7.199a2.97 2.97 0 0 0 .067-.498c0-.549-.348-.657-1.211-.685l.108-.522h3.561l-.121.522c-.888.028-1.395.16-1.569.981l-1.669 7.927h-.564l-4.128-7.455-1.207 5.75a3.435 3.435 0 0 0-.066.498c0 .545.351.657 1.21.681l-.111.526h-3.569l.118-.526c.888-.024 1.399-.16 1.573-.98l1.422-6.637c-.41-.629-.577-.747-1.245-.765l.118-.522h2.136l3.951 7.318 1.196-5.613m10.95 2.029c0-1.787-.66-3.168-2.136-3.168-2.219 0-3.655 2.525-3.655 5.112 0 1.789.661 3.186 2.136 3.186 2.218 0 3.655-2.538 3.655-5.13m-7.189 2c0-3.196 2.233-5.867 5.071-5.867 2.32 0 3.516 1.651 3.516 3.809 0 3.206-2.233 5.891-5.064 5.891-2.326 0-3.523-1.666-3.523-3.833m18.962-4.029c.041-.202.066-.401.066-.498 0-.549-.348-.657-1.21-.685l.107-.522h3.562l-.121.522c-.888.028-1.396.16-1.57.981l-1.036 4.893c-.469 2.227-2.031 3.169-3.829 3.169-2.107 0-3.238-1.009-3.238-2.859 0-.299.042-.619.111-.97l.831-4.031a3.34 3.34 0 0 0 .063-.498c0-.549-.344-.657-1.207-.685l.108-.522h4.069l-.118.522c-.89.028-1.398.16-1.572.981l-.933 4.368a4.827 4.827 0 0 0-.087.79c0 1.252.721 2.097 2.071 2.097 1.571 0 2.601-.682 3.005-2.622l.928-4.431m3.546 6.692l.348-2.233h.459c.136 1.75.939 2.759 2.327 2.759 1.043 0 1.947-.543 1.947-1.75 0-.939-.555-1.426-1.867-2.146-1.252-.689-1.853-1.44-1.853-2.567 0-1.611 1.223-2.595 2.862-2.595 1.207 0 2.149.418 2.81.967l-.379 1.962h-.449c-.153-1.423-.734-2.285-2-2.285-1.175 0-1.717.661-1.717 1.652 0 .793.434 1.28 1.505 1.847 1.398.734 2.299 1.485 2.299 2.775 0 1.857-1.641 2.779-3.186 2.779-1.533 0-2.605-.681-3.106-1.165m23.191-8.395l-.39 2.81h-.428c-.431-1.847-.498-2.209-1.75-2.209h-.935l-1.503 7.123a1.917 1.917 0 0 0-.069.497c0 .547.483.659 1.342.683l-.107.524h-4.341l.105-.524c.904-.024 1.547-.16 1.721-.981l1.562-7.322h-.929c-1.249 0-1.478.362-2.686 2.209h-.43l.82-2.81h8.018m8.688 3.732c0-1.787-.661-3.168-2.136-3.168-2.222 0-3.655 2.525-3.655 5.112 0 1.789.654 3.186 2.132 3.186 2.223 0 3.659-2.538 3.659-5.13m-7.189 2c0-3.196 2.226-5.867 5.064-5.867 2.321 0 3.517 1.651 3.517 3.809 0 3.206-2.227 5.891-5.061 5.891-2.323 0-3.52-1.666-3.52-3.833m18.957-4.029c.045-.202.065-.401.065-.498 0-.549-.347-.657-1.207-.685l.112-.522h3.554l-.118.522c-.887.028-1.398.16-1.572.981l-1.03 4.893c-.476 2.227-2.031 3.169-3.833 3.169-2.111 0-3.241-1.009-3.241-2.859a5 5 0 0 1 .112-.97l.831-4.031c.038-.202.069-.401.069-.498 0-.549-.352-.657-1.207-.685l.104-.522h4.074l-.125.522c-.884.028-1.399.16-1.573.981l-.925 4.368a4.04 4.04 0 0 0-.094.79c0 1.252.727 2.097 2.069 2.097 1.572 0 2.602-.682 3.009-2.622l.926-4.431m7.544-1.089l-.853 4.02h.633c1.736 0 2.998-.677 2.998-2.312 0-1.036-.591-1.708-2.097-1.708h-.681zm-1.503 7.109c-.041.199-.07.404-.07.498 0 .546.348.657 1.207.681l-.108.526h-4.069l.122-.526c.884-.024 1.391-.159 1.568-.98l1.332-6.219c.035-.202.067-.399.067-.497 0-.55-.352-.657-1.207-.686l.104-.521h3.791c1.948 0 2.925.845 2.925 2.323 0 1.662-1.398 2.595-3.206 2.782l1.544 2.55c.535.876.779 1.238 1.704 1.248l-.108.526h-1.812c-.455-.418-.727-.887-1.134-1.586l-1.485-2.62h-.644l-.521 2.501zm10.896.001c-.042.195-.066.4-.066.497 0 .546.348.658 1.207.682l-.111.525h-4.07l.125-.525c.888-.024 1.396-.156 1.566-.984l1.332-6.215c.042-.202.069-.403.069-.498 0-.553-.351-.657-1.206-.689l.107-.517h4.07l-.125.517c-.887.032-1.395.167-1.566.985l-1.332 6.222m4.386.671l.348-2.233h.46c.135 1.75.938 2.759 2.323 2.759 1.047 0 1.951-.543 1.951-1.75 0-.939-.557-1.426-1.875-2.146-1.245-.689-1.847-1.44-1.847-2.567 0-1.611 1.218-2.595 2.86-2.595 1.21 0 2.145.418 2.806.967l-.379 1.962h-.442c-.16-1.423-.733-2.285-2-2.285-1.183 0-1.718.661-1.718 1.652 0 .793.428 1.28 1.506 1.847 1.392.734 2.296 1.485 2.296 2.775 0 1.857-1.645 2.779-3.189 2.779-1.528 0-2.602-.681-3.1-1.165m18.815-6.354l-4.42 7.387h-.4l-1.371-7.481-2.087 5.776c-.079.216-.103.39-.103.537 0 .483.347.601 1.123.643l-.087.525h-3.239l.109-.525c.761-.024 1.088-.178 1.314-.807l2.484-6.783c0-.622-.185-.768-1.02-.793l.118-.521h2.369c0 .254 0 .48.052.752l1.156 6.799 4.002-6.799c.164-.282.272-.449.379-.752h2.401l-.118.521c-.906.025-1.194.269-1.343.978l-.526 6.598c-.055.629.199.783.963.807l-.087.525h-3.738l.094-.525c.845-.024 1.439-.184 1.537-1.18l.438-5.682m11.643 3.681h3.419l-.845-4.152-2.574 4.152zm3.552.655h-3.951l-.867 1.397c-.184.3-.26.515-.26.658 0 .362.396.449 1.165.473l-.094.521h-3.023l.108-.521c.407-.052.695-.118.929-.497l4.755-7.649-.227-.883h1.419l1.83 8.532c.083.361.348.445.727.497l-.098.521h-3.586l.095-.521c.751-.024 1.383-.084 1.401-.751 0-.108-.018-.233-.028-.362l-.295-1.415zm12.67-4.674c.045-.202.066-.401.066-.498 0-.549-.348-.657-1.207-.685l.111-.522h3.555l-.118.522c-.887.028-1.399.16-1.572.981l-1.03 4.893c-.476 2.227-2.031 3.169-3.833 3.169-2.111 0-3.241-1.009-3.241-2.859 0-.299.041-.619.111-.97l.832-4.031c.038-.202.069-.401.069-.498 0-.549-.352-.657-1.207-.685l.104-.522h4.074l-.126.522c-.883.028-1.398.16-1.572.981l-.925 4.368a4.04 4.04 0 0 0-.094.79c0 1.252.726 2.097 2.069 2.097 1.572 0 2.602-.682 3.009-2.622l.925-4.431m3.551 6.692l.348-2.233h.46c.136 1.75.939 2.759 2.323 2.759 1.047 0 1.951-.543 1.951-1.75 0-.939-.556-1.426-1.875-2.146-1.245-.689-1.846-1.44-1.846-2.567 0-1.611 1.217-2.595 2.858-2.595 1.211 0 2.147.418 2.808.967l-.38 1.962h-.441c-.161-1.423-.734-2.285-2-2.285-1.183 0-1.718.661-1.718 1.652 0 .793.428 1.28 1.506 1.847 1.391.734 2.296 1.485 2.296 2.775 0 1.857-1.646 2.779-3.19 2.779-1.527 0-2.601-.681-3.1-1.165m18.427-8.395l-.389 2.81h-.428c-.435-1.847-.501-2.209-1.75-2.209h-.939l-1.505 7.123a2.26 2.26 0 0 0-.071.497c0 .547.487.659 1.35.683l-.114.524h-4.334l.104-.524c.904-.024 1.548-.16 1.722-.981l1.557-7.322h-.924c-1.252 0-1.479.362-2.693 2.209h-.428l.818-2.81h8.024m5.322.614l-.845 4.02h.634c1.728 0 2.991-.677 2.991-2.312 0-1.036-.592-1.708-2.091-1.708h-.689zm-1.502 7.109c-.041.199-.07.404-.07.498 0 .546.348.657 1.211.681l-.104.526h-4.074l.119-.526c.883-.024 1.398-.159 1.576-.98l1.328-6.219c.038-.202.066-.399.066-.497 0-.55-.347-.657-1.211-.686l.105-.521h3.791c1.951 0 2.932.845 2.932 2.323 0 1.662-1.398 2.595-3.213 2.782l1.544 2.55c.543.876.779 1.238 1.708 1.248l-.105.526h-1.819c-.455-.418-.727-.887-1.127-1.586l-1.492-2.62h-.643l-.522 2.501zm10.597-2.001h3.419l-.846-4.152-2.573 4.152zm3.551.655h-3.951l-.866 1.397c-.185.3-.261.515-.261.658 0 .362.396.449 1.165.473l-.094.521h-3.022l.107-.521c.407-.052.696-.118.929-.497l4.755-7.649-.226-.883h1.419l1.829 8.532c.084.361.348.445.727.497l-.097.521h-3.586l.094-.521c.751-.024 1.384-.084 1.401-.751 0-.108-.017-.233-.027-.362l-.296-1.415zm7.393 1.347a2.64 2.64 0 0 0-.066.455c0 .499.365.634 1.21.634h.654c1.224 0 1.778-.609 2.834-2h.45l-.981 2.615h-7.134l.119-.525c.886-.024 1.398-.156 1.572-.984l1.332-6.215c.038-.202.069-.403.069-.498 0-.553-.354-.657-1.214-.689l.108-.517h4.069l-.118.517c-.887.032-1.401.167-1.571.985l-1.333 6.222m10.031 0c-.042.195-.067.4-.067.497 0 .546.348.658 1.207.682l-.111.525h-4.069l.125-.525c.887-.024 1.394-.156 1.565-.984l1.332-6.215c.041-.202.07-.403.07-.498 0-.553-.352-.657-1.207-.689l.107-.517h4.07l-.126.517c-.886.032-1.394.167-1.564.985l-1.332 6.222" fill="#FFF"/><mask id="b" fill="#fff"><use xlink:href="#a"/></mask><path d="M410.876 85.324h3.412l-.846-4.152-2.566 4.152zm3.548.655h-3.955l-.859 1.397c-.184.3-.268.515-.268.658 0 .362.404.449 1.173.473l-.095.521h-3.022l.108-.521c.399-.052.695-.118.922-.497l4.761-7.649-.233-.883h1.426l1.829 8.532c.077.361.349.445.728.497l-.098.521h-3.586l.091-.521c.755-.024 1.387-.084 1.398-.751 0-.108-.011-.233-.028-.362l-.292-1.415z" fill="#FFF" mask="url(#b)"/><path d="M0 56.801C0 25.762 25.167.602 56.202.602c31.038 0 56.199 25.16 56.199 56.199 0 31.038-25.161 56.198-56.199 56.198C25.167 112.999 0 87.839 0 56.801zm71.928-29.565a2.057 2.057 0 0 0 2.062-2.062c0-1.138-.918-2.07-2.062-2.07a2.067 2.067 0 0 0 0 4.132zm-4.866.197a1.775 1.775 0 0 0 0-3.548 1.78 1.78 0 0 0-1.777 1.774c0 .978.796 1.774 1.777 1.774zm-4.5 1.664a1.596 1.596 0 1 0 0-3.193c-.876 0-1.6.713-1.6 1.596 0 .884.724 1.597 1.6 1.597zM43.471 43.491a2.174 2.174 0 0 0 0-4.347c-1.207 0-2.177.97-2.177 2.166 0 1.204.97 2.181 2.177 2.181zm.761-6.692a2.583 2.583 0 0 0 2.584-2.584 2.583 2.583 0 1 0-5.168 0 2.586 2.586 0 0 0 2.584 2.584zm2.569-6.408a2.857 2.857 0 0 0 2.862-2.849 2.862 2.862 0 0 0-2.862-2.859 2.852 2.852 0 0 0-2.845 2.859 2.847 2.847 0 0 0 2.845 2.849zm4.322-5.622a3.147 3.147 0 1 0 0-6.291 3.146 3.146 0 0 0 0 6.291zm5.635-4.888a2.854 2.854 0 0 0 0-5.707 2.858 2.858 0 0 0-2.859 2.858 2.854 2.854 0 0 0 2.859 2.849zm5.985-3.606a2.593 2.593 0 0 0 2.588-2.584 2.597 2.597 0 0 0-2.588-2.588 2.585 2.585 0 1 0 0 5.172zm-14.89 53.778a1.736 1.736 0 1 0 0-3.471c-.96 0-1.743.773-1.743 1.736 0 .96.783 1.735 1.743 1.735zm-4.446-5.483c1.185 0 2.166-.97 2.166-2.173a2.179 2.179 0 0 0-2.166-2.171 2.171 2.171 0 1 0 0 4.344zm-4.466-6.275a2.718 2.718 0 0 0 2.724-2.709 2.724 2.724 0 0 0-2.724-2.724 2.717 2.717 0 0 0 0 5.433zm-2.783-7.789a3.4 3.4 0 0 0 3.402-3.402 3.401 3.401 0 0 0-6.803 0 3.404 3.404 0 0 0 3.401 3.402zm-.349-8.771a3.757 3.757 0 1 0 0-7.516 3.76 3.76 0 0 0 0 7.516zm2.126-9.225a3.941 3.941 0 0 0 3.941-3.947 3.942 3.942 0 0 0-3.941-3.948 3.955 3.955 0 0 0-3.955 3.948 3.954 3.954 0 0 0 3.955 3.947zm4.346-9.145a3.758 3.758 0 1 0 0-7.516 3.763 3.763 0 0 0-3.766 3.757 3.763 3.763 0 0 0 3.766 3.759zm6.609-7.095a3.403 3.403 0 0 0 3.402-3.402 3.404 3.404 0 0 0-3.402-3.395 3.404 3.404 0 0 0-3.402 3.395 3.402 3.402 0 0 0 3.402 3.402zm7.318-5.292a2.72 2.72 0 0 0 2.727-2.713 2.72 2.72 0 0 0-2.727-2.719 2.713 2.713 0 0 0-2.716 2.719 2.713 2.713 0 0 0 2.716 2.713zm6.256 13.298a2.585 2.585 0 1 0-2.588-2.587 2.59 2.59 0 0 0 2.588 2.587zm-5.362 3.138a2.172 2.172 0 1 0-2.17-2.174c0 1.207.966 2.174 2.17 2.174zm11.138-6.118a2.172 2.172 0 1 0 0-4.347 2.175 2.175 0 0 0-2.177 2.17c0 1.197.981 2.177 2.177 2.177zM53.07 32.04a2.063 2.063 0 0 0 2.066-2.066 2.07 2.07 0 0 0-2.066-2.07 2.077 2.077 0 0 0-2.069 2.07c0 1.141.932 2.066 2.069 2.066zM40.466 86.367a2.068 2.068 0 0 0-2.073 2.064c0 1.137.929 2.065 2.073 2.065a2.062 2.062 0 0 0 2.059-2.065 2.058 2.058 0 0 0-2.059-2.064zm4.869-.191a1.771 1.771 0 0 0 0 3.541 1.77 1.77 0 0 0 0-3.541zm4.491-1.669a1.6 1.6 0 0 0-1.6 1.601c0 .88.713 1.595 1.6 1.595.883 0 1.596-.715 1.596-1.595a1.6 1.6 0 0 0-1.596-1.601zM68.922 70.11a2.177 2.177 0 1 0 0 4.354 2.177 2.177 0 0 0 0-4.354zm-.766 6.695a2.584 2.584 0 1 0 0 5.165 2.585 2.585 0 0 0 2.584-2.584 2.585 2.585 0 0 0-2.584-2.581zm-2.574 6.405a2.85 2.85 0 0 0-2.849 2.852 2.858 2.858 0 0 0 2.849 2.863 2.859 2.859 0 0 0 2.852-2.863 2.85 2.85 0 0 0-2.852-2.852zm-4.308 5.621a3.155 3.155 0 0 0-3.158 3.152 3.153 3.153 0 0 0 6.303 0 3.15 3.15 0 0 0-3.145-3.152zm-5.644 4.892a2.849 2.849 0 0 0-2.856 2.848 2.856 2.856 0 1 0 5.711 0 2.846 2.846 0 0 0-2.855-2.848zm-5.979 3.608a2.583 2.583 0 0 0 0 5.165 2.584 2.584 0 0 0 2.581-2.577 2.586 2.586 0 0 0-2.581-2.588zm14.885-53.783a1.74 1.74 0 0 0-1.739 1.743c0 .956.775 1.732 1.739 1.732.963 0 1.739-.776 1.739-1.732 0-.96-.776-1.743-1.739-1.743zm4.454 5.483a2.176 2.176 0 0 0-2.177 2.163c0 1.208.981 2.185 2.177 2.185a2.18 2.18 0 0 0 2.178-2.185 2.171 2.171 0 0 0-2.178-2.163zm4.454 6.275a2.711 2.711 0 0 0-2.709 2.721 2.71 2.71 0 0 0 2.709 2.713 2.722 2.722 0 0 0 2.724-2.713 2.723 2.723 0 0 0-2.724-2.721zm2.791 7.793a3.399 3.399 0 0 0-3.402 3.397 3.398 3.398 0 1 0 3.402-3.397zm.35 8.767a3.764 3.764 0 0 0-3.767 3.763 3.764 3.764 0 0 0 3.767 3.76 3.757 3.757 0 0 0 3.756-3.76 3.757 3.757 0 0 0-3.756-3.763zm-2.125 9.227a3.95 3.95 0 0 0-3.955 3.948 3.95 3.95 0 0 0 3.955 3.944c2.18 0 3.94-1.763 3.94-3.944a3.94 3.94 0 0 0-3.94-3.948zm-4.348 9.145a3.76 3.76 0 1 0 0 7.52 3.76 3.76 0 0 0 0-7.52zm-6.619 7.093a3.409 3.409 0 0 0-3.398 3.406 3.403 3.403 0 0 0 6.803 0 3.412 3.412 0 0 0-3.405-3.406zm-7.322 5.291a2.713 2.713 0 0 0-2.712 2.717 2.716 2.716 0 0 0 2.712 2.724 2.72 2.72 0 0 0 2.717-2.724 2.716 2.716 0 0 0-2.717-2.717zm-6.244-13.298a2.59 2.59 0 0 0-2.584 2.588 2.58 2.58 0 0 0 2.584 2.581 2.581 2.581 0 0 0 2.585-2.581 2.59 2.59 0 0 0-2.585-2.588zm5.351-3.136a2.168 2.168 0 0 0-2.167 2.173 2.18 2.18 0 0 0 2.167 2.181c1.204 0 2.18-.984 2.18-2.181a2.174 2.174 0 0 0-2.18-2.173zm-11.13 6.123a2.183 2.183 0 0 0-2.177 2.18 2.177 2.177 0 1 0 2.177-2.18zm15.167-10.75a2.07 2.07 0 0 0-2.062 2.069c0 1.134.932 2.066 2.062 2.066a2.073 2.073 0 0 0 2.069-2.066 2.07 2.07 0 0 0-2.069-2.069zm26.452-9.029a2.06 2.06 0 0 0 2.062 2.062 2.063 2.063 0 0 0 2.069-2.062 2.066 2.066 0 0 0-4.131 0zm-.195-4.872a1.773 1.773 0 0 0 3.544 0 1.773 1.773 0 0 0-3.544 0zm-1.666-4.494a1.597 1.597 0 1 0 3.193 0 1.596 1.596 0 1 0-3.193 0zM69.515 44.069a2.174 2.174 0 1 0 4.35 0 2.175 2.175 0 0 0-4.35 0zm6.69.767a2.587 2.587 0 0 0 5.172 0 2.592 2.592 0 0 0-2.592-2.584 2.585 2.585 0 0 0-2.58 2.584zm6.41 2.571a2.852 2.852 0 1 0 5.704 0 2.856 2.856 0 0 0-2.852-2.852 2.853 2.853 0 0 0-2.852 2.852zm5.619 4.319a3.14 3.14 0 0 0 3.147 3.144 3.151 3.151 0 0 0 3.152-3.144 3.152 3.152 0 0 0-3.152-3.147 3.141 3.141 0 0 0-3.147 3.147zm4.886 5.635a2.848 2.848 0 0 0 2.851 2.849 2.858 2.858 0 0 0 2.863-2.849 2.866 2.866 0 0 0-2.863-2.858 2.856 2.856 0 0 0-2.851 2.858zm3.611 5.986a2.593 2.593 0 0 0 2.584 2.588 2.589 2.589 0 0 0 0-5.176 2.591 2.591 0 0 0-2.584 2.588zM42.95 48.453a1.74 1.74 0 0 0 1.739 1.742 1.73 1.73 0 0 0 1.732-1.742 1.73 1.73 0 0 0-1.732-1.739 1.74 1.74 0 0 0-1.739 1.739zm5.483-4.446c0 1.196.97 2.174 2.171 2.174a2.174 2.174 0 0 0 2.169-2.174c0-1.207-.97-2.181-2.169-2.181a2.173 2.173 0 0 0-2.171 2.181zm6.276-4.462a2.712 2.712 0 0 0 2.708 2.719 2.719 2.719 0 0 0 0-5.436 2.71 2.71 0 0 0-2.708 2.717zm7.786-2.78a3.4 3.4 0 1 0 6.799 0A3.405 3.405 0 0 0 65.9 33.36a3.41 3.41 0 0 0-3.405 3.405zm8.768-.355a3.763 3.763 0 0 0 3.766 3.763 3.752 3.752 0 0 0 3.753-3.763 3.752 3.752 0 0 0-3.753-3.757 3.763 3.763 0 0 0-3.766 3.757zm9.229 2.125a3.95 3.95 0 1 0 7.9.002 3.95 3.95 0 0 0-7.9-.002zm9.146 4.345c0 2.08 1.686 3.77 3.763 3.77a3.765 3.765 0 0 0 3.756-3.77 3.76 3.76 0 1 0-7.519 0zm7.104 6.622a3.397 3.397 0 0 0 3.398 3.391 3.394 3.394 0 0 0 3.387-3.391 3.397 3.397 0 0 0-3.387-3.405 3.4 3.4 0 0 0-3.398 3.405zm5.286 7.318a2.71 2.71 0 0 0 2.713 2.713 2.713 2.713 0 0 0 2.719-2.713 2.716 2.716 0 0 0-5.432 0zm-13.293 6.245a2.578 2.578 0 1 0 5.155 0 2.58 2.58 0 0 0-2.581-2.581 2.579 2.579 0 0 0-2.574 2.581zm-3.148-5.357c0 1.197.97 2.174 2.173 2.174a2.18 2.18 0 0 0 2.178-2.174 2.176 2.176 0 0 0-4.351 0zm6.128 11.139a2.17 2.17 0 0 0 2.177 2.167 2.173 2.173 0 0 0 2.171-2.167c0-1.2-.977-2.181-2.171-2.181a2.18 2.18 0 0 0-2.177 2.181zM80.963 53.674a2.06 2.06 0 0 0 2.062 2.063 2.071 2.071 0 0 0 2.073-2.063c0-1.14-.935-2.065-2.073-2.065-1.14 0-2.062.925-2.062 2.065zM26.641 41.067a2.067 2.067 0 0 0-2.066-2.069 2.073 2.073 0 0 0-2.073 2.069c0 1.144.932 2.063 2.073 2.063a2.062 2.062 0 0 0 2.066-2.063zm.192 4.869c0-.978-.793-1.767-1.774-1.767s-1.767.789-1.767 1.767c0 .977.786 1.766 1.767 1.766.981 0 1.774-.789 1.774-1.766zm1.668 4.496c0-.887-.719-1.603-1.606-1.603a1.601 1.601 0 0 0 0 3.203 1.6 1.6 0 0 0 1.606-1.6zm14.392 19.095a2.174 2.174 0 0 0-2.173-2.174c-1.204 0-2.181.97-2.181 2.174A2.18 2.18 0 0 0 40.72 71.7a2.178 2.178 0 0 0 2.173-2.173zm-6.692-.768a2.59 2.59 0 0 0-2.588-2.584 2.578 2.578 0 0 0-2.574 2.584 2.578 2.578 0 0 0 2.574 2.588 2.59 2.59 0 0 0 2.588-2.588zm-6.408-2.573a2.856 2.856 0 0 0-2.856-2.856 2.85 2.85 0 0 0-2.851 2.856 2.846 2.846 0 0 0 2.851 2.851 2.852 2.852 0 0 0 2.856-2.851zm-5.624-4.311a3.143 3.143 0 0 0-3.141-3.151 3.153 3.153 0 0 0-3.155 3.151 3.155 3.155 0 0 0 3.155 3.148 3.145 3.145 0 0 0 3.141-3.148zm-4.88-5.639a2.858 2.858 0 0 0-5.715 0 2.86 2.86 0 0 0 2.852 2.856 2.864 2.864 0 0 0 2.863-2.856zm-3.615-5.987a2.585 2.585 0 0 0-5.171 0 2.591 2.591 0 0 0 2.584 2.588 2.588 2.588 0 0 0 2.587-2.588zm53.784 14.893a1.74 1.74 0 0 0-3.481 0c0 .96.776 1.736 1.739 1.736.963 0 1.742-.776 1.742-1.736zm-5.486 4.452a2.181 2.181 0 0 0-2.177-2.178 2.174 2.174 0 0 0-2.164 2.178c0 1.203.967 2.181 2.164 2.181a2.18 2.18 0 0 0 2.177-2.181zm-6.27 4.457a2.724 2.724 0 0 0-2.72-2.724 2.728 2.728 0 0 0-2.723 2.724 2.718 2.718 0 0 0 2.723 2.713c1.5 0 2.72-1.21 2.72-2.713zm-7.8 2.782a3.397 3.397 0 1 0-6.793 0 3.402 3.402 0 0 0 3.402 3.402 3.4 3.4 0 0 0 3.391-3.402zm-8.765.353a3.76 3.76 0 1 0-7.52 0 3.76 3.76 0 0 0 7.52 0zm-9.224-2.12a3.949 3.949 0 0 0-3.948-3.955 3.95 3.95 0 0 0 0 7.899 3.947 3.947 0 0 0 3.948-3.944zm-9.151-4.353a3.76 3.76 0 1 0-7.516 0 3.755 3.755 0 0 0 3.756 3.76c2.08 0 3.76-1.677 3.76-3.76zm-7.09-6.614a3.404 3.404 0 0 0-3.405-3.395 3.402 3.402 0 0 0-3.395 3.395 3.405 3.405 0 0 0 3.395 3.405 3.408 3.408 0 0 0 3.405-3.405zm-5.294-7.321a2.716 2.716 0 0 0-2.717-2.716 2.717 2.717 0 1 0 0 5.432 2.716 2.716 0 0 0 2.717-2.716zm13.298-6.247a2.584 2.584 0 0 0-2.585-2.584 2.573 2.573 0 0 0-2.58 2.584 2.572 2.572 0 0 0 2.58 2.577 2.582 2.582 0 0 0 2.585-2.577zm3.14 5.354a2.176 2.176 0 0 0-2.17-2.174 2.18 2.18 0 0 0-2.178 2.174c0 1.199.977 2.18 2.178 2.18a2.18 2.18 0 0 0 2.17-2.18zm-6.121-11.134a2.173 2.173 0 0 0-2.177-2.174 2.171 2.171 0 0 0-2.174 2.174 2.175 2.175 0 1 0 4.351 0zm10.744 15.173a2.067 2.067 0 1 0-4.135 0c0 1.141.929 2.062 2.069 2.062a2.065 2.065 0 0 0 2.066-2.062z" fill="#FFF"/></g></svg>